<?xml version="1.0" standalone="no"?>
<!DOCTYPE svg PUBLIC "-//W3C//DTD SVG 1.1//EN" "http://www.w3.org/Graphics/SVG/1.1/DTD/svg11.dtd" >
<svg xmlns="http://www.w3.org/2000/svg" xmlns:xlink="http://www.w3.org/1999/xlink" version="1.1">
<metadata>
Created by FontForge 20181014 at Thu Jan  1 00:00:00 1970
 By convertio
Copyright (c) 2012-2019 The Libertinus Project Authors.
</metadata>
<defs>
<font id="LibertinusSerif-Regular" horiz-adv-x="0" >
  <font-face 
    font-family="Libertinus Serif"
    font-weight="400"
    font-stretch="normal"
    units-per-em="1000"
    panose-1="2 0 5 3 0 0 0 0 0 0"
    ascent="800"
    descent="-200"
    x-height="431"
    cap-height="647"
    bbox="-1325 -256 1269 928"
    underline-thickness="40"
    underline-position="-138"
    unicode-range="U+0020-1F12F"
  />
<missing-glyph horiz-adv-x="500" 
d="M50 603v-508l170 254zM80 50h340l-170 254zM280 349l170 -254v508zM250 394l170 253h-340zM0 0v698h500v-698h-500z" />
    <glyph glyph-name="f_f" unicode="ff" horiz-adv-x="582" 
d="M447 122q0 -60 13 -74t66 -17q4 -5 4 -17t-4 -16q-86 2 -118 2q-37 0 -95 -2q-5 4 -5 16t5 17q35 3 45 17.5t10 73.5v268h-199v-268q0 -59 11 -73.5t48 -17.5q4 -5 4 -17t-4 -16q-64 2 -98 2q-39 0 -105 -2q-5 4 -5 16t5 17q43 3 54 17t11 74v268h-67q-5 0 -5 6v13
q0 20 23 20h49q0 174 102 233q33 19 74 19q54 0 90 -18t48 -40q24 37 60 56t68 19q54 0 87 -21t33 -53q0 -15 -10 -25t-25 -10q-18 0 -27.5 10t-19.5 30q-15 34 -54 34q-21 0 -37 -16.5t-25 -65.5q-7 -40 -7 -99v-53h108q8 0 8 -6v-20q0 -13 -24 -13h-92v-268zM378 564
q-4 -2 -6 -2q-12 0 -21 6.5t-13 13.5t-10 20q-22 49 -64 49q-11 0 -23.5 -5t-30 -27.5t-27.5 -58.5q-14 -44 -14 -122v-9h199v40q0 55 10 95z" />
    <glyph glyph-name="f_i" unicode="fi" horiz-adv-x="560" 
d="M470 122q0 -60 12 -74t60 -17q4 -5 4 -17t-4 -16q-74 2 -111 2t-107 -2q-4 4 -4 16t4 17q44 3 55.5 17t11.5 74v197q0 39 -8 55t-31 16h-179v-268q0 -60 12 -74t62 -17q5 -5 5 -17t-5 -16q-66 2 -113 2q-37 0 -105 -2q-5 4 -5 16t5 17q43 3 54 17t11 74v268h-67
q-5 0 -5 6v13q0 20 23 20h49v15q0 128 51 188q56 66 142 66q71 0 124.5 -32t53.5 -78q0 -16 -13 -28.5t-30 -12.5q-25 0 -40 14.5t-22 50.5q-10 52 -85 52q-49 0 -75.5 -51.5t-26.5 -126.5v-57h197q62 0 94 13q10 0 10 -6q-4 -64 -4 -103v-211z" />
    <glyph glyph-name="f_l" unicode="fl" horiz-adv-x="540" 
d="M452 122q0 -59 12.5 -73.5t57.5 -17.5q4 -5 4 -17t-4 -16q-64 2 -109 2q-39 0 -99 -2q-4 4 -4 16t4 17q39 2 49 16.5t10 74.5v441q0 5 0.5 14t0.5 11q-18 6 -28 27q-9 23 -32 36t-47 13q-14 0 -29 -8.5t-31 -27.5t-26 -58.5t-10 -93.5v-47h110q8 0 8 -6v-20
q0 -13 -23 -13h-93v-268q0 -59 12 -73t57 -18q4 -5 4 -17t-4 -16q-70 2 -108 2q-37 0 -105 -2q-5 4 -5 16t5 17q43 3 54 17t11 74v268h-67q-5 0 -5 6v13q0 20 23 20h51v30q0 115 57.5 177t129.5 62q69 0 103 -23q28 7 54 23q13 0 13 -10q-1 -40 -1 -105v-461z" />
    <glyph glyph-name="f_f_i" unicode="ffi" horiz-adv-x="829" 
d="M380 565q-2 -2 -7 -2q-18 0 -27 10t-16 29q-17 51 -62 51q-8 0 -18 -3.5t-24.5 -12t-27.5 -28.5t-20 -48q-11 -35 -11 -120v-12h202v40q0 52 11 96zM660 122v217q0 32 -4.5 41.5t-23.5 9.5h-184v-268q0 -60 10.5 -74t53.5 -17q4 -5 4 -17t-4 -16q-68 2 -103 2
q-37 0 -95 -2q-4 4 -4 16t4 17q35 3 45 17.5t10 73.5v268h-200v-268q0 -59 11 -73.5t48 -17.5q4 -5 4 -17t-4 -16q-62 2 -98 2q-33 0 -105 -2q-5 4 -5 16t5 17q43 3 54 17t11 74v268h-67q-5 0 -5 6v13q0 20 23 20h51q0 93 22 148t73 85q31 19 83 19q55 0 89.5 -17.5
t46.5 -40.5q23 30 64 52.5t87 22.5q58 0 98 -27q72 -49 72 -101q0 -16 -13 -27.5t-29 -11.5q-46 0 -59 79q-9 55 -81 55q-15 0 -29.5 -7t-31 -24.5t-26.5 -55.5t-10 -92v-57h194q62 0 95 13q4 0 4 -3q-2 -59 -2 -89v-228q0 -59 12.5 -73.5t57.5 -17.5q5 -5 5 -17t-5 -16
q-72 2 -109 2q-35 0 -99 -2q-5 4 -5 16t5 17q39 2 49 16.5t10 74.5z" />
    <glyph glyph-name="f_f_l" unicode="ffl" horiz-adv-x="815" 
d="M380 562h-2q-29 0 -41 29q-9 22 -30.5 38.5t-49.5 16.5q-25 0 -46.5 -21.5t-32.5 -64.5q-9 -28 -9 -122v-9h200v40q3 56 11 93zM727 122q0 -59 12.5 -73.5t57.5 -17.5q5 -5 5 -17t-5 -16q-86 2 -109 2q-15 0 -99 -2q-5 4 -5 16t5 17q39 2 49 16.5t10 74.5v441l1 11
q1 12 0 14q-18 6 -28 27q-9 23 -33.5 36t-49.5 13q-23 0 -49 -22.5t-33 -60.5q-8 -45 -8 -99v-53h108q8 0 8 -6v-20q0 -13 -24 -13h-92v-268q0 -60 10.5 -74t53.5 -17q4 -5 4 -17t-4 -16q-86 2 -103 2q-11 0 -95 -2q-4 4 -4 16t4 17q35 3 45 17.5t10 73.5v268h-200v-268
q0 -59 11 -73.5t48 -17.5q4 -5 4 -17t-4 -16q-86 2 -98 2q-21 0 -105 -2q-5 4 -5 16t5 17q43 3 54 17t11 74v268h-67q-5 0 -5 6v13q0 20 23 20h49q0 108 26 157q20 38 59 66.5t86 28.5q53 0 91 -17.5t51 -35.5q14 25 56 47.5t82 22.5q30 0 67.5 -6.5t52.5 -16.5q11 2 21 6.5
t20 10t13 6.5q13 0 13 -10q-1 -40 -1 -105v-461z" />
    <glyph glyph-name="longs_t" unicode="&#x17f;t" horiz-adv-x="561" 
d="M169 122q0 -60 12.5 -74.5t59.5 -16.5q5 -5 5 -17t-5 -16q-86 2 -111 2q-28 0 -112 -2q-4 4 -4 16t4 17q47 2 59.5 16.5t12.5 74.5v257v2q0 6 -0.5 8.5t-3.5 4t-9 1.5h-44q-5 0 -5 5v9q0 20 23 20q38 0 40 48q7 116 61 168.5t121 52.5q150 0 150 -148v-121h110q8 0 8 -6
v-20q0 -13 -24 -13h-94v-253q0 -49 7 -70.5t26 -21.5q35 0 71 28q15 -1 18 -17q-57 -66 -124 -66q-73 0 -73 99v301h-60q-5 0 -5 4v31q0 4 4 4h46q20 0 26 20.5t6 95.5q0 120 -98 120q-34 0 -66 -42.5t-32 -136.5v-364z" />
    <glyph glyph-name="f_f_h" unicode="ffh" horiz-adv-x="1052" 
d="M368 567l-3 -2q-22 0 -32.5 14.5t-19 35t-22.5 29.5q-19 12 -35 12q-10 0 -22.5 -5.5t-29 -28.5t-26.5 -59q-11 -35 -11 -123v-11h191v43q3 69 10 95zM626 672q38 9 63 26q12 0 12 -10q-3 -35 -3 -100v-234q83 83 175 83q53 0 75 -37.5t22 -117.5v-206q0 -22 9.5 -31.5
t33.5 -11.5l19 -2q9 -2 9 -8v-23l-2 -2q-69 2 -108 2l-103 -2l-2 2v23q0 8 7 8l20 2q25 2 34 11.5t9 31.5v198q0 60 -16 88t-51 28q-54 0 -131 -73v-241q0 -22 10 -31.5t33 -11.5l19 -2q8 0 8 -8v-23l-2 -2q-68 2 -107 2l-96 -2l-1 2v23q0 7 7 8l11 2q27 5 35 13t8 30v502
v11h-6q-13 0 -23 7.5t-13.5 14t-10.5 21.5q-8 15 -25 25.5t-35 10.5q-54 0 -70 -84q-7 -40 -7 -99v-56h110q8 0 8 -6v-20q0 -13 -24 -13h-94v-314q0 -22 8.5 -31t34.5 -12l19 -2q8 -2 8 -8v-23l-2 -2q-68 2 -107 2l-104 -2l-2 2v23q0 6 8 8l19 2q24 2 33.5 11.5t9.5 31.5
v314h-191v-314q0 -22 9 -31.5t34 -11.5l19 -2q8 0 8 -8v-23l-2 -2q-68 2 -107 2l-104 -2l-2 2v23q0 6 8 8l19 2q25 3 34 12t9 31v314h-69q-5 0 -5 6v13q0 20 23 20h51q0 93 22 149.5t73 86.5q33 19 71 19q54 0 89 -18t47 -41q24 37 62 57.5t69 20.5q70 0 101 -31z" />
    <glyph glyph-name="f_f_j" unicode="ffj" horiz-adv-x="794" 
d="M368 567l-3 -2q-22 0 -32.5 14.5t-19 35t-22.5 29.5q-19 12 -35 12q-10 0 -22.5 -5.5t-29 -28.5t-26.5 -59q-11 -35 -11 -123v-11h191v43q3 69 10 95zM718 109q0 -240 -73 -299q-37 -31 -91 -31q-17 0 -34.5 12t-17.5 32q0 12 10 21t20 9q26 0 44 -22q11 -16 23 -16
q16 0 25.5 22.5t13 69.5t4.5 79t1 89v263q0 32 -5 42t-24 10h-181v-315q0 -21 10 -30.5t33 -11.5l32 -2q8 0 8 -8v-23l-2 -2q-81 2 -120 2l-104 -2l-2 2v23q0 6 8 8l19 2q24 2 33.5 11t9.5 31v315h-191v-315q0 -22 9 -31t34 -11l19 -2q8 0 8 -8v-23l-2 -2q-68 2 -107 2
l-104 -2l-2 2v23q0 6 8 8l19 2q25 3 34 11.5t9 30.5v315h-69q-5 0 -5 6v13q0 20 23 20h51q0 93 22 150t73 86q33 19 71 19q54 0 89 -18t47 -41q23 30 64 52.5t87 22.5q49 0 89 -27q30 -19 50.5 -46.5t20.5 -53.5q0 -15 -12.5 -27t-27.5 -12q-24 0 -37.5 18.5t-22.5 60.5
q-10 54 -72 54q-15 0 -30 -7t-32 -24t-27.5 -55t-10.5 -92v-60h189q20 0 48 6.5t32 6.5h16v-333z" />
    <glyph glyph-name="f_f_k" unicode="ffk" horiz-adv-x="1018" 
d="M368 567l-3 -2q-22 0 -32.5 14t-19 33.5t-22.5 28.5q-19 12 -35 12q-7 0 -16 -3t-20.5 -11.5t-23 -28t-18.5 -47.5q-11 -35 -11 -123v-11h191v43q3 69 10 95zM697 211v-135q0 -22 10 -31.5t33 -11.5l19 -2q9 0 9 -8v-23l-2 -2q-69 2 -108 2l-103 -2l-2 2v23q0 8 8 8l19 2
q25 3 34 12t9 31v499v11q-12 1 -21.5 8.5t-13 13.5t-10.5 21q-17 34 -56 34q-15 0 -28.5 -4.5t-30.5 -24.5t-23 -53q-7 -40 -7 -96v-56h110q8 0 8 -6v-20q0 -13 -24 -13h-94v-314q0 -22 9 -31t34 -12l19 -2q8 0 8 -8v-23l-2 -2q-68 2 -107 2l-104 -2l-2 2v23q0 8 8 8l19 2
q25 3 34 12t9 31v314h-191v-314q0 -22 8.5 -31t34.5 -12l19 -2q8 0 8 -8v-23l-2 -2q-68 2 -107 2l-104 -2l-2 2v23q0 8 8 8l19 2q26 3 34.5 12t8.5 31v314h-69q-5 0 -5 6v13q0 20 23 20h51q0 93 22 148t73 85q33 19 71 19q54 0 89 -18t47 -40q37 75 146 75q49 0 82 -20
q29 6 53 17h22v-458q54 26 131 110q20 21 20 39q0 16 -29 16h-4q-8 0 -8 8v19l3 2q47 -2 83 -2l93 2l4 -2v-19q0 -8 -11 -8h-7q-20 0 -49 -14.5t-47 -33.5l-76 -84q-5 -5 -5 -11t5 -13l118 -169q32 -46 75 -46h3q12 0 12 -8v-22l-2 -3q-50 2 -89 2l-62 -2l-3 4v21
q0 21 -23 54l-73 99q-9 13 -14 18.5t-14.5 11.5t-20.5 6q-7 0 -10 -1z" />
    <glyph glyph-name="f_h" unicode="fh" horiz-adv-x="790" 
d="M436 356q82 83 175 83q53 0 75 -37.5t22 -117.5v-208q0 -22 9 -31t34 -12l19 -2q8 0 8 -8v-23l-2 -2q-68 2 -107 2l-104 -2l-2 2v23q0 6 8 8l19 2q26 3 34.5 12t8.5 31v200q0 61 -16 88.5t-51 27.5q-53 0 -130 -73v-243q0 -22 9.5 -31.5t33.5 -11.5l19 -2q8 0 8 -8v-23
l-2 -2q-68 2 -108 2l-103 -2l-2 2v23q0 6 8 8l19 2q25 2 34 11.5t9 31.5v500q0 8 -1 12q-18 6 -28 27q-19 49 -62 49q-15 0 -30.5 -6.5t-33 -23t-28.5 -54t-11 -91.5v-60h110q8 0 8 -6v-20q0 -13 -23 -13h-95v-314q0 -22 8.5 -31t34.5 -12l18 -2q8 0 8 -8v-23l-2 -2
q-67 2 -106 2l-104 -2l-2 2v23q0 6 8 8l19 2q25 3 34 12t9 31v314h-69q-5 0 -5 6v13q0 20 23 20h51v43q0 56 18.5 101t48.5 71t63.5 40t66.5 14q49 0 83 -23q24 9 42 20h22v-339z" />
    <glyph glyph-name="f_j" unicode="fj" horiz-adv-x="529" 
d="M452 106q0 -237 -73 -296q-37 -31 -91 -31q-17 0 -34.5 12t-17.5 32q0 12 10 21t20 9q26 0 44 -22q11 -16 23 -16q16 0 25.5 22.5t13 69.5t4.5 79t1 89v264q0 31 -5 41t-24 10h-181v-314q0 -23 8 -32.5t35 -10.5l33 -2q8 0 8 -8v-23l-2 -2q-82 2 -121 2l-104 -2l-2 2v23
q0 6 8 8l19 2q23 2 33 11.5t10 31.5v314h-69q-5 0 -5 6v13q0 20 23 20h51v18q0 70 17 121.5t46 78.5t60 39t65 12q49 0 89 -27q30 -20 50 -47.5t20 -53.5q0 -15 -12.5 -26.5t-27.5 -11.5q-23 0 -37 18.5t-22 59.5q-12 55 -72 55q-15 0 -30 -6.5t-32.5 -23t-28 -54.5
t-10.5 -92v-60h189q20 0 48.5 7.5t32.5 7.5h15v-338z" />
    <glyph glyph-name="f_k" unicode="fk" horiz-adv-x="761" 
d="M436 210v-134q0 -22 9.5 -31.5t33.5 -11.5l19 -2q8 0 8 -8v-23l-2 -2q-68 2 -108 2l-103 -2l-2 2v23q0 6 8 8l19 2q27 3 35 11.5t8 31.5v500q0 8 -1 12q-18 6 -28 27q-19 49 -62 49q-15 0 -30.5 -7t-33 -24t-28.5 -55t-11 -92v-57h110q8 0 8 -6v-20q0 -13 -23 -13h-95
v-314q0 -23 8 -31.5t35 -11.5l18 -2q8 0 8 -8v-23l-2 -2q-67 2 -106 2l-104 -2l-2 2v23q0 6 8 8l19 2q24 2 33.5 11.5t9.5 31.5v314h-69q-5 0 -5 6v13q0 20 23 20h51v39q0 108 62 169t135 61q49 0 83 -23q7 3 20.5 10t21.5 10h22v-460q54 26 134 112q20 21 20 39
q0 16 -29 16h-4q-9 0 -9 8v19l3 2q48 -2 83 -2l94 2l3 -2v-19q0 -8 -10 -8h-8q-20 0 -48.5 -14.5t-46.5 -33.5l-77 -84q-4 -6 -4 -10q0 -7 5 -14l118 -169q13 -20 34 -33t40 -13h3q13 0 13 -8v-23l-2 -2q-26 2 -89 2q-32 0 -62 -2l-3 2v23q0 21 -23 54l-73 99
q-9 13 -14 18.5t-14.5 11.5t-20.5 6q-5 0 -13 -2z" />
    <glyph glyph-name="f_t" unicode="ft" horiz-adv-x="596" 
d="M175 390v-268q0 -60 13 -74t66 -17q4 -5 4 -17t-4 -16q-80 2 -118 2q-37 0 -105 -2q-5 4 -5 16t5 17q43 3 54 17t11 74v268h-69q-5 0 -5 6v13q0 20 23 20h51v40q0 130 38 181q17 22 46 35t53 13q56 0 88 -24q29 -22 29 -48q0 -16 -9.5 -26t-23.5 -10q-27 0 -39 28
q-19 46 -54 46q-13 0 -26 -10.5t-19 -27.5q-4 -13 -4 -140v-57h194q0 92 -2 115q0 3 1.5 5t6.5 4.5t6 3.5l58 26q13 0 13 -10q-4 -40 -4 -105v-39h120q8 0 8 -6v-20q0 -13 -24 -13h-104v-253q0 -49 7 -70.5t26 -21.5q46 0 82 28q15 -1 18 -17q-59 -66 -135 -66q-77 0 -77 99
v301h-194z" />
    <glyph glyph-name="c_k" unicode="c&#x200d;k" horiz-adv-x="851" 
d="M382 91q-58 -101 -151 -101q-95 0 -144.5 58.5t-49.5 159.5q0 103 56.5 167t138.5 64q69 0 108 -28.5t39 -70.5q0 -20 -15.5 -32t-32.5 -12q-31 0 -35 36q-1 16 -4 26t-9.5 22.5t-20.5 18.5t-35 6q-49 0 -76.5 -47t-27.5 -129t39 -138t91 -56q57 0 107 72q17 -2 22 -16z
M458 122v437q0 32 -1.5 48t-12.5 23.5t-17 8t-33 2.5q-11 11 -6 30q89 7 140 27q13 0 13 -10q-4 -40 -4 -105v-346q39 12 129 110q6 6 10 12.5t7 15.5t-5.5 15.5t-29.5 7.5q-4 4 -4 16t4 17q74 -2 92 -2q13 0 87 2q5 -5 5 -17t-5 -16q-70 -3 -110 -44l-76 -84q-4 -4 -4 -10
q0 -7 5 -14l117 -173q15 -23 34.5 -30.5t51.5 -11.5q5 -5 5 -17t-5 -16q-60 2 -82 2q-29 0 -69 -2q-4 0 -4 5v16q0 21 -23 54l-73 103q-15 21 -27 28.5t-30 7.5v-90q0 -59 9.5 -73.5t42.5 -17.5q5 -5 5 -17t-5 -16q-86 2 -91 2q-21 0 -87 -2q-5 4 -5 16t5 17q29 4 38 18.5
t9 72.5z" />
    <glyph glyph-name="c_h" unicode="c&#x200d;h" horiz-adv-x="882" 
d="M382 91q-58 -101 -151 -101q-95 0 -144.5 58.5t-49.5 159.5q0 103 56.5 167t138.5 64q69 0 108 -28.5t39 -70.5q0 -20 -15.5 -32t-32.5 -12q-31 0 -35 36q-1 16 -4 26t-9.5 22.5t-20.5 18.5t-35 6q-49 0 -76.5 -47t-27.5 -129t39 -138t91 -56q58 0 107 71q18 -2 22 -15z
M526 286v-164q0 -60 10 -74t50 -17q4 -5 4 -17t-4 -16q-84 2 -99 2q-8 0 -90 -2q-5 4 -5 16t5 17q31 2 40.5 17t9.5 74v437q0 32 -1.5 48t-12.5 23.5t-17 8t-33 2.5q-11 11 -6 30q89 7 140 27q13 0 13 -10q-4 -40 -4 -105l-1 -225q0 -13 10 0q42 47 79 64t79 17q57 0 83 -34
q27 -36 27 -134v-149q0 -59 11.5 -73t55.5 -18q4 -4 4 -16t-4 -17q-86 2 -106 2q-18 0 -102 -2q-4 5 -4 17t4 16q41 4 51.5 18t10.5 73v152q0 53 -12 77q-19 36 -53 36q-55 0 -116 -59q-17 -19 -17 -42z" />
    <glyph glyph-name="T_h" unicode="T&#x200d;h" horiz-adv-x="1048" 
d="M350 122q0 -60 17 -74.5t80 -16.5q5 -5 5 -17t-5 -16q-100 2 -139 2q-42 0 -140 -2q-4 4 -4 16t4 17q63 2 80 16.5t17 74.5v385q0 49 -10.5 74t-36.5 25h-49q-52 0 -85 -24t-47 -82q-21 0 -34 5q20 86 25 145q0 3 4 3q101 -8 233 -8h86q73 0 197 4q26 1 48.5 8t47.5 19
l24 12q13 0 13 -10q-4 -40 -4 -105l-1 -215q0 -13 10 0q73 81 170 81q57 0 83 -34q27 -36 27 -134v-149q0 -59 11.5 -73t55.5 -18q4 -5 4 -17t-4 -16q-86 2 -106 2q-18 0 -102 -2q-4 5 -4 17t4 16q41 4 51.5 18t10.5 73v152q0 53 -12 77q-19 36 -53 36q-67 0 -128 -59
q-17 -19 -17 -42v-164q0 -60 10 -74t50 -17q5 -5 5 -17t-5 -16q-84 2 -99 2q-28 0 -110 -2q-4 4 -4 16t4 17q46 3 58 17t12 74v421q0 16 -5.5 27.5t-18 18t-23.5 11t-31.5 5.5t-32.5 1.5t-36 0t-33 -0.5h-22q-26 0 -36 -25.5t-10 -76.5v-382z" />
    <glyph glyph-name="longs_s" unicode="&#x17f;s" horiz-adv-x="589" 
d="M93 477q7 118 56 169.5t117 51.5q63 0 105 -32.5t42 -70.5q0 -34 -31 -34q-36 0 -60 69q-13 35 -68 35q-15 0 -28 -7t-27.5 -24.5t-23 -55.5t-8.5 -92v-414q0 -23 8 -32t35 -11l25 -2q8 0 8 -8v-19l-2 -2q-74 2 -113 2l-104 -2l-2 2v19q0 6 8 8l19 2q24 2 33.5 11.5
t9.5 31.5v307q0 10 -2.5 13t-12.5 3h-44q-5 0 -5 5v9q0 20 23 20q40 0 42 48zM281 140l27 1q8 -64 36 -96q26 -29 64 -29q27 0 52.5 22.5t25.5 54.5q0 34 -20.5 57t-78.5 48q-60 26 -83 51t-23 78q0 48 38 81.5t96 33.5q65 0 113 -25q8 -40 11 -102l-27 -1q-14 54 -43.5 76
t-53.5 22q-31 0 -51.5 -17.5t-20.5 -52.5q0 -31 14 -47.5t54 -31.5q69 -26 105.5 -59t36.5 -88q0 -44 -27 -74.5t-57.5 -42t-57.5 -11.5q-41 0 -80 11q-14 2 -19 2q-9 0 -24 -3q0 56 -7 142z" />
    <glyph glyph-name="t_z" unicode="t&#x200d;z" horiz-adv-x="532" 
d="M164 137q0 -49 3 -75t8 -33.5t13 -7.5h6q9 -9 9 -19q-32 -12 -41 -12q-73 0 -73 99v301h-65q-4 0 -4 4v31q0 4 3 4q48 0 65.5 27.5t17.5 88.5v19l58 20v-155h251q13 0 29 1.5t26.5 3t11.5 1.5q13 0 13 -6q0 -8 -22 -42l-135 -220q67 0 116 -54.5t49 -129.5
q0 -87 -56 -151t-142 -64q-58 0 -100.5 31t-42.5 59q0 15 8.5 25.5t23.5 10.5q34 0 45 -34q6 -20 26.5 -38.5t48.5 -18.5q37 0 73 46.5t36 117.5q0 75 -25.5 120.5t-72.5 45.5q-9 0 -59 -11l-17 16l150 253l-235 -1v-253z" />
    <glyph glyph-name="longs_h" unicode="&#x17f;h" horiz-adv-x="780" 
d="M362 675q32 7 55 23q12 0 12 -10q-3 -35 -3 -100v-229q83 83 164 83q108 0 108 -158v-212q0 -22 9.5 -31.5t33.5 -11.5l19 -2q9 -2 9 -8v-19l-2 -2q-69 2 -108 2l-103 -2l-2 2v19q0 6 8 8l19 2q25 3 34 12t9 31v223q0 59 -17 79.5t-61 20.5q-45 0 -120 -73v-250
q0 -22 10 -31.5t33 -11.5l23 -2q8 0 8 -8v-19l-1 -2q-73 2 -112 2l-94 -2l-1 2v19q0 7 7 8l9 2q25 5 34 13.5t9 29.5v504v12q-17 5 -29 27q-19 49 -62 49q-15 0 -28.5 -6.5t-29.5 -24t-25.5 -55.5t-9.5 -92v-414q0 -23 8 -31.5t35 -11.5l18 -2q8 0 8 -8v-19l-2 -2
q-67 2 -106 2l-104 -2l-2 2v19q0 6 8 8l19 2q25 3 34 12t9 31v307q0 10 -2.5 13t-12.5 3h-44q-5 0 -5 5v9q0 20 23 20q41 0 41 49q3 104 60.5 162t126.5 58q51 0 83 -23z" />
    <glyph glyph-name="t_t" unicode="t&#x200d;t" horiz-adv-x="614" 
d="M90 390h-59q-5 0 -5 6v13q0 20 18 20h46q0 82 -2 105q0 3 1.5 5t6.5 4.5t6 3.5l58 26q13 0 13 -10q-4 -40 -4 -105v-29h211q0 92 -2 115q0 3 1.5 5t6.5 4.5t6 3.5l58 26q13 0 13 -10q-4 -40 -4 -105v-39h120q8 0 8 -6v-20q0 -13 -24 -13h-104v-253q0 -49 7 -70.5
t26 -21.5q46 0 82 28q15 -1 18 -17q-58 -66 -135 -66t-77 99v301h-211v-253q0 -49 7 -70.5t26 -21.5q39 0 71 28q12 -1 16 -15q-20 -30 -53 -49t-69 -19q-77 0 -77 99v301z" />
    <glyph glyph-name="longs_i" unicode="&#x17f;i" horiz-adv-x="535" 
d="M452 122q0 -60 12 -74t60 -17q4 -5 4 -17t-4 -16q-66 2 -111 2q-46 0 -112 -2q-5 4 -5 16t5 17q48 4 60 17.5t12 73.5v195q0 42 -11.5 53t-53.5 15q-6 17 -2 28q92 12 137 29q13 0 13 -7q-4 -64 -4 -114v-199zM93 477q7 117 60 169t123 52q45 0 85 -27q30 -20 50 -47.5
t20 -53.5q0 -15 -12 -26.5t-27 -11.5q-24 0 -38 18.5t-22 59.5q-12 55 -68 55q-15 0 -29.5 -7t-31 -24.5t-26.5 -55.5t-10 -92v-410q0 -22 9 -31.5t34 -11.5l25 -2q8 0 8 -8v-23l-2 -2q-74 2 -113 2l-104 -2l-2 2v23q0 6 8 8l19 2q27 3 35 11.5t8 31.5v303q0 10 -2.5 13
t-12.5 3h-44q-5 0 -5 5v9q0 20 23 20q40 0 42 48z" />
    <glyph glyph-name="longs_longs" unicode="&#x17f;&#x17f;" horiz-adv-x="559" 
d="M385 623q8 24 40 49.5t76 25.5q50 0 83 -30q26 -23 26 -46q0 -15 -8.5 -26.5t-26.5 -11.5q-38 0 -46 41q-8 39 -34 39q-39 0 -55.5 -48t-16.5 -142v-398q0 -22 9.5 -32t33.5 -11l33 -2q8 0 8 -8v-23l-2 -2q-82 2 -121 2l-103 -2l-2 2v23q0 6 8 8l19 2q25 2 34 11.5
t9 31.5v303q0 10 -2.5 13t-13.5 3h-43q-6 0 -6 5v9q0 7 5.5 13.5t17.5 6.5q42 0 42 48t10 87q-4 -2 -6 -2q-34 0 -44 40q-13 51 -57 51q-15 0 -28 -9t-27 -31.5t-22 -69.5t-8 -114v-353q0 -21 9.5 -30.5t33.5 -12.5l14 -2q8 -2 8 -8v-23l-2 -2q-63 2 -102 2l-104 -2l-2 2v23
q0 6 8 8l19 2q23 2 33 11.5t10 31.5v303q0 10 -2.5 13t-12.5 3h-44q-5 0 -5 5v9q0 20 23 20q39 0 43 48q5 71 25.5 114.5t64.5 70.5q31 19 69 19q82 0 132 -58z" />
    <glyph glyph-name="longs_longs_i" unicode="&#x17f;&#x17f;i" horiz-adv-x="791" 
d="M708 122q0 -60 12 -74t60 -17q4 -5 4 -17t-4 -16q-66 2 -111 2q-46 0 -112 -2q-5 4 -5 16t5 17q48 4 60 17.5t12 73.5v195q0 42 -11.5 53t-53.5 15q-6 17 -2 28q92 12 137 29q13 0 13 -7q-4 -64 -4 -114v-199zM532 698q45 0 85 -27q30 -20 50.5 -47.5t20.5 -53.5
q0 -15 -12.5 -26.5t-27.5 -11.5q-24 0 -37.5 18.5t-22.5 59.5q-10 55 -68 55q-15 0 -29.5 -7t-31 -24.5t-26.5 -55.5t-10 -92v-414q0 -22 9.5 -32t33.5 -11l33 -2q8 0 8 -8v-19l-2 -2q-82 2 -121 2l-103 -2l-2 2v19q0 6 8 8l19 2q25 2 34 11.5t9 31.5v307q0 10 -2.5 13
t-13.5 3h-43q-6 0 -6 5v9q0 7 5.5 13.5t17.5 6.5q42 0 42 48t10 87q-4 -2 -6 -2q-34 0 -44 40q-13 51 -57 51q-15 0 -28 -9t-27 -31.5t-22 -69.5t-8 -114v-357q0 -22 9 -30.5t34 -12.5l14 -2q8 -2 8 -8v-19l-2 -2q-63 2 -102 2l-104 -2l-2 2v19q0 6 8 8l19 2q26 3 34.5 12
t8.5 31v307q0 10 -2.5 13t-12.5 3h-44q-5 0 -5 5v9q0 20 23 20q39 0 43 48q5 71 25.5 114.5t64.5 70.5q31 19 69 19q82 0 132 -58q29 40 63 57.5t84 17.5z" />
    <glyph glyph-name="longs_l" unicode="&#x17f;l" horiz-adv-x="517" 
d="M167 486v-414q0 -22 8.5 -31t34.5 -12l18 -2q8 0 8 -8v-19l-2 -2q-67 4 -106 4l-104 -4l-2 2v19q0 6 8 8l19 2q26 3 34.5 12t8.5 31v307q0 10 -2.5 13t-12.5 3h-44q-5 0 -5 5v9q0 20 23 20q41 0 41 49q3 104 60.5 162t126.5 58q49 0 83 -23q32 7 55 23q12 0 12 -10
q-3 -35 -3 -100v-516q0 -22 9.5 -31.5t33.5 -11.5l23 -2q8 0 8 -8v-19l-1 -2q-73 2 -112 2l-94 -2l-1 2v19q0 7 7 8l9 1q25 3 34 12.5t9 31.5v504v12q-17 5 -29 27q-19 49 -62 49q-15 0 -28.5 -6.5t-29.5 -24t-25.5 -55.5t-9.5 -92z" />
    <glyph glyph-name="longs_j" unicode="&#x17f;j" horiz-adv-x="529" 
d="M373 319q0 42 -11.5 53t-53.5 15q-6 17 -2 28q95 12 137 29q13 0 13 -7q-4 -64 -4 -114v-211q0 -135 -18.5 -201.5t-56.5 -97.5q-41 -34 -110 -34q-18 0 -36.5 11.5t-18.5 31.5q0 13 11.5 25.5t20.5 12.5q5 0 10 -1.5t8.5 -3t8 -5t6.5 -5t6 -6t5 -5.5q11 -11 31 -11
q34 0 44 66t10 189v241zM93 477q7 117 60 169t123 52q45 0 85 -27q30 -20 50 -47.5t20 -53.5q0 -15 -12 -26.5t-27 -11.5q-24 0 -38 18.5t-22 59.5q-12 55 -68 55q-15 0 -29.5 -7t-31 -24.5t-26.5 -55.5t-10 -92v-410q0 -22 9 -31.5t34 -11.5l25 -2q8 0 8 -8v-23l-2 -2
q-74 2 -113 2l-104 -2l-2 2v23q0 6 8 8l19 2q27 3 35 11.5t8 31.5v303q0 10 -2.5 13t-12.5 3h-44q-5 0 -5 5v9q0 20 23 20q40 0 42 48z" />
    <glyph glyph-name="longs_longs_j" unicode="&#x17f;&#x17f;j" horiz-adv-x="785" 
d="M629 319q0 42 -11.5 53t-53.5 15q-6 17 -2 28q95 12 137 29q13 0 13 -7q-4 -64 -4 -114v-211q0 -135 -18.5 -201.5t-56.5 -97.5q-41 -34 -110 -34q-18 0 -36.5 11.5t-18.5 31.5q0 13 11.5 25.5t20.5 12.5q5 0 10 -1.5t8.5 -3t8 -5t6.5 -5t6 -6t5 -5.5q11 -11 31 -11
q34 0 44 66t10 189v241zM532 698q45 0 85 -27q30 -20 50.5 -47.5t20.5 -53.5q0 -15 -12.5 -26.5t-27.5 -11.5q-24 0 -37.5 18.5t-22.5 59.5q-10 55 -68 55q-15 0 -29.5 -7t-31 -24.5t-26.5 -55.5t-10 -92v-414q0 -22 9.5 -32t33.5 -11l33 -2q8 0 8 -8v-19l-2 -2
q-82 2 -121 2l-103 -2l-2 2v19q0 6 8 8l19 2q25 2 34 11.5t9 31.5v307q0 10 -2.5 13t-13.5 3h-43q-6 0 -6 5v9q0 7 5.5 13.5t17.5 6.5q42 0 42 48t10 87q-4 -2 -6 -2q-34 0 -44 40q-13 51 -57 51q-15 0 -28 -9t-27 -31.5t-22 -69.5t-8 -114v-357q0 -22 9 -30.5t34 -12.5
l14 -2q8 -2 8 -8v-19l-2 -2q-63 2 -102 2l-104 -2l-2 2v19q0 6 8 8l19 2q26 3 34.5 12t8.5 31v307q0 10 -2.5 13t-12.5 3h-44q-5 0 -5 5v9q0 20 23 20q39 0 43 48q5 71 25.5 114.5t64.5 70.5q31 19 69 19q82 0 132 -58q29 40 63 57.5t84 17.5z" />
    <glyph glyph-name="longs_longs_l" unicode="&#x17f;&#x17f;l" horiz-adv-x="773" 
d="M353 562q-34 0 -44 40q-13 51 -57 51q-15 0 -28 -9t-27 -31.5t-22 -69.5t-8 -114v-353q0 -21 9.5 -30.5t33.5 -12.5l14 -2q8 -2 8 -8v-23l-2 -2q-63 2 -102 2l-104 -2l-2 2v23q0 8 8 8l19 2q23 2 33 11.5t10 31.5v303q0 10 -2.5 13t-12.5 3h-44q-5 0 -5 5v9q0 20 23 20
q39 0 43 48q5 71 25.5 114.5t64.5 70.5q31 19 69 19q48 0 79 -12.5t53 -45.5q1 -1 4 -7q27 40 66.5 61t79.5 21q49 0 83 -23q32 7 55 23q12 0 12 -10q-3 -35 -3 -100v-516q0 -22 9.5 -31.5t33.5 -11.5l23 -2q8 0 8 -8v-19l-1 -2q-73 2 -112 2l-94 -2l-1 2v19q0 7 7 8l9 1
q25 3 34 12.5t9 31.5v504v12q-17 5 -29 27q-19 49 -62 49q-15 0 -28.5 -6.5t-29.5 -24t-25.5 -55.5t-9.5 -92v-414q0 -22 8.5 -31t34.5 -12l18 -2q8 0 8 -8v-19l-2 -2q-67 4 -106 4l-104 -4l-2 2v19q0 8 8 8l19 2q26 3 34.5 12t8.5 31v307q0 10 -2.5 13t-12.5 3h-44
q-5 0 -5 5v9q0 20 23 20q41 0 41 49q2 49 15 85q-3 -1 -10 -1z" />
    <glyph glyph-name=".notdef" horiz-adv-x="500" 
d="M50 603v-508l170 254zM80 50h340l-170 254zM280 349l170 -254v508zM250 394l170 253h-340zM0 0v698h500v-698h-500z" />
    <glyph glyph-name=".null" 
 />
    <glyph glyph-name="nonmarkingreturn" horiz-adv-x="333" 
 />
    <glyph glyph-name="space" unicode=" " horiz-adv-x="250" 
 />
    <glyph glyph-name="exclam" unicode="!" horiz-adv-x="288" 
d="M91 43q0 22 15.5 37.5t37.5 15.5t37.5 -15.5t15.5 -37.5t-15.5 -37.5t-37.5 -15.5t-37.5 15.5t-15.5 37.5zM144 658q21 0 37 -18t16 -55q0 -29 -3.5 -56.5t-10 -66t-10.5 -70.5q-6 -47 -9 -89.5t-4 -65.5t-2 -27q-2 -20 -14 -20t-14 13q-1 6 -3 38t-5.5 74.5t-7.5 76.5
q-3 31 -13 92t-10 101q0 37 16 55t37 18z" />
    <glyph glyph-name="quotedbl" unicode="&#x22;" horiz-adv-x="336" 
d="M215 427q-26 159 -26 168q0 18 15 34t36 16q35 0 35 -33l-33 -181zM89 426q-26 159 -26 168q0 18 15 34t36 16q35 0 35 -33l-33 -181z" />
    <glyph glyph-name="numbersign" unicode="#" horiz-adv-x="465" 
d="M279 245l18 115h-113l-19 -115h114zM335 360l-19 -115h95l-7 -53h-94l-30 -178h-38l27 178h-112l-29 -178h-37l28 178h-93l8 53h94l18 115h-93l8 53h93l29 179h38l-30 -179h114l28 179h38l-29 -179h96l-8 -53h-95z" />
    <glyph glyph-name="dollar" unicode="$" horiz-adv-x="465" 
d="M207 367l12 211q-41 -1 -71 -32t-30 -70q0 -65 89 -109zM238 268l-13 -244q55 1 84.5 30.5t29.5 84.5q0 53 -27 81t-74 48zM371 585q13 -65 17 -120q-7 -6 -31 -6q-15 47 -37 76.5t-65 39.5l-12 -224q44 -17 46 -18q128 -55 128 -162q0 -44 -23.5 -84.5t-63.5 -65.5
q-45 -28 -107 -30l-4 -84q-10 -5 -37 -5l5 90q-30 2 -71 11t-68 9q-15 61 -19 141q15 8 30 3q26 -115 129 -130l14 255q-3 2 -16 7q-135 58 -135 163q0 70 49.5 113.5t119.5 45.5l5 79q11 5 37 5l-5 -85q35 -2 65 -12t49 -12z" />
    <glyph glyph-name="percent" unicode="%" horiz-adv-x="637" 
d="M433 83q0 -64 44 -64q38 0 63 48.5t25 96.5q0 34 -13.5 47.5t-28.5 13.5q-35 0 -62.5 -47.5t-27.5 -94.5zM378 98q0 62 39.5 110t94.5 48q36 0 61 -20.5t25 -70.5q0 -59 -35 -118t-92 -59q-43 0 -68 33.5t-25 76.5zM364 521q40 0 84.5 13t65.5 41l32 -16l-410 -571
l-34 15l359 500q-48 -19 -107 -19q-44 0 -80 21q3 -11 3 -25q0 -58 -35.5 -117.5t-92.5 -59.5q-43 0 -67.5 33.5t-24.5 75.5q0 66 39.5 112.5t93.5 46.5q20 0 39.5 -7.5t27.5 -17.5q54 -25 107 -25zM111 398q0 -35 13.5 -49.5t30.5 -14.5q38 0 63.5 48t25.5 97q0 61 -43 61
q-35 0 -62.5 -47.5t-27.5 -94.5z" />
    <glyph glyph-name="ampersand" unicode="&#x26;" horiz-adv-x="705" 
d="M250 338q-73 -40 -99 -82t-26 -100q0 -69 32.5 -101t84.5 -32q50 0 82.5 23.5t73.5 79.5q-41 54 -90 124.5t-58 87.5zM421 94q-76 -104 -186 -104q-87 0 -139.5 40t-52.5 126q0 60 43.5 112.5t141.5 107.5q-51 88 -51 141q0 49 42 89.5t112 40.5q53 0 90.5 -30.5
t37.5 -77.5q0 -40 -42 -85t-107 -83l4 -8q31 -53 122 -176q41 61 77 128q19 35 20 51t-10 20.5t-41 6.5q-4 5 -4 17t4 16q40 -2 95 -2q44 0 84 2q5 -4 5 -16t-5 -17q-46 -3 -63 -16.5t-51 -74.5q-52 -92 -89 -145l36 -50q22 -30 43 -46.5t34 -16.5q48 0 76 54q11 0 21 -10
q-16 -49 -45 -73.5t-58 -24.5q-20 0 -34 2.5t-36.5 18.5t-44.5 46zM289 409q47 31 74 66.5t27 63.5q0 34 -17 54.5t-47 20.5q-24 0 -49.5 -25t-25.5 -70q0 -38 38 -110z" />
    <glyph glyph-name="quotesingle" unicode="'" horiz-adv-x="190" 
d="M79 426q-26 159 -26 168q0 18 15 34t36 16q35 0 35 -33l-33 -181z" />
    <glyph glyph-name="parenleft" unicode="(" horiz-adv-x="298" 
d="M44 252q0 134 59 254t153 201q16 -1 21 -18q-150 -169 -150 -437q0 -266 150 -439q-5 -14 -21 -17q-59 51 -101.5 113t-63 111.5t-32.5 104t-13.5 79t-1.5 48.5z" />
    <glyph glyph-name="parenright" unicode=")" horiz-adv-x="298" 
d="M254 252q0 -134 -59 -254t-153 -201q-16 1 -21 18q150 169 150 437q0 266 -150 439q5 14 21 17q59 -51 101.5 -113t63 -111.5t32.5 -104t13.5 -79t1.5 -48.5z" />
    <glyph glyph-name="asterisk" unicode="*" horiz-adv-x="369" 
d="M168 547q-17 4 -42 4q-81 0 -81 37q0 12 8 21t25 9q19 0 48.5 -22t47.5 -29q-2 20 -12.5 49.5t-10.5 42.5q0 16 8.5 27.5t21.5 11.5q33 0 33 -35q0 -14 -9 -48.5t-10 -48.5q19 8 48 30t47 22t26 -10t8 -20q0 -37 -69 -37q-31 0 -55 -4q12 -13 35 -28.5t35.5 -28
t12.5 -30.5q0 -13 -9 -21t-20 -8q-17 0 -28.5 16t-23 45.5t-19.5 42.5q-7 -13 -19 -44t-23 -45.5t-28 -14.5q-13 0 -21 8.5t-8 19.5q0 19 13 32t36 27.5t35 28.5z" />
    <glyph glyph-name="plus" unicode="+" horiz-adv-x="550" 
d="M250 435q0 9 12.5 18t20.5 9q17 0 17 -14v-172h176q14 0 14 -17q0 -8 -9 -20.5t-18 -12.5h-163v-160q0 -9 -11.5 -17t-22.5 -8q-16 0 -16 15v170h-175q-15 0 -15 16q0 11 8 22.5t17 11.5h165v159z" />
    <glyph glyph-name="comma" unicode="," horiz-adv-x="220" 
d="M104 95q30 0 48 -27t18 -72q0 -50 -35 -85t-83 -44q-9 9 -9 24q36 9 62 35.5t26 44.5q0 27 -36 31q-44 7 -44 44q0 21 15 35t38 14z" />
    <glyph glyph-name="hyphen" unicode="-" horiz-adv-x="338" 
d="M271 223h-216q-15 0 -15 19q0 14 8 27.5t17 13.5h219q14 0 14 -20q0 -10 -9 -25t-18 -15z" />
    <glyph glyph-name="period" unicode="." horiz-adv-x="220" 
d="M57 43q0 22 15.5 37.5t37.5 15.5t37.5 -15.5t15.5 -37.5t-15.5 -37.5t-37.5 -15.5t-37.5 15.5t-15.5 37.5z" />
    <glyph glyph-name="slash" unicode="/" horiz-adv-x="323" 
d="M293 646l-237 -705h-41l237 705h41z" />
    <glyph glyph-name="zero" unicode="0" horiz-adv-x="465" 
d="M232 575q-19 0 -36 -12t-33.5 -41t-26.5 -90.5t-10 -148.5q0 -258 103 -258q9 0 19 3t23.5 11.5t26 28t20.5 48.5q17 62 17 206q0 187 -58 236q-19 17 -45 17zM228 -10q-59 0 -101 42q-41 40 -64.5 110.5t-23.5 151.5q0 142 57.5 229t135.5 87q74 0 122 -65
q68 -90 68 -242q0 -83 -19 -147t-49.5 -98.5t-62.5 -51t-63 -16.5z" />
    <glyph glyph-name="one" unicode="1" horiz-adv-x="465" 
d="M288 122q0 -60 15.5 -74.5t71.5 -16.5q5 -5 5 -17t-5 -16q-100 2 -122 2q-41 0 -139 -2q-4 4 -4 16t4 17q58 2 77.5 17.5t19.5 73.5v326q0 58 -20 58q-26 0 -87 -25q-11 8 -15 27q139 65 196 100q6 0 6 -5q-3 -19 -3 -134v-347z" />
    <glyph glyph-name="two" unicode="2" horiz-adv-x="465" 
d="M61 468q0 50 51 96t129 46q68 0 118.5 -38.5t50.5 -113.5q0 -36 -15 -68t-32.5 -52.5t-52.5 -54.5l-101 -97q-74 -74 -74 -121h178q27 0 42 21t28 75q19 4 29 -5q-2 -70 -24 -158q-46 2 -78 2h-175l-83 -2q0 48 22.5 92.5t91.5 114.5l74 73q82 83 82 176q0 65 -26.5 93
t-60.5 28q-50 0 -74.5 -19t-24.5 -42q0 -5 4 -14t4 -10q4 -14 4 -21q0 -15 -16.5 -27.5t-30.5 -12.5q-16 0 -28 11.5t-12 27.5z" />
    <glyph glyph-name="three" unicode="3" horiz-adv-x="465" 
d="M215 575q-18 0 -37 -5t-38.5 -23.5t-19.5 -47.5q0 -52 -39 -52q-16 0 -25 11t-9 23q0 15 9.5 34.5t29.5 42t59.5 37.5t90.5 15q70 0 109 -39q31 -32 31 -79q0 -42 -23 -73.5t-82 -59.5l1 -2q56 -9 98.5 -47t42.5 -111q0 -95 -66 -152t-159 -57q-50 0 -97 19.5t-47 47.5
q0 12 13.5 23.5t28.5 11.5q24 0 43 -26q1 -1 4.5 -6.5t5 -7.5t5 -6.5t6.5 -6.5t8.5 -5.5t11.5 -5t14 -2.5t17 -1q16 0 34.5 7t40 22.5t35.5 49.5t14 81q0 129 -131 129q-31 0 -48 -2l-5 32q69 10 113 54t44 87q0 45 -24 67.5t-59 22.5z" />
    <glyph glyph-name="four" unicode="4" horiz-adv-x="465" 
d="M271 507q-78 -106 -191 -288h191v288zM430 219q15 0 15 -16q0 -9 -9.5 -20t-19.5 -11h-69v-92q0 -16 2.5 -25.5t13 -14t16.5 -5.5t28 -3q7 -1 10 -1q5 -5 5 -17t-5 -16q-64 2 -109 2q-54 0 -118 -2q-4 4 -4 16t4 17q54 4 67 14q14 11 14 35v92h-204q-31 0 -39 42
q162 252 271 385q9 11 16 11h32l2 -2q-2 -8 -2 -97v-292h83z" />
    <glyph glyph-name="five" unicode="5" horiz-adv-x="465" 
d="M319 189q0 78 -32 115t-84 37q-63 0 -127 -24l34 288q58 -5 108 -5q60 0 164 11l7 -4l-16 -68q-62 -6 -105 -6q-34 0 -117 9l-20 -167q41 16 98 16q81 0 130 -54t49 -130q0 -95 -59.5 -156.5t-152.5 -61.5q-46 0 -94 23t-48 52q0 15 11.5 26t26.5 11q27 0 51 -32
q1 -2 6 -8.5t7 -9.5t7 -8t9 -7.5t10 -6t12.5 -4.5t14.5 -1q46 0 78 47.5t32 117.5z" />
    <glyph glyph-name="six" unicode="6" horiz-adv-x="465" 
d="M135 307q-8 -39 -8 -78q0 -118 32.5 -161.5t87.5 -43.5q39 0 65 41t26 119q0 22 -5.5 44.5t-17.5 46.5t-37 39.5t-60 15.5q-48 0 -83 -23zM144 343q47 22 95 22q95 0 138.5 -45.5t43.5 -117.5q0 -77 -48 -145t-137 -68q-33 0 -63 10t-61 34.5t-49.5 75.5t-18.5 123
q0 134 93 242q83 97 219 137q12 -8 12 -26q-171 -64 -224 -242z" />
    <glyph glyph-name="seven" unicode="7" horiz-adv-x="465" 
d="M170 535q-19 0 -32.5 -4.5t-29 -24.5t-25.5 -58q-16 -1 -32 3q19 125 20 160q0 3 4 3q4 -1 17 -7.5t33 -6.5h206q40 0 77 11l16 -12q-108 -264 -224 -609l-68 -3l-8 7q74 165 225 541h-179z" />
    <glyph glyph-name="eight" unicode="8" horiz-adv-x="465" 
d="M234 575q-43 0 -67.5 -24t-24.5 -60q0 -28 13.5 -52.5t56.5 -52.5l31 -19q80 59 80 119q0 38 -21.5 63.5t-67.5 25.5zM393 485q0 -43 -38.5 -79.5t-84.5 -59.5l71 -43q78 -47 78 -141q0 -64 -52 -118t-143 -54q-81 0 -129.5 40.5t-48.5 115.5q0 69 58 120q35 31 80 55
l-25 16q-88 55 -88 135q0 59 46.5 98.5t121.5 39.5q72 0 113 -35t41 -90zM226 25q46 0 83 25.5t37 91.5q0 80 -87 133l-47 28q-56 -37 -77.5 -80.5t-21.5 -76.5q0 -61 35.5 -91t77.5 -30z" />
    <glyph glyph-name="nine" unicode="9" horiz-adv-x="465" 
d="M336 292q8 39 8 78q0 118 -32.5 161.5t-87.5 43.5q-39 0 -65 -41t-26 -119q0 -22 5.5 -44.5t17.5 -46.5t37 -39.5t60 -15.5q49 0 83 23zM327 256q-47 -22 -95 -22q-95 0 -138.5 45.5t-43.5 117.5q0 77 48 145t137 68q33 0 63 -10t61 -34.5t49.5 -75.5t18.5 -123
q0 -134 -93 -242q-83 -97 -219 -137q-12 7 -12 26q171 64 224 242z" />
    <glyph glyph-name="colon" unicode=":" horiz-adv-x="236" 
d="M70 355q0 22 15.5 37.5t37.5 15.5t37.5 -15.5t15.5 -37.5t-15.5 -37.5t-37.5 -15.5t-37.5 15.5t-15.5 37.5zM70 43q0 22 15.5 37.5t37.5 15.5t37.5 -15.5t15.5 -37.5t-15.5 -37.5t-37.5 -15.5t-37.5 15.5t-15.5 37.5z" />
    <glyph glyph-name="semicolon" unicode=";" horiz-adv-x="236" 
d="M123 95q30 0 48 -27t18 -72q0 -50 -35 -85t-83 -44q-9 9 -9 24q36 9 62 35.5t26 44.5q0 27 -36 31q-44 7 -44 44q0 21 15 35t38 14zM70 355q0 22 15.5 37.5t37.5 15.5t37.5 -15.5t15.5 -37.5t-15.5 -37.5t-37.5 -15.5t-37.5 15.5t-15.5 37.5z" />
    <glyph glyph-name="less" unicode="&#x3c;" horiz-adv-x="550" 
d="M138 239l317 -116q10 -11 10 -28t-10 -22l-390 142q-13 23 0 48l390 141q10 -5 10 -22t-10 -28z" />
    <glyph glyph-name="equal" unicode="=" horiz-adv-x="550" 
d="M464 309h-389q-15 0 -15 16q0 11 8 22.5t17 11.5h392q14 0 14 -17q0 -8 -9 -20.5t-18 -12.5zM464 143h-389q-15 0 -15 16q0 11 8 22.5t17 11.5h392q14 0 14 -17q0 -8 -9 -20.5t-18 -12.5z" />
    <glyph glyph-name="greater" unicode="&#x3e;" horiz-adv-x="550" 
d="M412 236l-317 116q-10 11 -10 28t10 22l390 -142q13 -22 0 -48l-390 -141q-10 5 -10 22t10 28z" />
    <glyph glyph-name="question" unicode="?" horiz-adv-x="435" 
d="M144 43q0 22 15.5 37.5t37.5 15.5t37.5 -15.5t15.5 -37.5t-15.5 -37.5t-37.5 -15.5t-37.5 15.5t-15.5 37.5zM114 572q0 -18 6 -26t6 -24t-12 -25.5t-27 -9.5q-16 0 -28.5 10t-12.5 33q0 49 51 90q45 39 124 39q76 0 122 -41.5t46 -109.5q0 -28 -9 -52t-29 -44.5
t-33 -31.5t-38 -29q-42 -31 -52 -50q-14 -27 -14 -73v-44q0 -10 -17 -10q-16 0 -16 10v46q0 97 70 161q30 28 42.5 53t12.5 60q0 50 -26.5 86t-68.5 36t-69.5 -15.5t-27.5 -38.5z" />
    <glyph glyph-name="at" unicode="@" horiz-adv-x="895" 
d="M569 316q0 28 -18.5 45.5t-46.5 17.5q-17 0 -43.5 -9.5t-46.5 -30.5q-68 -68 -68 -177q0 -92 78 -92q26 0 59 37.5t56 92.5q30 72 30 116zM583 74q0 -12 11 -12q82 0 123.5 47.5t41.5 165.5q0 74 -29 134t-74.5 96t-96.5 55.5t-100 19.5q-59 0 -114.5 -20.5t-102 -60
t-75 -106.5t-28.5 -152q0 -48 9.5 -96t34 -97.5t61 -87t96 -61.5t133.5 -24q118 0 201 66l13 -18q-53 -40 -104 -60.5t-129 -20.5q-176 0 -285.5 109t-109.5 272q0 161 120.5 274.5t289.5 113.5q160 0 265 -94t105 -235q0 -46 -15 -88.5t-46.5 -81t-90 -62t-136.5 -23.5
q-36 0 -36 41q0 16 15 63l-2 1q-31 -52 -67.5 -77.5t-65.5 -25.5q-35 0 -61 13.5t-38 34t-17.5 39.5t-5.5 37q0 103 74.5 180t158.5 77q25 0 47.5 -12t29.5 -31l5 24l53 13l15 -5l-60 -258q-13 -58 -13 -67z" />
    <glyph glyph-name="A" unicode="A" horiz-adv-x="695" 
d="M263 283h177l-94 272h-6l-102 -259q-3 -7 2.5 -10t22.5 -3zM155 79q-1 -10 -3 -17.5t5.5 -12.5l12 -8t16.5 -5t18.5 -3t19.5 -2q4 -5 4 -17t-4 -16q-74 2 -128 2q-37 0 -89 -2q-5 4 -5 16t5 17q39 3 60.5 15.5t39.5 55.5l227 536q22 0 55 20l206 -572q8 -23 23.5 -35
t28.5 -15t38 -5q5 -5 5 -17t-5 -16q-70 2 -114 2q-57 0 -131 -2q-4 4 -4 16t4 17q14 1 23 2t20.5 2.5t16 4t11 7t5.5 10.5t-2 15l-58 169h-211q-18 0 -24.5 -3.5t-10.5 -13.5z" />
    <glyph glyph-name="B" unicode="B" horiz-adv-x="588" 
d="M191 550v-184h74q142 0 142 115q0 69 -39 100.5t-90 31.5q-44 0 -61.5 -5.5t-21.5 -16t-4 -41.5zM191 332v-214q0 -48 16.5 -67.5t66.5 -19.5q105 0 142.5 35.5t37.5 98.5q0 73 -48.5 120t-145.5 47h-69zM148 645q18 0 63 1t62 1q215 0 215 -154q0 -39 -27.5 -75
t-67.5 -56v-2q70 -20 112 -64t42 -112q0 -35 -12 -66t-39 -59t-78.5 -44.5t-122.5 -16.5q-48 0 -91 1t-55 1q-52 0 -130 -2q-5 4 -5 16t5 17q56 2 71.5 16.5t15.5 74.5v401q0 60 -15.5 74.5t-71.5 16.5q-5 4 -5 16t5 17q78 -2 129 -2z" />
    <glyph glyph-name="C" unicode="C" horiz-adv-x="646" 
d="M357 -10q-154 0 -237 91t-83 229q0 78 28 147.5t78 115.5q93 85 215 85q72 0 140.5 -22t78.5 -23q15 -83 22 -155q-18 -10 -33 -5q-51 168 -219 168q-87 0 -160 -89q-59 -74 -59 -203q0 -115 65.5 -206.5t162.5 -91.5q70 0 124.5 25.5t107.5 83.5q15 0 23 -15
q-103 -135 -254 -135z" />
    <glyph glyph-name="D" unicode="D" horiz-adv-x="701" 
d="M191 84q0 -27 20.5 -39.5t88.5 -12.5q57 0 101 11.5t82 38.5t58.5 78t20.5 124q0 61 -15 117t-47 105t-90 78t-135 29q-84 0 -84 -49v-480zM148 645q16 0 71 1t94 1q144 0 244.5 -99.5t100.5 -239.5q0 -88 -30.5 -151.5t-81 -96.5t-104 -47.5t-111.5 -14.5q-60 0 -116 1
t-66 1q-52 0 -130 -2q-5 4 -5 16t5 17q56 2 71.5 16.5t15.5 74.5v401q0 60 -15.5 74.5t-71.5 16.5q-5 4 -5 16t5 17q80 -2 129 -2z" />
    <glyph glyph-name="E" unicode="E" horiz-adv-x="557" 
d="M281 361q61 0 75 12t16 56q4 5 16 5t17 -5q-2 -48 -2 -86q0 -36 2 -88q-5 -5 -17 -5t-16 5q-2 27 -6 38.5t-24 20.5t-61 9h-91v-221q0 -35 12.5 -49t43.5 -14h116q95 0 131 131q19 4 35 -5q-12 -79 -37 -167q-80 2 -128 2h-215q-56 0 -130 -2q-4 4 -4 16t4 17
q56 2 71.5 16.5t15.5 74.5v401q0 60 -15.5 74.5t-71.5 16.5q-4 4 -4 16t4 17q80 -2 129 -2h255q26 0 49 4q4 0 4 -3q8 -34 22 -145q-16 -8 -33 -5q-19 60 -40 84.5t-73 24.5h-75q-39 0 -52.5 -14.5t-13.5 -49.5v-180h91z" />
    <glyph glyph-name="F" unicode="F" horiz-adv-x="485" 
d="M283 323h-93v-201q0 -60 15.5 -74.5t71.5 -16.5q5 -5 5 -17t-5 -16q-70 2 -129 2q-60 0 -130 -2q-4 4 -4 16t4 17q56 2 71.5 16.5t15.5 74.5v401q0 60 -15.5 74.5t-71.5 16.5q-4 4 -4 16t4 17q80 -2 129 -2h255q24 0 47 4q4 0 4 -3q8 -34 22 -145q-13 -5 -31 -5
q-12 39 -26 60t-45 35t-82 14h-45q-34 0 -45 -12t-11 -52v-180h93q61 0 75 12t16 56q4 5 16 5t17 -5q-2 -52 -2 -86q0 -38 2 -88q-5 -5 -17 -5t-16 5q-2 27 -6 38.5t-24 20.5t-61 9z" />
    <glyph glyph-name="G" unicode="G" horiz-adv-x="685" 
d="M377 658q49 0 86.5 -9t69 -21t52.5 -15q18 -80 23 -154q-16 -7 -33 -6q-11 38 -24 64t-36.5 52t-61.5 39.5t-90 13.5q-91 0 -160.5 -84t-69.5 -211q0 -69 26.5 -136.5t83.5 -116t132 -48.5q115 0 155 38v153q0 28 -17.5 36.5t-64.5 11.5q-4 5 -4 18t4 18q88 -2 124 -2
q41 0 89 2q5 -5 5 -18t-5 -18q-23 -2 -34.5 -12.5t-11.5 -35.5v-116q0 -15 16 -28q-97 -83 -279 -83q-141 0 -228 90t-87 227q0 105 50.5 187t127.5 123t162 41z" />
    <glyph glyph-name="H" unicode="H" horiz-adv-x="730" 
d="M618 122q0 -60 15.5 -74.5t71.5 -16.5q5 -5 5 -17t-5 -16q-88 2 -129 2q-40 0 -130 -2q-4 4 -4 16t4 17q56 2 71.5 16.5t15.5 74.5v199h-342v-199q0 -60 15.5 -74.5t71.5 -16.5q4 -5 4 -17t-4 -16q-88 2 -129 2q-42 0 -130 -2q-5 4 -5 16t5 17q56 2 71.5 16.5t15.5 74.5
v401q0 60 -15.5 74.5t-71.5 16.5q-5 4 -5 16t5 17q76 -2 129 -2q54 0 130 2q4 -5 4 -17t-4 -16q-56 -2 -71.5 -16.5t-15.5 -74.5v-160h342v160q0 60 -15.5 74.5t-71.5 16.5q-4 4 -4 16t4 17q88 -2 129 -2q48 0 130 2q5 -5 5 -17t-5 -16q-56 -2 -71.5 -16.5t-15.5 -74.5v-401
z" />
    <glyph glyph-name="I" unicode="I" horiz-adv-x="297" 
d="M191 122q0 -60 15.5 -74.5t71.5 -16.5q4 -5 4 -17t-4 -16q-90 2 -129 2q-40 0 -130 -2q-5 4 -5 16t5 17q56 2 71.5 16.5t15.5 74.5v401q0 60 -15.5 74.5t-71.5 16.5q-5 4 -5 16t5 17q94 -2 129 -2q42 0 130 2q4 -5 4 -17t-4 -16q-56 -2 -71.5 -16.5t-15.5 -74.5v-401z
" />
    <glyph glyph-name="J" unicode="J" horiz-adv-x="322" 
d="M226 523v-420q0 -51 -9 -90.5t-26.5 -66.5t-31 -42t-35.5 -33q-50 -43 -117 -43q-22 0 -48.5 15t-26.5 39q0 15 16 29t28 14q28 0 40 -25q13 -27 40 -27q20 0 37 13t32.5 62.5t15.5 132.5v442q0 60 -17 74.5t-80 16.5q-4 4 -4 16t4 17q100 -2 139 -2q44 0 120 2
q5 -5 5 -17t-5 -16q-48 -2 -62.5 -17t-14.5 -74z" />
    <glyph glyph-name="K" unicode="K" horiz-adv-x="637" 
d="M191 122q0 -60 15.5 -74.5t71.5 -16.5q4 -5 4 -17t-4 -16q-90 2 -129 2q-40 0 -130 -2q-5 4 -5 16t5 17q56 2 71.5 16.5t15.5 74.5v401q0 60 -15.5 74.5t-71.5 16.5q-5 4 -5 16t5 17q90 -2 129 -2q38 0 130 2q4 -5 4 -17t-4 -16q-56 -2 -71.5 -16.5t-15.5 -74.5v-176
q47 4 79 39l165 176q15 16 19 26.5t-4 15.5t-17 7t-26 3q-5 4 -5 16t5 17q74 -2 113 -2q33 0 95 2q5 -5 5 -17t-5 -16q-26 -2 -41.5 -5t-39 -15.5t-45.5 -35.5l-147 -151q-35 -36 -35 -49q0 -10 13 -25l219 -260q14 -17 31 -26.5t27.5 -11.5t29.5 -4q5 -5 5 -17t-5 -16
q-66 2 -101 2q-14 0 -54 -2q-5 0 -5 6q-3 27 -36 69l-157 198q-28 36 -83 38v-187z" />
    <glyph glyph-name="L" unicode="L" horiz-adv-x="528" 
d="M149 0q-52 0 -130 -2q-5 4 -5 16t5 17q56 2 71.5 16.5t15.5 74.5v401q0 60 -15.5 74.5t-71.5 16.5q-5 4 -5 16t5 17q92 -2 129 -2q40 0 130 2q4 -5 4 -17t-4 -16q-56 -2 -71.5 -16.5t-15.5 -74.5v-414q0 -38 13.5 -54t43.5 -16h63q73 0 109.5 34.5t53.5 96.5q17 3 33 -5
q-10 -87 -26 -167q-92 2 -119 2h-213z" />
    <glyph glyph-name="M" unicode="M" horiz-adv-x="839" 
d="M663 116l-26 418h-2l-225 -529q-8 -15 -14 -15q-9 0 -15 15l-207 519h-2l-38 -401q-4 -47 8 -68t58 -24q4 -5 4 -17t-4 -16q-60 2 -94 2q-26 0 -86 -2q-4 4 -4 16t4 17q41 4 55.5 23t19.5 67l40 412q5 55 -5 66.5t-63 14.5q-5 4 -5 16t5 17l145 -2l205 -508q5 -13 8 -13
t9 14l212 507l131 2q5 -5 5 -17t-5 -16q-49 -3 -60.5 -16.5t-8.5 -55.5l30 -421q5 -62 15.5 -75t61.5 -15q5 -5 5 -17t-5 -16q-66 2 -109 2q-33 0 -107 -2q-5 4 -5 16t5 17q50 2 59 13.5t5 71.5z" />
    <glyph glyph-name="N" unicode="N" horiz-adv-x="699" 
d="M556 512q0 35 -3 53.5t-15 29t-25 13.5t-44 6q-5 4 -5 16t5 17q88 -2 111 -2q30 0 112 2q4 -5 4 -17t-4 -16q-56 -6 -71.5 -22t-15.5 -80v-491q0 -31 -23 -31q-22 0 -40 24l-349 441q-26 33 -34 33t-8 -49v-306q0 -35 3 -53.5t15 -29t25 -13.5t44 -6q4 -5 4 -17t-4 -16
q-84 2 -111 2q-26 0 -112 -2q-5 4 -5 16t5 17q56 6 71.5 22t15.5 80v417q-5 22 -27 42t-52 22q-5 4 -5 16t5 17l135 -2l343 -435q43 -55 48 -55q7 0 7 30v327z" />
    <glyph glyph-name="O" unicode="O" horiz-adv-x="702" 
d="M331 622q-82 0 -140 -74t-58 -221q0 -138 70 -219.5t167 -81.5q88 0 144 76.5t56 207.5q0 146 -68 229t-171 83zM666 329q0 -125 -62 -213q-89 -126 -254 -126q-132 0 -222.5 88t-90.5 232q0 150 82.5 249t224.5 99q139 0 230.5 -89t91.5 -240z" />
    <glyph glyph-name="P" unicode="P" horiz-adv-x="541" 
d="M189 554v-233q18 -5 76 -5q74 0 111.5 36.5t37.5 115.5q0 87 -38 118.5t-100 31.5q-87 0 -87 -64zM104 523q0 60 -15.5 74.5t-71.5 16.5q-5 4 -5 16t5 17q80 -2 129 -2q20 0 69 3.5t68 3.5q65 0 112 -17t70 -44.5t32.5 -53t9.5 -51.5q0 -35 -12 -68.5t-37.5 -65t-74 -51
t-113.5 -19.5q-50 0 -81 10v-170q0 -59 19 -73.5t83 -17.5q5 -5 5 -17t-5 -16q-100 2 -144 2q-40 0 -130 -2q-5 4 -5 16t5 17q56 2 71.5 16.5t15.5 74.5v401z" />
    <glyph glyph-name="Q" unicode="Q" horiz-adv-x="702" 
d="M331 622q-82 0 -140 -74t-58 -221q0 -138 70 -219.5t167 -81.5q88 0 144 76.5t56 207.5q0 146 -68 229t-171 83zM666 329q0 -125 -62 -213q-70 -100 -195 -121q-65 -18 -131 -66q7 1 20 1q62 0 154 -44q82 -38 125 -38q57 0 87 37l17 -12q-57 -82 -144 -82q-74 0 -168 54
q-73 41 -118 41q-17 0 -35 -13q-19 -19 -38 -46l-39 20q8 13 18 23q60 74 152 122q-117 14 -194.5 100t-77.5 218q0 150 82.5 249t224.5 99q139 0 230.5 -89t91.5 -240z" />
    <glyph glyph-name="R" unicode="R" horiz-adv-x="587" 
d="M272 618q-83 0 -83 -64v-229h48q81 0 124.5 33t43.5 120q0 140 -133 140zM189 122q0 -60 15.5 -74.5t71.5 -16.5q4 -5 4 -17t-4 -16q-88 2 -129 2q-40 0 -130 -2q-5 4 -5 16t5 17q56 2 71.5 16.5t15.5 74.5v401q0 60 -15.5 74.5t-71.5 16.5q-5 4 -5 16t5 17q94 -2 129 -2
q17 0 58.5 3.5t66.5 3.5q59 0 100 -9t73 -39q53 -50 53 -125q0 -69 -43.5 -112.5t-89.5 -58.5l126 -210q23 -38 44 -57.5t52 -19.5q6 -12 1 -24q-14 -7 -42 -7q-77 0 -132 89l-107 174q-12 20 -35.5 29t-81.5 9v-169z" />
    <glyph glyph-name="S" unicode="S" horiz-adv-x="485" 
d="M395 631q13 -69 18 -129q-13 -10 -33 -6q-18 60 -50 94t-98 34q-44 0 -77 -34.5t-33 -77.5q0 -24 11.5 -45.5t26.5 -35t40.5 -27.5t41 -20.5t40.5 -15.5q74 -28 118 -70t44 -114q0 -48 -25 -91t-69 -70q-52 -33 -123 -33q-48 0 -100 11.5t-80 11.5q-15 63 -20 152
q16 8 33 3q32 -142 175 -142q60 0 92.5 31.5t32.5 91.5q0 35 -11 60.5t-35 43t-40.5 25.5t-47.5 20q-81 31 -128 73.5t-47 113.5q0 77 55.5 125t134.5 48q57 0 98.5 -12.5t55.5 -14.5z" />
    <glyph glyph-name="T" unicode="T" horiz-adv-x="597" 
d="M350 122q0 -60 17 -74.5t80 -16.5q5 -5 5 -17t-5 -16q-100 2 -139 2q-42 0 -140 -2q-4 4 -4 16t4 17q63 2 80 16.5t17 74.5v385q0 49 -10.5 74t-36.5 25h-49q-52 0 -85 -24t-47 -82q-21 0 -34 5q20 86 25 145q0 3 4 3q101 -8 233 -8h86q133 0 224 8q3 0 3 -3
q1 -66 13 -142q-11 -5 -34 -5q-12 56 -46 79.5t-93 23.5h-22q-26 0 -36 -25.5t-10 -76.5v-382z" />
    <glyph glyph-name="U" unicode="U" horiz-adv-x="661" 
d="M172 523v-257q0 -42 2 -69t14 -62t35 -57q49 -47 119 -47q49 0 84 15.5t54 38t30 58t13.5 65t2.5 69.5v246q0 31 -3 47.5t-15.5 26t-26.5 12t-47 5.5q-4 4 -4 16t4 17q92 -2 116 -2q26 0 102 2q4 -5 4 -17t-4 -16q-49 -6 -63 -20t-14 -71v-228q0 -71 -11 -123.5
t-38.5 -95t-78.5 -64.5t-126 -22q-34 0 -64 5.5t-62.5 21.5t-55 42t-37.5 70.5t-15 103.5v290q0 59 -14.5 74t-62.5 17q-4 4 -4 16t4 17q78 -2 119 -2t135 2q4 -5 4 -17t-4 -16q-60 -2 -76 -16.5t-16 -74.5z" />
    <glyph glyph-name="V" unicode="V" horiz-adv-x="652" 
d="M448 614q-4 4 -4 16t4 17q82 -2 109 -2q28 0 88 2q5 -5 5 -17t-5 -16q-30 -3 -50 -18t-28 -30t-20 -45l-207 -510q-10 -23 -24 -23t-23 23l-197 512q-22 55 -36.5 71t-53.5 20q-5 5 -5 16.5t4 16.5q66 -2 104 -2q41 0 121 2q4 -5 4 -17t-4 -16q-50 -5 -59.5 -20t8.5 -60
l159 -407h5l158 401q19 40 9 61t-62 25z" />
    <glyph glyph-name="W" unicode="W" horiz-adv-x="951" 
d="M810 565q3 9 3 16t-2 12t-8 8.5t-11 5.5t-14.5 3.5t-15.5 2l-18 1.5q-4 4 -4 16t4 17q80 -2 110 -2q29 0 87 2q5 -5 5 -17t-5 -16q-38 -2 -56.5 -17t-29.5 -44l-201 -539q-9 -26 -23 -26q-13 0 -23 27l-115 332q-10 28 -14 28q-6 0 -17 -25l-149 -335q-11 -27 -26 -27
q-14 0 -22 27l-188 541q-14 39 -25 47.5t-46 10.5q-4 4 -4 16t4 17q58 -2 93 -2q50 0 116 2q5 -5 5 -17t-5 -16q-31 -2 -44.5 -10t-5.5 -32l146 -442l5 -1l129 293q9 22 9 35q0 10 -7 31l-23 66q-20 56 -84 60q-4 4 -4 16t4 17q64 -2 100 -2q43 0 125 2q5 -5 5 -17t-5 -16
q-11 -1 -17 -2t-15 -3t-13 -6t-8 -10t-3.5 -16t4.5 -23l137 -422l4 -1z" />
    <glyph glyph-name="X" unicode="X" horiz-adv-x="660" 
d="M538 102q31 -43 50 -56t51 -15q5 -5 5 -16.5t-4 -16.5q-60 2 -102 2q-40 0 -114 -2q-4 4 -4 16t4 17q40 2 43.5 13t-19.5 41l-124 176q-8 11 -14 11q-4 0 -15 -14l-132 -185q-9 -13 -10.5 -20.5t5 -12t16.5 -6.5t28 -3q4 -5 4 -17t-4 -16q-80 2 -105 2q-30 0 -90 -2
q-5 4 -5 16t5 17q36 3 61.5 16t49.5 46l148 198q10 13 10 23q0 9 -14 30l-142 203q-29 42 -48 53.5t-54 13.5q-5 5 -5 16.5t4 16.5q60 -2 102 -2q40 0 114 2q5 -5 5 -17t-5 -16q-40 -2 -43.5 -13t20.5 -41l110 -164q8 -11 12 -11q8 0 16 12l123 175q15 25 6 32.5t-45 9.5
q-4 4 -4 16t4 17q80 -2 105 -2q30 0 90 2q5 -5 5 -17t-5 -16q-36 -3 -61 -16.5t-50 -45.5l-137 -177q-10 -13 -10 -30q0 -12 16 -33z" />
    <glyph glyph-name="Y" unicode="Y" horiz-adv-x="575" 
d="M337 122q0 -60 17 -74.5t80 -16.5q4 -5 4 -17t-4 -16q-100 2 -139 2q-42 0 -140 -2q-5 4 -5 16t5 17q63 2 80 16.5t17 74.5v127q0 27 -4 40t-17 37l-131 221q-25 41 -42.5 53t-51.5 14q-5 5 -5 16.5t4 16.5q60 -2 102 -2t114 2q5 -5 5 -17t-5 -16q-41 -2 -48 -13t12 -42
l116 -205q5 -8 8 -11t6.5 -1t7.5 10l111 209q14 30 5 40.5t-44 12.5q-5 4 -5 16t5 17q64 -2 91 -2t83 2q5 -5 5 -17t-5 -16q-36 -3 -55.5 -15.5t-39.5 -48.5l-120 -216q-17 -32 -17 -76v-136z" />
    <glyph glyph-name="Z" unicode="Z" horiz-adv-x="604" 
d="M551 -2q-100 2 -127 2h-364q-19 0 -19 15q0 12 8 23q80 119 199.5 285.5t189.5 255.5q8 11 8 18q0 9 -10 9l-211 -4q-55 -1 -86.5 -27t-47.5 -79q-13 0 -30 5q17 89 22 152q99 -8 181 -8h221q17 0 43 1t30 1q13 0 13 -11q0 -14 -24 -45q-156 -201 -375 -519
q-8 -14 -8 -20q0 -14 25 -14l193 4q39 1 66.5 10t46 29.5t28 37.5t24.5 51q13 0 31 -5q-20 -85 -27 -167z" />
    <glyph glyph-name="bracketleft" unicode="[" horiz-adv-x="356" 
d="M108 -193v896h212q4 -5 4 -15t-4 -15q-71 -5 -100 -15.5t-37 -29.5t-8 -67v-611q0 -37 3 -53.5t18.5 -31t42.5 -19.5t81 -9q4 -5 4 -15t-4 -15h-212z" />
    <glyph glyph-name="backslash" unicode="\" horiz-adv-x="287" 
d="M55 698l230 -746h-44l-230 746h44z" />
    <glyph glyph-name="bracketright" unicode="]" horiz-adv-x="356" 
d="M248 704v-896h-212q-4 4 -4 15t4 15q71 5 100 15.5t37 29.5t8 67v611q0 37 -3 53.5t-18.5 31t-42.5 19.5t-81 9q-4 4 -4 15t4 15h212z" />
    <glyph glyph-name="asciicircum" unicode="^" horiz-adv-x="518" 
d="M259 593l-102 -247h-45l127 304h42l126 -304h-45z" />
    <glyph glyph-name="underscore" unicode="_" horiz-adv-x="486" 
d="M476 -110q6 -6 6 -22t-6 -22h-466q-6 6 -6 22t6 22h466z" />
    <glyph glyph-name="grave" unicode="`" horiz-adv-x="392" 
d="M178 699l70 -126q6 -12 6 -24q0 -4 -4.5 -7.5t-10.5 -3.5q-8 0 -29 20l-114 109l2 11q31 23 65 23q7 0 15 -2z" />
    <glyph glyph-name="a" unicode="a" horiz-adv-x="457" 
d="M293 233l-79 -21q-95 -24 -95 -110q0 -27 18.5 -49t53.5 -22q34 0 88 44q14 11 14 26v132zM293 48h-2l-20 -16q-54 -42 -109 -42q-126 0 -126 108q0 50 45.5 88t119.5 57l86 21q6 2 6 12q0 130 -81 130q-33 0 -56.5 -10.5t-23.5 -31.5q0 -14 2 -20q3 -6 3 -18
q0 -11 -13.5 -22.5t-33.5 -11.5q-35 0 -35 36q0 42 51.5 76.5t113.5 34.5q151 0 151 -169v-147q0 -21 0.5 -33t3.5 -26t9.5 -20t16.5 -6q16 0 37 16q14 -7 17 -27q-39 -37 -95 -37q-34 0 -48 15t-19 43z" />
    <glyph glyph-name="b" unicode="b" horiz-adv-x="493" 
d="M174 363q-17 -14 -17 -42v-250q38 -47 72 -47q69 0 105 55.5t36 144.5q0 72 -32.5 121.5t-78.5 49.5q-49 0 -85 -32zM167 394q50 45 112 45q69 0 123 -55t54 -142q0 -112 -69 -182t-152 -70q-58 0 -88 25q-15 12 -27 -3l-24 -24q-14 0 -22 12q4 19 4 71v488q0 32 -1.5 48
t-12.5 23.5t-17 8t-33 2.5q-11 11 -6 30q89 7 140 27q13 0 13 -10q-4 -40 -4 -105v-184q0 -15 10 -5z" />
    <glyph glyph-name="c" unicode="c" horiz-adv-x="428" 
d="M398 91q-35 -58 -74 -79.5t-89 -21.5q-93 0 -145.5 59.5t-52.5 158.5q0 101 63 166t142 65q71 0 112 -26.5t41 -68.5q0 -21 -15.5 -32.5t-33.5 -11.5q-34 0 -38 36q-2 22 -6.5 34.5t-20.5 24t-44 11.5q-50 0 -82 -47.5t-32 -128.5q0 -86 39 -138.5t95 -52.5q69 0 120 66
q16 -2 21 -14z" />
    <glyph glyph-name="d" unicode="d" horiz-adv-x="506" 
d="M345 124v190q0 23 -3 32.5t-14 21.5q-31 36 -81 36q-60 0 -93 -50q-29 -41 -29 -133q0 -88 33 -136t77 -48q39 0 94 48q16 14 16 39zM334 50q-74 -60 -125 -60q-79 0 -124.5 59t-45.5 154q0 107 69 176q63 60 150 60q15 0 33 -4.5t31 -8.5t14 -4q9 0 9 9v128
q0 32 -1.5 48t-12.5 23.5t-17 8t-33 2.5q-11 11 -6 30q89 7 140 27q13 0 13 -10q-4 -40 -4 -105v-453q0 -39 13.5 -54t59.5 -19q5 -5 5 -14t-5 -13q-80 -9 -118 -40q-10 -3 -19 0q-8 35 -11 59q-1 5 -6 4.5t-9 -3.5z" />
    <glyph glyph-name="e" unicode="e" horiz-adv-x="447" 
d="M124 282l181 3q15 0 15 14q0 57 -24.5 81t-58.5 24q-13 0 -26 -3.5t-31.5 -14.5t-33.5 -38t-22 -66zM386 93q17 -1 21 -16q-67 -87 -170 -87q-99 0 -153 64q-47 54 -47 148q0 106 63.5 170.5t136.5 64.5q169 0 169 -174q0 -17 -19 -17l-266 2q0 -84 32 -137
q44 -72 109 -72q42 0 68.5 12t55.5 42z" />
    <glyph glyph-name="f" unicode="f" horiz-adv-x="310" 
d="M175 122q0 -62 12.5 -75t71.5 -16q5 -5 5 -17t-5 -16q-70 2 -123 2q-40 0 -110 -2q-4 4 -4 16t4 17q44 3 57 17.5t13 73.5v268h-69q-5 0 -5 6v13q0 20 23 20h51v40q0 109 53.5 169t123.5 60q60 0 90 -21q32 -24 32 -51q0 -15 -14 -28t-27 -13q-26 0 -40 32
q-10 26 -23.5 36.5t-36.5 10.5q-79 0 -79 -178v-57h108q8 0 8 -6v-20q0 -13 -23 -13h-93v-268z" />
    <glyph glyph-name="g" unicode="g" horiz-adv-x="500" 
d="M319 279q0 62 -25 95.5t-72 33.5q-80 0 -80 -106q0 -28 3 -48.5t12 -42t28.5 -33t49.5 -11.5q84 0 84 112zM132 -10q-31 -37 -31 -94q0 -45 42 -71t78 -26q47 0 91 12t74.5 38t30.5 60q0 19 -11 32t-40 30q-31 17 -121 17q-5 0 -30 -1.5t-43 -1.5q-22 0 -40 5zM444 387
q-19 0 -28 18q-8 12 -20 12q-9 0 -21.5 -8t-18.5 -16q43 -44 43 -104q0 -70 -49.5 -111.5t-119.5 -41.5q-55 0 -91 21q-18 -25 -18 -58q0 -29 19 -43t45 -14l30 2q40 5 67 5q106 0 146 -33q44 -36 44 -81q0 -52 -42.5 -92.5t-106 -60.5t-132.5 -20q-67 0 -113 27t-46 87
q0 72 82 121q-46 23 -46 77q0 27 12 55.5t32 45.5q-52 50 -52 112q0 67 51 109.5t120 42.5q62 0 104 -28q18 24 48 37.5t52 13.5q20 0 33 -10.5t13 -26.5q0 -15 -11.5 -26.5t-25.5 -11.5z" />
    <glyph glyph-name="h" unicode="h" horiz-adv-x="538" 
d="M167 286v-164q0 -60 10 -74t50 -17q5 -5 5 -17t-5 -16q-56 2 -99 2q-44 0 -110 -2q-4 4 -4 16t4 17q46 3 58 17t12 74v437q0 32 -1.5 48t-12.5 23.5t-17 8t-33 2.5q-11 11 -6 30q89 7 140 27q13 0 13 -10q-4 -40 -4 -105l-1 -225q0 -13 10 0q73 81 170 81q57 0 83 -34
q27 -36 27 -134v-149q0 -59 11.5 -73t55.5 -18q4 -4 4 -16t-4 -17q-66 2 -106 2q-46 0 -102 -2q-4 4 -4 16t4 17q41 4 51.5 18t10.5 73v152q0 53 -12 77q-19 36 -53 36q-67 0 -128 -59q-17 -19 -17 -42z" />
    <glyph glyph-name="i" unicode="i" horiz-adv-x="271" 
d="M181 122q0 -60 12 -74t60 -17q5 -5 5 -17t-5 -16q-66 2 -111 2q-46 0 -112 -2q-4 4 -4 16t4 17q48 4 60 17.5t12 73.5v195q0 42 -11.5 53t-53.5 15q-6 17 -2 28q95 12 137 29q13 0 13 -7q-4 -64 -4 -114v-199zM90 599q0 18 17 33t35 15q19 0 33.5 -16.5t14.5 -35.5
q0 -17 -16 -32.5t-36 -15.5q-18 0 -33 16.5t-15 35.5z" />
    <glyph glyph-name="j" unicode="j" horiz-adv-x="272" 
d="M113 317q0 42 -11.5 53t-53.5 15q-6 17 -2 28q95 12 137 29q13 0 13 -7q-4 -64 -4 -114v-211q0 -135 -18.5 -201.5t-56.5 -97.5q-41 -34 -110 -34q-18 0 -36.5 11.5t-18.5 31.5q0 13 11.5 25.5t20.5 12.5q5 0 10 -1.5t8.5 -3t8 -5t6.5 -5t6 -6t5 -5.5q11 -11 31 -11
q34 0 44 66t10 189v241zM99 599q0 18 17 33t35 15q19 0 33.5 -16.5t14.5 -35.5q0 -17 -16 -32.5t-36 -15.5q-18 0 -33 16.5t-15 35.5z" />
    <glyph glyph-name="k" unicode="k" horiz-adv-x="512" 
d="M86 122v437q0 32 -1.5 48t-12.5 23.5t-17 8t-33 2.5q-11 11 -6 30q89 7 140 27q13 0 13 -10q-4 -40 -4 -105v-349q32 5 68 31t80 82q35 47 -23 51q-4 4 -4 16t4 17q46 -2 98 -2q41 0 87 2q5 -5 5 -17t-5 -16q-70 -7 -105 -44l-88 -91q-4 -4 -4 -10q0 -5 7 -14l132 -166
q18 -23 36.5 -30.5t49.5 -11.5q5 -5 5 -17t-5 -16q-40 2 -82 2q-22 0 -62 -2q-4 0 -4 5q-1 15 -42 70l-73 98q-16 21 -32 33q-11 3 -43 5v-87q0 -59 9.5 -73.5t42.5 -17.5q5 -5 5 -17t-5 -16q-46 2 -91 2q-41 0 -107 -2q-5 4 -5 16t5 17q44 3 55.5 17t11.5 74z" />
    <glyph glyph-name="l" unicode="l" horiz-adv-x="264" 
d="M95 122v437q0 55 -10 67t-54 15q-11 11 -6 30q89 7 140 27q13 0 13 -10q-4 -40 -4 -105v-461q0 -60 12.5 -74.5t59.5 -16.5q4 -5 4 -17t-4 -16q-66 2 -111 2q-42 0 -112 -2q-5 4 -5 16t5 17q47 2 59.5 16.5t12.5 74.5z" />
    <glyph glyph-name="m" unicode="m" horiz-adv-x="790" 
d="M170 358q0 -12 12 0q72 81 152 81q38 0 65 -20.5t35 -52.5q2 -10 11 -1q70 74 165 74q61 0 82 -41t21 -118v-158q0 -60 10.5 -74t53.5 -17q4 -4 4 -16t-4 -17q-56 2 -103 2q-52 0 -102 -2q-4 5 -4 17t4 16q41 3 51.5 17.5t10.5 73.5v176q0 48 -15 68.5t-45 20.5
q-72 0 -132 -66q1 -12 1 -40v-159q0 -60 10 -74t49 -17q4 -4 4 -16.5t-4 -16.5q-50 2 -98 2q-52 0 -102 -2q-4 4 -4 16t4 17q42 3 52 17t10 74v174q0 91 -66 91q-47 0 -108 -59q-17 -19 -17 -42v-164q0 -59 11 -73t51 -18q5 -5 5 -17t-5 -16q-60 2 -101 2q-48 0 -108 -2
q-4 4 -4 16t4 17q44 3 56 17.5t12 73.5v195q0 42 -11.5 53t-53.5 15q-6 17 -2 28q74 10 123 29q9 0 12 -8q6 -12 8 -76z" />
    <glyph glyph-name="n" unicode="n" horiz-adv-x="542" 
d="M184 358q70 81 164 81q57 0 83 -34q27 -36 27 -134v-149q0 -59 11.5 -73t55.5 -18q4 -4 4 -16t-4 -17q-60 2 -106 2q-42 0 -102 -2q-4 4 -4 16t4 17q41 4 51.5 18t10.5 73v152q0 53 -12 77q-19 36 -53 36q-61 0 -122 -59q-17 -19 -17 -42v-164q0 -59 10.5 -73t50.5 -18
q4 -5 4 -17t-4 -16q-60 2 -100 2q-50 0 -110 -2q-4 4 -4 16t4 17q47 4 58.5 17.5t11.5 73.5v195q0 42 -11.5 53t-53.5 15q-6 17 -2 28q74 10 123 29q9 0 12 -8q6 -11 8 -76q0 -14 12 0z" />
    <glyph glyph-name="o" unicode="o" horiz-adv-x="504" 
d="M41 205q0 98 55 164q60 70 157 70q72 0 121.5 -35.5t69 -84.5t19.5 -105q0 -104 -65 -168q-58 -56 -147 -56q-100 0 -155 65t-55 150zM238 404q-111 0 -111 -176q0 -32 7.5 -65t22.5 -65t43 -52.5t65 -20.5q44 0 78 36t34 121q0 107 -37 164.5t-102 57.5z" />
    <glyph glyph-name="p" unicode="p" horiz-adv-x="519" 
d="M175 331q-16 -19 -16 -44v-182q0 -26 4 -36t20 -24q24 -21 71 -21q40 0 69 16.5t44 45t21.5 58.5t6.5 64q0 82 -34.5 133.5t-84.5 51.5q-21 0 -51 -18.5t-50 -43.5zM156 368q0 -15 11 -4q66 75 137 75q75 0 126 -61t51 -143q0 -117 -74 -189q-59 -56 -147 -56
q-45 0 -87 15q-6 3 -8.5 3.5t-4 -2t-1.5 -8.5v-108q0 -60 13.5 -74t68.5 -17q5 -5 5 -17t-5 -16q-66 2 -121 2q-42 0 -112 -2q-4 4 -4 16t4 17q47 2 59.5 16.5t12.5 74.5v427q0 42 -11.5 53t-53.5 15q-6 17 -2 28q74 10 123 29q9 0 12 -8q4 -8 8 -66z" />
    <glyph glyph-name="q" unicode="q" horiz-adv-x="503" 
d="M322 368q-33 37 -79 37q-58 0 -90 -49t-32 -129q0 -54 14 -93.5t37 -60t46.5 -30t47.5 -9.5q41 0 66 13q9 5 11.5 10.5t2.5 19.5v230q0 35 -24 61zM346 -111v111q0 7 -1 10t-2 5t-5 0.5t-7.5 -3t-11.5 -6.5q-27 -16 -77 -16q-99 0 -153 68t-54 149q0 99 60.5 165.5
t151.5 66.5q67 0 113 -29q9 -6 14 -3.5t15 16.5q14 19 21 19q15 0 15 -25v-528q0 -60 12 -74t60 -16q5 -5 5 -17t-5 -16q-66 2 -111 2q-42 0 -112 -2q-4 4 -4 16t4 17q48 2 60 16t12 74z" />
    <glyph glyph-name="r" unicode="r" horiz-adv-x="372" 
d="M176 358q0 -5 3 -7t8 5q20 34 49.5 58.5t61.5 24.5q29 0 44.5 -15.5t15.5 -32.5q0 -19 -14.5 -34.5t-32.5 -15.5q-20 0 -36 23q-9 13 -26 13q-12 0 -46 -49q-24 -36 -24 -67v-139q0 -60 13.5 -73.5t68.5 -17.5q5 -5 5 -17t-5 -16q-70 2 -121 2q-44 0 -114 -2q-4 4 -4 16
t4 17q49 3 61.5 17t12.5 74v195q0 42 -11.5 53t-53.5 15q-6 17 -2 28q74 10 123 29q9 0 12 -8q5 -9 8 -76z" />
    <glyph glyph-name="s" unicode="s" horiz-adv-x="390" 
d="M48 138q5 5 15.5 5t15.5 -4q16 -68 39 -92q22 -24 71 -24q32 0 58.5 18t26.5 52q0 33 -20.5 53t-81.5 45q-60 25 -85 54t-25 82q0 47 42 79.5t99 32.5q23 0 47 -3.5t50.5 -9t33.5 -6.5q-2 -53 -6 -106q-5 -5 -16 -5t-16 4q-5 30 -16.5 50t-27 28.5t-27 11.5t-22.5 3
q-27 0 -48.5 -17.5t-21.5 -46.5q0 -20 6 -34t22.5 -25t29.5 -17t42 -17q117 -43 117 -133q0 -35 -16.5 -61t-42.5 -39.5t-51 -19.5t-49 -6q-49 0 -91 11q-7 2 -20 2q-10 0 -25 -3q0 52 -7 138z" />
    <glyph glyph-name="t" unicode="t" horiz-adv-x="316" 
d="M43 429h46q0 38 -0.5 63t-1 32.5t-1 12.5t-0.5 8q0 7 22 14q15 4 34 14q16 9 22 9q8 0 8 -9q-4 -40 -4 -105v-39h120q8 0 8 -6v-20q0 -13 -24 -13h-104v-253q0 -49 7 -70.5t26 -21.5q46 0 82 28q15 -1 18 -17q-59 -66 -135 -66q-77 0 -77 99v301h-59q-5 0 -5 6v13
q0 20 18 20z" />
    <glyph glyph-name="u" unicode="u" horiz-adv-x="531" 
d="M217 -10q-69 0 -99 38.5t-30 97.5v192q0 47 -12.5 62t-49.5 18q-4 4 -4 16t4 17q68 -2 102 -2q25 0 35 2q8 0 8 -6q-4 -73 -4 -103v-182q0 -59 24.5 -81t55.5 -22q45 0 100 48q16 14 16 39v193q0 48 -12 63.5t-50 17.5q-5 4 -5 16t5 17q68 -2 102 -2q25 0 35 2q8 0 8 -6
q-4 -73 -4 -103v-192q0 -39 13.5 -54t59.5 -19q5 -5 5 -14t-5 -13q-80 -9 -118 -40q-11 -3 -19 0q-8 34 -11 59q-1 5 -6 4.5t-9 -3.5q-73 -60 -135 -60z" />
    <glyph glyph-name="v" unicode="v" horiz-adv-x="497" 
d="M325 398q-5 4 -5 16t5 17q50 -2 92 -2q30 0 70 2q5 -5 5 -17t-5 -16q-38 -3 -53.5 -19t-32.5 -55l-133 -313q-9 -23 -24 -23q-17 0 -25 21l-128 316q-16 42 -29.5 55.5t-50.5 17.5q-5 4 -5 16t5 17q60 -2 93 -2q35 0 101 2q5 -5 5 -17t-5 -16q-38 -5 -42.5 -18t11.5 -49
l72 -193q8 -22 13.5 -28t10.5 -0.5t13 25.5l81 196q16 38 8.5 51t-47.5 16z" />
    <glyph glyph-name="w" unicode="w" horiz-adv-x="747" 
d="M203 398q-35 -2 -40.5 -16.5t10.5 -50.5l80 -206q7 -17 10.5 -21t7 0.5t10.5 22.5l70 177l-6 16q-8 21 -13 31t-14 22.5t-21 18t-29 6.5q-4 4 -4 16t4 17q60 -2 88 -2q40 0 100 2q4 -5 4 -17t-4 -16q-39 -3 -45 -14.5t9 -46.5l86 -219q4 -11 7 -14t6.5 1t8.5 17l84 208
q5 13 7.5 20.5t2 17t-6 15t-19 10t-35.5 5.5q-5 4 -5 16t5 17q60 -2 102 -2q32 0 72 2q5 -5 5 -17t-5 -16q-35 -2 -52.5 -19.5t-31.5 -52.5l-131 -317q-8 -21 -23 -21t-24 20l-103 248l-101 -246q-10 -22 -24 -22q-15 0 -24 20l-131 323q-16 39 -30 51t-49 16q-5 4 -5 16
t5 17q52 -2 91 -2q41 0 101 2q5 -5 5 -17t-5 -16z" />
    <glyph glyph-name="x" unicode="x" horiz-adv-x="490" 
d="M182 358l61 -90q10 -14 19 -2l65 91q16 26 11 32t-35 9q-5 4 -5 16t5 17q52 -2 84 -2q33 0 73 2q4 -5 4 -17t-4 -16q-31 -3 -51 -13t-46 -42l-84 -107q-6 -7 0 -15l90 -127q28 -40 45.5 -50.5t54.5 -12.5q5 -5 5 -17t-5 -16q-48 2 -89 2q-39 0 -99 -2q-5 4 -5 16t5 17
q19 2 26 4.5t5.5 14t-18.5 34.5l-58 80q-8 12 -18 -2l-63 -91q-15 -24 -10.5 -30.5t32.5 -9.5q5 -5 5 -17t-5 -16q-52 2 -84 2t-72 -2q-5 4 -5 16t5 17q21 1 32.5 4t28.5 15.5t36 36.5l84 108q5 6 -1 15l-87 127q-39 56 -90 61q-4 4 -4 16t4 17q52 -2 86 -2q47 0 101 2
q5 -5 5 -17t-5 -16q-35 -4 -40 -9t11 -31z" />
    <glyph glyph-name="y" unicode="y" horiz-adv-x="515" 
d="M204 -160q-40 -72 -97 -72q-20 0 -33.5 10.5t-13.5 26.5q0 13 12.5 28t31.5 15q5 0 13.5 -1.5t15.5 -1.5q34 0 50 29q22 46 39 92q13 35 -14 94l-113 263q-19 45 -33.5 58t-45.5 17q-4 4 -4 16t4 17q40 -2 81 -2q39 0 113 2q4 -5 4 -17t-4 -16q-39 -3 -44 -18.5t11 -46.5
l89 -208q12 -29 24 -1l99 229q11 24 -3 33t-45 12q-5 4 -5 16t5 17q60 -2 91 -2t71 2q5 -5 5 -17t-5 -16q-34 -4 -49.5 -17.5t-31.5 -46.5q-74 -158 -177 -408q-19 -47 -41 -86z" />
    <glyph glyph-name="z" unicode="z" horiz-adv-x="424" 
d="M71 439q28 -10 59 -10h183q13 0 27 0.5t24 1t11 0.5q12 0 12 -7t-18 -37q-128 -211 -240 -353h133q37 1 57 17.5t41 58.5l14 29q20 0 30 -6q-11 -75 -32 -136l-312 3q-23 0 -23 12q0 8 9 20q150 201 246 363l-128 -3q-57 -2 -81 -91q-17 -4 -33 3q14 75 15 129
q0 1 2.5 3.5t3.5 2.5z" />
    <glyph glyph-name="braceleft" unicode="{" horiz-adv-x="277" 
d="M178 552l8 -166q3 -62 -23 -91.5t-82 -45.5v-4q55 -23 81.5 -57.5t23.5 -92.5l-8 -149q-3 -60 21 -97t59 -37q4 -4 4 -12t-4 -12q-81 0 -118.5 35t-33.5 128l6 170q3 102 -98 114q-12 12 0 24q51 5 74.5 36.5t23.5 74.5l-6 184q-5 153 152 153q4 -5 4 -12t-4 -12
q-19 -5 -30 -11t-25.5 -19.5t-20.5 -38.5t-4 -62z" />
    <glyph glyph-name="bar" unicode="|" horiz-adv-x="205" 
d="M125 -232h-44v930h44v-930z" />
    <glyph glyph-name="braceright" unicode="}" horiz-adv-x="277" 
d="M95 -58l-8 166q-3 62 23 91.5t82 45.5v4q-55 23 -81.5 57.5t-23.5 92.5l8 149q4 60 -20.5 97t-59.5 37q-5 4 -5 12t5 12q81 0 118.5 -35t33.5 -128l-6 -170q-3 -102 98 -114q12 -12 0 -24q-51 -5 -74.5 -36.5t-23.5 -74.5l6 -184q5 -153 -152 -153q-5 5 -5 12t5 12
q19 5 30 11t25.5 19.5t20.5 38.5t4 62z" />
    <glyph glyph-name="asciitilde" unicode="~" horiz-adv-x="449" 
d="M26 209q10 51 47 89.5t81 38.5q31 0 75 -32q45 -33 72 -33q26 0 55 16.5t44 50.5q12 0 17 -6q-14 -49 -40 -78t-44.5 -35.5t-35.5 -6.5q-32 0 -76 33q-43 32 -73 32q-27 0 -57.5 -20.5t-47.5 -52.5q-9 0 -17 4z" />
    <glyph glyph-name="uni00A0" unicode="&#xa0;" horiz-adv-x="250" 
 />
    <glyph glyph-name="exclamdown" unicode="&#xa1;" horiz-adv-x="288" 
d="M91 386q0 22 15.5 37.5t37.5 15.5t37.5 -15.5t15.5 -37.5t-15.5 -37.5t-37.5 -15.5t-37.5 15.5t-15.5 37.5zM144 -229q-21 0 -37 18t-16 55q0 29 3.5 56.5t10 66t10.5 70.5q6 47 9 89.5t4 65.5t2 27q2 20 14 20t14 -13q1 -6 3 -38t5.5 -74.5t7.5 -76.5q3 -31 13 -92
t10 -101q0 -37 -16 -55t-37 -18z" />
    <glyph glyph-name="cent" unicode="&#xa2;" horiz-adv-x="465" 
d="M232 611h36v-97q66 -1 103.5 -25.5t37.5 -64.5q0 -20 -14.5 -31t-31.5 -11q-32 0 -36 34q-2 20 -6 31.5t-17 22.5t-36 13v-348q3 -1 10 -1q66 0 114 63q16 -2 20 -14q-55 -92 -144 -95v-101h-36v102q-77 8 -120 63.5t-43 142.5q0 85 48 144t115 72v100zM232 145v334
q-37 -12 -59 -55t-22 -108q0 -63 22 -107.5t59 -63.5z" />
    <glyph glyph-name="sterling" unicode="&#xa3;" horiz-adv-x="465" 
d="M74 300q-6 0 -6 7v11q0 8 6 14.5t18 6.5h45v20q0 62 19.5 106.5t62.5 86.5q57 59 133 59q24 0 52 -12.5t28 -36.5q0 -19 -11.5 -30t-29.5 -11q-15 0 -36 19q-25 23 -50 23q-35 0 -59 -44t-24 -109v-71h124q8 0 8 -6v-20q0 -13 -24 -13h-108q-1 -140 -75 -209
q42 0 71 -7.5t41 -16t30 -16t40 -7.5q71 0 103 44q13 -2 18 -11q-19 -40 -55 -64t-84 -24q-45 0 -90 30t-89 30q-40 0 -40 -25q0 -17 -11.5 -26t-28.5 -9q-15 0 -25.5 8t-10.5 20q0 22 51 50q41 30 55.5 83t14.5 131v19h-63z" />
    <glyph glyph-name="currency" unicode="&#xa4;" horiz-adv-x="465" 
d="M108 305q0 -59 34 -100t89 -41q54 0 88.5 41t34.5 99q0 59 -36 100t-85 41q-54 0 -89.5 -41t-35.5 -99zM231 119q-62 0 -114 38l-45 -56l-43 43l57 45q-42 51 -42 115q0 66 42 116l-55 44l39 42l48 -54q52 37 113 37q64 0 115 -39l49 58l41 -43l-58 -47q40 -49 40 -114
q0 -62 -39 -113l55 -46l-38 -40l-48 53q-52 -39 -117 -39z" />
    <glyph glyph-name="yen" unicode="&#xa5;" horiz-adv-x="465" 
d="M191 127v7h-141q-6 0 -6 7v13q0 19 24 19h123v72h-141q-6 0 -6 6v12q0 8 6 14.5t18 6.5h119l-107 219q-29 61 -80 66q-4 5 -4 17t4 16q64 -2 90 -2q25 0 89 2q5 -4 5 -16t-5 -17q-29 0 -35 -6t5 -32l107 -220h2l77 176q25 55 23.5 67t-38.5 15q-4 5 -4 17t4 16
q64 -2 79 -2q3 0 67 2q4 -5 3.5 -16.5t-5.5 -16.5q-39 -4 -49.5 -14.5t-36.5 -67.5l-92 -203h129q8 0 8 -6v-19q0 -14 -25 -14h-122v-72h139q8 0 8 -6v-19q0 -14 -25 -14h-122v-7q0 -64 17.5 -79t84.5 -17q4 -5 4 -17t-4 -16q-106 2 -143 2q-42 0 -146 -2q-5 4 -5 16t5 17
q67 2 84.5 17t17.5 79z" />
    <glyph glyph-name="brokenbar" unicode="&#xa6;" horiz-adv-x="211" 
d="M130 674v-362h-49v362h49zM130 161v-362h-49v362h49z" />
    <glyph glyph-name="section" unicode="&#xa7;" horiz-adv-x="473" 
d="M125 415q-45 45 -45 111q0 53 41.5 92.5t114.5 39.5q66 0 102.5 -33t36.5 -68q0 -38 -36 -38q-30 0 -41 41q-9 33 -23.5 50t-44.5 17q-35 0 -58 -23t-23 -58q0 -70 91 -119q4 -2 26 -13.5t28.5 -15.5t26.5 -15.5t27.5 -19t23 -20.5t22 -25t15 -27.5t11.5 -33.5t3 -38
q0 -88 -75 -148q45 -45 45 -111q0 -53 -41.5 -92.5t-114.5 -39.5q-66 0 -102.5 33t-36.5 68q0 38 36 38q30 0 41 -41q9 -33 23.5 -50t44.5 -17q35 0 58 23t23 58q0 70 -91 119q-4 2 -26 13.5t-28.5 15.5t-26.5 15.5t-27.5 19t-23 20.5t-22 25t-15 27.5t-11.5 33.5t-3 38
q0 88 75 148zM327 90q42 39 42 81q0 27 -10 50.5t-20 38t-35.5 33.5t-37 26t-44.5 26q-45 26 -76 51q-42 -37 -42 -81q0 -27 10 -50.5t20 -38t35.5 -33.5t37 -26t44.5 -26q46 -26 76 -51z" />
    <glyph glyph-name="dieresis" unicode="&#xa8;" horiz-adv-x="379" 
d="M50 575q0 20 14 34t33 14t33 -14t14 -34q0 -19 -14 -33t-33 -14t-33 14t-14 33zM219 575q0 20 14 34t33 14t33 -14t14 -34q0 -19 -13.5 -33t-33.5 -14t-33.5 14t-13.5 33z" />
    <glyph glyph-name="copyright" unicode="&#xa9;" horiz-adv-x="695" 
d="M321 23q-118 0 -202.5 83.5t-84.5 199.5q0 117 85 199.5t202 82.5t202 -82.5t85 -199.5t-85 -200t-202 -83zM321 556q-105 0 -176 -72.5t-71 -177.5q0 -104 71.5 -177.5t175.5 -73.5q103 0 175 73.5t72 177.5q0 105 -71.5 177.5t-175.5 72.5zM439 216q-17 -26 -48.5 -45
t-69.5 -19q-59 0 -102 35q-54 45 -54 117q0 62 36 102q46 51 122 51q31 0 52.5 -3t35 -7t19.5 -5q2 -36 0 -83q-7 -4 -20 -4q-15 41 -33.5 60t-57.5 19q-36 0 -61.5 -28t-25.5 -95q0 -55 28 -92.5t70 -37.5q56 0 90 50q9 -3 19 -15z" />
    <glyph glyph-name="ordfeminine" unicode="&#xaa;" horiz-adv-x="307" 
d="M192 502q-63 -16 -86 -31.5t-23 -39.5q0 -41 45 -41q27 0 64 33v79zM235 358q-17 0 -28 12t-14 27q-26 -23 -43.5 -31t-41.5 -8q-32 0 -54.5 19.5t-22.5 50.5q0 60 103 86l58 15q0 83 -54 83q-25 0 -39.5 -7.5t-14.5 -19.5q0 -9 2 -13t2 -12q0 -7 -6.5 -14t-19.5 -7
q-11 0 -18.5 7t-7.5 18q0 28 35 50.5t69 22.5q106 0 106 -114v-75q0 -57 14 -57q7 0 12 5q11 -5 10 -16q-20 -22 -47 -22z" />
    <glyph glyph-name="guillemotleft" unicode="&#xab;" horiz-adv-x="543" 
d="M156 215q59 -67 127 -170q-5 -17 -24 -19q-99 108 -185 183v12q86 75 185 183q19 -2 24 -19q-68 -103 -127 -170zM336 215q59 -67 127 -170q-5 -17 -24 -19q-99 108 -185 183v12q86 75 185 183q19 -2 24 -19q-68 -103 -127 -170z" />
    <glyph glyph-name="logicalnot" unicode="&#xac;" horiz-adv-x="599" 
d="M499 99v224h-459q-8 25 0 44h513v-268q-31 -11 -54 0z" />
    <glyph glyph-name="uni00AD" unicode="&#xad;" horiz-adv-x="338" 
d="M271 223h-216q-15 0 -15 19q0 14 8 27.5t17 13.5h219q14 0 14 -20q0 -10 -9 -25t-18 -15z" />
    <glyph glyph-name="registered" unicode="&#xae;" horiz-adv-x="695" 
d="M321 23q-118 0 -202.5 83.5t-84.5 199.5q0 117 85 199.5t202 82.5t202 -82.5t85 -199.5t-85 -200t-202 -83zM321 556q-105 0 -176 -72.5t-71 -177.5q0 -104 71.5 -177.5t175.5 -73.5q103 0 175 73.5t72 177.5q0 105 -71.5 177.5t-175.5 72.5zM376 370q0 51 -50 51
q-18 0 -29 -10t-11 -24v-75h42q24 0 36 12.5t12 45.5zM263 443q7 0 34 1t38 1q50 0 72.5 -23t22.5 -52q0 -28 -16 -47t-41 -27l48 -82q17 -29 43 -24q6 -6 4 -17q-17 -7 -36 -7q-39 0 -61 38l-48 80q-5 4 -37 4v-56q0 -24 7.5 -31.5t32.5 -9.5q3 -3 3 -12t-3 -12
q-36 2 -63 2q-28 0 -64 -2q-3 3 -3 12t3 12q25 2 32.5 9.5t7.5 31.5v148q0 24 -7.5 31.5t-32.5 9.5q-3 3 -3 12t3 12q36 -2 64 -2z" />
    <glyph glyph-name="macron" unicode="&#xaf;" horiz-adv-x="397" 
d="M315 529h-244q-12 0 -12 15q0 10 6.5 19.5t15.5 9.5h244q14 0 14 -14q0 -10 -7.5 -20t-16.5 -10z" />
    <glyph glyph-name="degree" unicode="&#xb0;" horiz-adv-x="267" 
d="M199 508q0 28 -17 50t-48 22t-48.5 -21.5t-17.5 -50.5q0 -28 18 -48.5t48 -20.5q29 0 47 21t18 48zM34 509q0 42 29.5 71.5t70.5 29.5t70 -29.5t29 -71.5q0 -41 -29 -70.5t-70 -29.5t-70.5 29.5t-29.5 70.5z" />
    <glyph glyph-name="plusminus" unicode="&#xb1;" horiz-adv-x="550" 
d="M250 520q0 9 12.5 18t20.5 9q17 0 17 -14v-172h176q14 0 14 -17q0 -8 -9 -20.5t-18 -12.5h-163v-160q0 -9 -11.5 -17t-22.5 -8q-16 0 -16 15v170h-175q-15 0 -15 16q0 11 8 22.5t17 11.5h165v159zM463 37h-388q-15 0 -15 16q0 11 8 22.5t17 11.5h391q14 0 14 -17
q0 -8 -9 -20.5t-18 -12.5z" />
    <glyph glyph-name="uni00B2" unicode="&#xb2;" horiz-adv-x="307" 
d="M73 587q-9 0 -17.5 7.5t-8.5 16.5q0 26 27 51.5t80 25.5q44 0 76 -19.5t32 -63.5q0 -32 -21.5 -59t-67.5 -60q-51 -37 -66 -90h83q11 0 20 5.5t16 18.5t10.5 20t9.5 23q18 0 24 -5q-6 -56 -19 -94h-206q0 61 86 127q38 31 53.5 53.5t15.5 59.5q0 54 -50 54q-39 0 -48 -21
q-2 -1 -2 -14.5v-14.5q-4 -21 -27 -21z" />
    <glyph glyph-name="uni00B3" unicode="&#xb3;" horiz-adv-x="307" 
d="M186 624q0 18 -11.5 26t-26.5 8t-31 -6.5t-21 -17.5q-1 -2 -3 -8.5t-4 -10t-7 -7t-13 -3.5q-9 0 -14.5 4t-7 8t-1.5 6q0 11 9.5 24.5t37 27t67.5 13.5q39 0 62 -15.5t23 -43.5q0 -40 -51 -68q30 -3 55 -25.5t25 -62.5q0 -51 -39 -83t-100 -32q-29 0 -63 11t-34 32
q0 9 8 15.5t17 6.5q21 0 30 -17q9 -18 46 -18q29 0 51 17t22 60q0 61 -75 61q-4 0 -20 -2q-8 9 -2 27q71 10 71 73z" />
    <glyph glyph-name="acute" unicode="&#xb4;" horiz-adv-x="341" 
d="M175 703q6 2 14 2q31 0 55 -23l3 -11l-115 -109q-19 -19 -30 -19q-5 0 -9.5 4t-4.5 9q0 10 11 28z" />
    <glyph glyph-name="mu" unicode="&#xb5;" horiz-adv-x="515" 
d="M340 60q-62 -70 -146 -70q-44 0 -65 23q-13 0 -13 -9q0 -35 17 -97t17 -81q0 -29 -12 -44.5t-31 -15.5q-16 0 -36.5 18.5t-20.5 46.5q0 24 8 76t8 85q0 13 -4.5 61.5t-4.5 80.5v188l-11 107q14 0 46 4.5t41 5.5q3 -64 3 -96v-196q0 -112 73 -112q38 0 76 22t57 50v322
q15 0 44.5 4.5t34.5 5.5v-318q0 -29 1.5 -44.5t11.5 -29t29 -13.5q15 0 25 8l10 8q3 0 7.5 -5t4.5 -10q0 -4 -10.5 -14t-32.5 -20.5t-45 -10.5q-72 0 -80 70h-2z" />
    <glyph glyph-name="paragraph" unicode="&#xb6;" horiz-adv-x="602" 
d="M367 574v-735q0 -38 40 -38q41 0 41 38v735q0 38 -41 38q-40 0 -40 -38zM408 645q130 0 177 2l2 -2v-19q0 -8 -8 -8l-26 -2q-31 -2 -43 -11t-12 -31v-735q0 -22 12 -31t43 -11l26 -2q8 0 8 -8v-19l-2 -2q-47 2 -177 2q-128 0 -177 -2l-2 2v19q0 8 7 8l27 2
q31 2 42.5 11.5t11.5 30.5v446q-13 -3 -32 -3q-111 0 -169.5 50t-58.5 149q0 66 49 116t141 50q43 0 98 -1t63 -1z" />
    <glyph glyph-name="periodcentered" unicode="&#xb7;" horiz-adv-x="250" 
d="M125 199q-21 0 -37.5 16.5t-16.5 37.5t16.5 37.5t37.5 16.5t37.5 -16.5t16.5 -37.5t-16.5 -37.5t-37.5 -16.5z" />
    <glyph glyph-name="cedilla" unicode="&#xb8;" horiz-adv-x="541" 
d="M302 -96q-26 0 -45 -6l-6 6l40 96h34l-25 -67q12 3 26 3q31 0 51 -17t20 -45q0 -32 -30.5 -53t-76.5 -21q-35 0 -74 17q0 16 10 26q38 -14 58 -14q23 0 37 10.5t14 29.5q0 35 -33 35z" />
    <glyph glyph-name="uni00B9" unicode="&#xb9;" horiz-adv-x="307" 
d="M135 620q-15 0 -57 -15q-10 7 -10 27q63 23 117 56q11 7 18 0v-239q0 -19 3.5 -30t12 -16.5t16.5 -7t23 -2.5q8 -15 0 -29q-30 1 -84 1q-66 0 -96 -1q-9 14 0 29q25 1 37.5 4t23 15.5t10.5 36.5v130q0 25 -2.5 33t-11.5 8z" />
    <glyph glyph-name="ordmasculine" unicode="&#xba;" horiz-adv-x="349" 
d="M39 483q0 61 38 99t102 38q62 0 97 -38t35 -93q0 -53 -36.5 -92.5t-102.5 -39.5q-56 0 -94.5 36.5t-38.5 89.5zM171 594q-36 0 -55 -29t-19 -72q0 -42 22 -76t64 -34q26 0 48 21t22 69q0 59 -22 90t-60 31z" />
    <glyph glyph-name="guillemotright" unicode="&#xbb;" horiz-adv-x="543" 
d="M387 215q-64 75 -127 170q1 7 8.5 12.5t15.5 6.5q99 -106 185 -183v-12q-86 -77 -185 -183q-8 1 -15.5 6.5t-8.5 12.5q63 95 127 170zM207 215q-64 75 -127 170q1 7 8.5 12.5t15.5 6.5q99 -106 185 -183v-12q-86 -77 -185 -183q-8 1 -15.5 6.5t-8.5 12.5q63 95 127 170z
" />
    <glyph glyph-name="onequarter" unicode="&#xbc;" horiz-adv-x="660" 
d="M132 571q-15 0 -57 -15q-10 8 -10 27q63 23 117 56q11 7 18 0v-239q0 -19 3.5 -30t12 -16.5t16.5 -7t23 -2.5q8 -15 0 -29q-30 1 -84 1q-66 0 -96 -1q-9 14 0 29q25 1 37.5 4t23 15.5t10.5 36.5v130q0 25 -2.5 33t-11.5 8zM528 192q-85 -107 -98 -140h98v140zM528 -6v24
h-119q-26 0 -19 28q4 8 10 17q34 56 112 147q20 22 36 31q1 1 13 1q19 0 19 -10v-180h56l-6 -34h-50v-24q0 -28 11 -36t40 -10q8 -15 0 -29q-30 1 -78 1t-78 -1q-9 14 0 29q32 2 42.5 9.5t10.5 36.5zM557 601l41 -8l-458 -655l-42 8z" />
    <glyph glyph-name="onehalf" unicode="&#xbd;" horiz-adv-x="660" 
d="M431 144q-9 0 -17.5 7.5t-8.5 16.5q0 26 27 51.5t80 25.5q44 0 76 -19.5t32 -63.5q0 -32 -21.5 -59t-67.5 -60q-51 -37 -66 -90h83q11 0 20 5.5t16 18.5t10.5 20t9.5 23q18 0 24 -5q-6 -55 -19 -94h-206q0 61 86 127q38 31 53.5 53.5t15.5 59.5q0 54 -50 54
q-39 0 -48 -21q-2 -1 -2 -14.5v-14.5q-4 -21 -27 -21zM134 571q-15 0 -57 -15q-10 8 -10 27q63 23 117 56q11 7 18 0v-239q0 -19 3.5 -30t12 -16.5t16.5 -7t23 -2.5q8 -15 0 -29q-30 1 -84 1q-66 0 -96 -1q-9 14 0 29q25 1 37.5 4t23 15.5t10.5 36.5v130q0 25 -2.5 33
t-11.5 8zM532 601l42 -8l-459 -655l-41 8z" />
    <glyph glyph-name="threequarters" unicode="&#xbe;" horiz-adv-x="660" 
d="M184 573q0 18 -11.5 26t-26.5 8t-31 -6.5t-21 -17.5q-1 -2 -3 -8.5t-4 -10t-7 -7t-13 -3.5q-9 0 -14.5 4t-7 8t-1.5 6q0 11 9.5 24.5t37 27t67.5 13.5q39 0 62 -15.5t23 -43.5q0 -40 -51 -68q30 -3 55 -25.5t25 -62.5q0 -51 -39 -83t-100 -32q-29 0 -63 11t-34 32
q0 9 8 15.5t17 6.5q21 0 30 -17q10 -18 46 -18q29 0 51 17t22 60q0 61 -75 61q-4 0 -20 -2q-8 10 -2 27q71 10 71 73zM532 194q-88 -111 -98 -140h98v140zM532 -4v24h-119q-26 0 -19 28q4 8 10 17q34 56 112 147q20 22 36 31q1 1 13 1q19 0 19 -10v-180h56l-6 -34h-50v-24
q0 -28 11 -36t40 -10q8 -15 0 -29q-30 1 -78 1t-78 -1q-9 14 0 29q32 2 42.5 9.5t10.5 36.5zM562 601l41 -8l-458 -655l-42 8z" />
    <glyph glyph-name="questiondown" unicode="&#xbf;" horiz-adv-x="435" 
d="M185 386q0 22 15.5 37.5t37.5 15.5t37.5 -15.5t15.5 -37.5t-15.5 -37.5t-37.5 -15.5t-37.5 15.5t-15.5 37.5zM321 -143q0 19 -6 26t-6 24q0 16 12 25.5t27 9.5q16 0 28.5 -10t12.5 -33q0 -49 -51 -90q-45 -39 -124 -39q-76 0 -122 41.5t-46 109.5q0 28 9 52t29 44.5
t33 31.5t38 29q42 31 52 50q14 27 14 73v44q0 10 17 10q16 0 16 -10v-46q0 -97 -70 -161q-30 -28 -42.5 -53t-12.5 -60q0 -50 26.5 -86t68.5 -36t69.5 15.5t27.5 38.5z" />
    <glyph glyph-name="Agrave" unicode="&#xc0;" horiz-adv-x="695" 
d="M263 283h177l-94 272h-6l-102 -259q-3 -7 2.5 -10t22.5 -3zM155 79q-1 -10 -3 -17.5t5.5 -12.5l12 -8t16.5 -5t18.5 -3t19.5 -2q4 -5 4 -17t-4 -16q-74 2 -128 2q-37 0 -89 -2q-5 4 -5 16t5 17q26 2 40.5 6t31 19.5t28.5 45.5l227 536q22 0 55 20l206 -572
q8 -23 23.5 -35t28.5 -15t38 -5q5 -5 5 -17t-5 -16q-70 2 -114 2q-57 0 -131 -2q-4 4 -4 16t4 17q14 1 23 2t20.5 2.5t16 4t11 7t5.5 10.5t-2 15l-58 169h-211q-18 0 -24.5 -3.5t-10.5 -13.5zM284 818l121 -84q15 -11 15 -21q0 -6 -4.5 -10.5t-10.5 -4.5q-15 0 -43 12
l-154 63q28 28 76 45z" />
    <glyph glyph-name="Aacute" unicode="&#xc1;" horiz-adv-x="695" 
d="M263 283h177l-94 272h-6l-102 -259q-3 -7 2.5 -10t22.5 -3zM155 79q-1 -10 -3 -17.5t5.5 -12.5l12 -8t16.5 -5t18.5 -3t19.5 -2q4 -5 4 -17t-4 -16q-74 2 -128 2q-37 0 -89 -2q-5 4 -5 16t5 17q26 2 40.5 6t31 19.5t28.5 45.5l227 536q22 0 55 20l206 -572
q8 -23 23.5 -35t28.5 -15t38 -5q5 -5 5 -17t-5 -16q-70 2 -114 2q-57 0 -131 -2q-4 4 -4 16t4 17q14 1 23 2t20.5 2.5t16 4t11 7t5.5 10.5t-2 15l-58 169h-211q-18 0 -24.5 -3.5t-10.5 -13.5zM417 820q41 -18 62 -52l-144 -58q-28 -12 -42 -12q-15 0 -15 15q0 11 15 21z" />
    <glyph glyph-name="Acircumflex" unicode="&#xc2;" horiz-adv-x="695" 
d="M263 283h177l-94 272h-6l-102 -259q-3 -7 2.5 -10t22.5 -3zM155 79q-1 -10 -3 -17.5t5.5 -12.5l12 -8t16.5 -5t18.5 -3t19.5 -2q4 -5 4 -17t-4 -16q-74 2 -128 2q-37 0 -89 -2q-5 4 -5 16t5 17q26 2 40.5 6t31 19.5t28.5 45.5l227 536q22 0 55 20l206 -572
q8 -23 23.5 -35t28.5 -15t38 -5q5 -5 5 -17t-5 -16q-70 2 -114 2q-57 0 -131 -2q-4 4 -4 16t4 17q14 1 23 2t20.5 2.5t16 4t11 7t5.5 10.5t-2 15l-58 169h-211q-18 0 -24.5 -3.5t-10.5 -13.5zM377 808q44 -53 103 -97q-5 -16 -16 -21q-65 30 -106 61q-47 -34 -107 -61
q-11 7 -14 21q41 31 101 97q19 11 39 0z" />
    <glyph glyph-name="Atilde" unicode="&#xc3;" horiz-adv-x="695" 
d="M263 283h177l-94 272h-6l-102 -259q-3 -7 2.5 -10t22.5 -3zM155 79q-1 -10 -3 -17.5t5.5 -12.5l12 -8t16.5 -5t18.5 -3t19.5 -2q4 -5 4 -17t-4 -16q-74 2 -128 2q-37 0 -89 -2q-5 4 -5 16t5 17q26 2 40.5 6t31 19.5t28.5 45.5l227 536q22 0 55 20l206 -572
q8 -23 23.5 -35t28.5 -15t38 -5q5 -5 5 -17t-5 -16q-70 2 -114 2q-57 0 -131 -2q-4 4 -4 16t4 17q14 1 23 2t20.5 2.5t16 4t11 7t5.5 10.5t-2 15l-58 169h-211q-18 0 -24.5 -3.5t-10.5 -13.5zM422 747q17 0 27 10.5t20 41.5q16 1 27 -6q-20 -99 -87 -99q-6 0 -12.5 1.5
t-14 5.5t-12 7t-13 9.5t-12.5 8.5q-31 19 -54 19q-19 0 -28.5 -11t-17.5 -37q-19 -3 -27 5q23 98 80 98q9 0 16.5 -2t16.5 -6.5t13 -7t14 -10t12 -8.5q25 -19 52 -19z" />
    <glyph glyph-name="Adieresis" unicode="&#xc4;" horiz-adv-x="695" 
d="M263 283h177l-94 272h-6l-102 -259q-3 -7 2.5 -10t22.5 -3zM155 79q-1 -10 -3 -17.5t5.5 -12.5l12 -8t16.5 -5t18.5 -3t19.5 -2q4 -5 4 -17t-4 -16q-74 2 -128 2q-37 0 -89 -2q-5 4 -5 16t5 17q26 2 40.5 6t31 19.5t28.5 45.5l227 536q22 0 55 20l206 -572
q8 -23 23.5 -35t28.5 -15t38 -5q5 -5 5 -17t-5 -16q-70 2 -114 2q-57 0 -131 -2q-4 4 -4 16t4 17q14 1 23 2t20.5 2.5t16 4t11 7t5.5 10.5t-2 15l-58 169h-211q-18 0 -24.5 -3.5t-10.5 -13.5zM402 757q0 19 14 33.5t34 14.5t34 -14.5t14 -33.5t-14 -33.5t-34 -14.5t-34 14.5
t-14 33.5zM213 757q0 19 14.5 33.5t33.5 14.5t33.5 -14.5t14.5 -33.5t-14.5 -33.5t-33.5 -14.5t-33.5 14.5t-14.5 33.5z" />
    <glyph glyph-name="Aring" unicode="&#xc5;" horiz-adv-x="695" 
d="M263 283h177l-94 272h-6l-102 -259q-3 -7 2.5 -10t22.5 -3zM155 79q-1 -10 -3 -17.5t5.5 -12.5l12 -8t16.5 -5t18.5 -3t19.5 -2q4 -5 4 -17t-4 -16q-74 2 -128 2q-37 0 -89 -2q-5 4 -5 16t5 17q39 3 60.5 15.5t39.5 55.5l225 532q-26 8 -43.5 30.5t-17.5 49.5
q0 34 26.5 59.5t61.5 25.5t61.5 -25t26.5 -60q0 -24 -14 -44.5t-37 -31.5l199 -552q8 -23 23.5 -35t28.5 -15t38 -5q5 -5 5 -17t-5 -16q-70 2 -114 2q-57 0 -131 -2q-4 4 -4 16t4 17q14 1 23 2t20.5 2.5t16 4t11 7t5.5 10.5t-2 15l-58 169h-211q-18 0 -24.5 -3.5
t-10.5 -13.5zM359 767q-23 0 -35.5 -15t-12.5 -38q0 -22 13 -37.5t35 -15.5t35 15.5t13 37.5q0 24 -13 38.5t-35 14.5z" />
    <glyph glyph-name="AE" unicode="&#xc6;" horiz-adv-x="865" 
d="M271 305h158v270q0 21 -5 23zM429 122v144h-178l-97 -187q-13 -26 8.5 -35.5t61.5 -12.5q4 -5 4 -17t-4 -16q-74 2 -128 2q-15 0 -89 -2q-5 4 -5 16t5 17q36 3 59 16.5t45 54.5l243 455q15 23 2 39t-62 18q-4 4 -4 16t4 17l115 -2h140h176q26 0 49 4q4 0 4 -3
q8 -34 22 -145q-16 -8 -33 -5q-19 60 -40 84.5t-73 24.5h-105q-17 0 -26.5 -12.5t-9.5 -31.5v-200h91q61 0 75 12t16 56q5 5 17 5t16 -5q-2 -60 -2 -86q0 -18 2 -88q-4 -5 -16 -5t-17 5q-2 27 -6 38.5t-24 20.5t-61 9h-91v-241q0 -43 36 -43h136q95 0 131 131q19 4 35 -5
q-12 -79 -37 -167q-80 2 -128 2h-214q-81 -1 -130 -2q-4 4 -4 16t4 17q56 2 71.5 16.5t15.5 74.5z" />
    <glyph glyph-name="Ccedilla" unicode="&#xc7;" horiz-adv-x="646" 
d="M367 -96q-26 0 -45 -6l-6 6l36 86q-102 1 -175 45.5t-106.5 115.5t-33.5 159q0 78 28 147.5t78 115.5q93 85 215 85q72 0 140.5 -22t78.5 -23q15 -83 22 -155q-18 -10 -33 -5q-51 168 -219 168q-87 0 -160 -89q-59 -74 -59 -203q0 -115 65.5 -206.5t162.5 -91.5
q70 0 124.5 25.5t107.5 83.5q15 0 23 -15q-92 -121 -224 -133l-22 -59q12 3 26 3q31 0 51 -17t20 -45q0 -32 -30.5 -53t-76.5 -21q-35 0 -74 17q0 16 10 26q38 -14 58 -14q23 0 37 10.5t14 29.5q0 35 -33 35z" />
    <glyph glyph-name="Egrave" unicode="&#xc8;" horiz-adv-x="557" 
d="M281 361q61 0 75 12t16 56q4 5 16 5t17 -5q-2 -48 -2 -86q0 -36 2 -88q-5 -5 -17 -5t-16 5q-2 27 -6 38.5t-24 20.5t-61 9h-91v-221q0 -35 12.5 -49t43.5 -14h116q95 0 131 131q19 4 35 -5q-12 -79 -37 -167q-80 2 -128 2h-215q-56 0 -130 -2q-4 4 -4 16t4 17
q56 2 71.5 16.5t15.5 74.5v401q0 60 -15.5 74.5t-71.5 16.5q-4 4 -4 16t4 17q80 -2 129 -2h255q26 0 49 4q4 0 4 -3q8 -34 22 -145q-16 -8 -33 -5q-19 60 -40 84.5t-73 24.5h-75q-39 0 -52.5 -14.5t-13.5 -49.5v-180h91zM245 817l121 -84q15 -11 15 -21q0 -6 -4.5 -10.5
t-10.5 -4.5q-15 0 -43 12l-154 63q28 28 76 45z" />
    <glyph glyph-name="Eacute" unicode="&#xc9;" horiz-adv-x="557" 
d="M281 361q61 0 75 12t16 56q4 5 16 5t17 -5q-2 -48 -2 -86q0 -36 2 -88q-5 -5 -17 -5t-16 5q-2 27 -6 38.5t-24 20.5t-61 9h-91v-221q0 -35 12.5 -49t43.5 -14h116q95 0 131 131q19 4 35 -5q-12 -79 -37 -167q-80 2 -128 2h-215q-56 0 -130 -2q-4 4 -4 16t4 17
q56 2 71.5 16.5t15.5 74.5v401q0 60 -15.5 74.5t-71.5 16.5q-4 4 -4 16t4 17q80 -2 129 -2h255q26 0 49 4q4 0 4 -3q8 -34 22 -145q-16 -8 -33 -5q-19 60 -40 84.5t-73 24.5h-75q-39 0 -52.5 -14.5t-13.5 -49.5v-180h91zM350 820q41 -18 62 -52l-144 -58q-28 -12 -42 -12
q-15 0 -15 15q0 11 15 21z" />
    <glyph glyph-name="Ecircumflex" unicode="&#xca;" horiz-adv-x="557" 
d="M281 361q61 0 75 12t16 56q4 5 16 5t17 -5q-2 -48 -2 -86q0 -36 2 -88q-5 -5 -17 -5t-16 5q-2 27 -6 38.5t-24 20.5t-61 9h-91v-221q0 -35 12.5 -49t43.5 -14h116q95 0 131 131q19 4 35 -5q-12 -79 -37 -167q-80 2 -128 2h-215q-56 0 -130 -2q-4 4 -4 16t4 17
q56 2 71.5 16.5t15.5 74.5v401q0 60 -15.5 74.5t-71.5 16.5q-4 4 -4 16t4 17q80 -2 129 -2h255q26 0 49 4q4 0 4 -3q8 -34 22 -145q-16 -8 -33 -5q-19 60 -40 84.5t-73 24.5h-75q-39 0 -52.5 -14.5t-13.5 -49.5v-180h91zM315 808q44 -53 103 -97q-5 -16 -16 -21
q-65 30 -106 61q-47 -34 -107 -61q-11 7 -14 21q41 31 101 97q19 11 39 0z" />
    <glyph glyph-name="Edieresis" unicode="&#xcb;" horiz-adv-x="557" 
d="M281 361q61 0 75 12t16 56q4 5 16 5t17 -5q-2 -48 -2 -86q0 -36 2 -88q-5 -5 -17 -5t-16 5q-2 27 -6 38.5t-24 20.5t-61 9h-91v-221q0 -35 12.5 -49t43.5 -14h116q95 0 131 131q19 4 35 -5q-12 -79 -37 -167q-80 2 -128 2h-215q-56 0 -130 -2q-4 4 -4 16t4 17
q56 2 71.5 16.5t15.5 74.5v401q0 60 -15.5 74.5t-71.5 16.5q-4 4 -4 16t4 17q80 -2 129 -2h255q26 0 49 4q4 0 4 -3q8 -34 22 -145q-16 -8 -33 -5q-19 60 -40 84.5t-73 24.5h-75q-39 0 -52.5 -14.5t-13.5 -49.5v-180h91zM324 757q0 19 14 33.5t34 14.5t34 -14.5t14 -33.5
t-14 -33.5t-34 -14.5t-34 14.5t-14 33.5zM135 757q0 19 14.5 33.5t33.5 14.5t33.5 -14.5t14.5 -33.5t-14.5 -33.5t-33.5 -14.5t-33.5 14.5t-14.5 33.5z" />
    <glyph glyph-name="Igrave" unicode="&#xcc;" horiz-adv-x="297" 
d="M191 122q0 -60 15.5 -74.5t71.5 -16.5q4 -5 4 -17t-4 -16q-90 2 -129 2q-40 0 -130 -2q-5 4 -5 16t5 17q56 2 71.5 16.5t15.5 74.5v401q0 60 -15.5 74.5t-71.5 16.5q-5 4 -5 16t5 17q94 -2 129 -2q42 0 130 2q4 -5 4 -17t-4 -16q-56 -2 -71.5 -16.5t-15.5 -74.5v-401z
M99 817l121 -84q15 -11 15 -21q0 -6 -4.5 -10.5t-10.5 -4.5q-15 0 -43 12l-154 63q28 28 76 45z" />
    <glyph glyph-name="Iacute" unicode="&#xcd;" horiz-adv-x="297" 
d="M191 122q0 -60 15.5 -74.5t71.5 -16.5q4 -5 4 -17t-4 -16q-90 2 -129 2q-40 0 -130 -2q-5 4 -5 16t5 17q56 2 71.5 16.5t15.5 74.5v401q0 60 -15.5 74.5t-71.5 16.5q-5 4 -5 16t5 17q94 -2 129 -2q42 0 130 2q4 -5 4 -17t-4 -16q-56 -2 -71.5 -16.5t-15.5 -74.5v-401z
M210 819q41 -18 62 -52l-144 -58q-28 -12 -42 -12q-15 0 -15 15q0 11 15 21z" />
    <glyph glyph-name="Icircumflex" unicode="&#xce;" horiz-adv-x="297" 
d="M191 122q0 -60 15.5 -74.5t71.5 -16.5q4 -5 4 -17t-4 -16q-90 2 -129 2q-40 0 -130 -2q-5 4 -5 16t5 17q56 2 71.5 16.5t15.5 74.5v401q0 60 -15.5 74.5t-71.5 16.5q-5 4 -5 16t5 17q94 -2 129 -2q42 0 130 2q4 -5 4 -17t-4 -16q-56 -2 -71.5 -16.5t-15.5 -74.5v-401z
M165 808q44 -53 103 -97q-5 -16 -16 -21q-65 30 -106 61q-47 -34 -107 -61q-11 7 -14 21q41 31 101 97q19 11 39 0z" />
    <glyph glyph-name="Idieresis" unicode="&#xcf;" horiz-adv-x="297" 
d="M191 122q0 -60 15.5 -74.5t71.5 -16.5q4 -5 4 -17t-4 -16q-90 2 -129 2q-40 0 -130 -2q-5 4 -5 16t5 17q56 2 71.5 16.5t15.5 74.5v401q0 60 -15.5 74.5t-71.5 16.5q-5 4 -5 16t5 17q94 -2 129 -2q42 0 130 2q4 -5 4 -17t-4 -16q-56 -2 -71.5 -16.5t-15.5 -74.5v-401z
M195 757q0 19 14.5 33.5t33.5 14.5t33.5 -14.5t14.5 -33.5t-14.5 -33.5t-33.5 -14.5t-33.5 14.5t-14.5 33.5zM6 757q0 19 14 33.5t34 14.5t34 -14.5t14 -33.5t-14 -33.5t-34 -14.5t-34 14.5t-14 33.5z" />
    <glyph glyph-name="Eth" unicode="&#xd0;" horiz-adv-x="701" 
d="M191 84q0 -27 20.5 -39.5t88.5 -12.5q57 0 101 11.5t82 38.5t58.5 78t20.5 124q0 61 -15 117t-47 105t-90 78t-135 29q-84 0 -84 -49v-238h97q12 0 12 -13q0 -9 -6 -17.5t-15 -8.5h-88v-203zM148 645q16 0 71 1t94 1q144 0 244.5 -99.5t100.5 -239.5q0 -88 -30.5 -151.5
t-81 -96.5t-104 -47.5t-111.5 -14.5q-60 0 -116 1t-66 1q-52 0 -130 -2q-5 4 -5 16t5 17q56 2 71.5 16.5t15.5 74.5v165h-87q-11 0 -11 14q0 8 6 16.5t13 8.5h79v197q0 60 -15.5 74.5t-71.5 16.5q-5 4 -5 16t5 17q80 -2 129 -2z" />
    <glyph glyph-name="Ntilde" unicode="&#xd1;" horiz-adv-x="699" 
d="M556 512q0 35 -3 53.5t-15 29t-25 13.5t-44 6q-5 4 -5 16t5 17q88 -2 111 -2q30 0 112 2q4 -5 4 -17t-4 -16q-56 -6 -71.5 -22t-15.5 -80v-491q0 -31 -23 -31q-22 0 -40 24l-349 441q-26 33 -34 33t-8 -49v-306q0 -35 3 -53.5t15 -29t25 -13.5t44 -6q4 -5 4 -17t-4 -16
q-84 2 -111 2q-26 0 -112 -2q-5 4 -5 16t5 17q56 6 71.5 22t15.5 80v417q-5 22 -27 42t-52 22q-5 4 -5 16t5 17l135 -2l343 -435q43 -55 48 -55q7 0 7 30v327zM417 745q17 0 27 10.5t20 41.5q16 1 27 -6q-20 -99 -87 -99q-6 0 -12.5 1.5t-14 5.5t-12 7t-13 9.5t-12.5 8.5
q-31 19 -54 19q-19 0 -28.5 -11t-17.5 -37q-19 -3 -27 5q23 98 80 98q9 0 16.5 -2t16.5 -6.5t13 -7t14 -10t12 -8.5q25 -19 52 -19z" />
    <glyph glyph-name="Ograve" unicode="&#xd2;" horiz-adv-x="702" 
d="M331 622q-82 0 -140 -74t-58 -221q0 -138 70 -219.5t167 -81.5q88 0 144 76.5t56 207.5q0 146 -68 229t-171 83zM666 329q0 -125 -62 -213q-89 -126 -254 -126q-132 0 -222.5 88t-90.5 232q0 150 82.5 249t224.5 99q139 0 230.5 -89t91.5 -240zM304 819l121 -84
q15 -11 15 -21q0 -6 -4.5 -10.5t-10.5 -4.5q-15 0 -43 12l-154 63q28 28 76 45z" />
    <glyph glyph-name="Oacute" unicode="&#xd3;" horiz-adv-x="702" 
d="M331 622q-82 0 -140 -74t-58 -221q0 -138 70 -219.5t167 -81.5q88 0 144 76.5t56 207.5q0 146 -68 229t-171 83zM666 329q0 -125 -62 -213q-89 -126 -254 -126q-132 0 -222.5 88t-90.5 232q0 150 82.5 249t224.5 99q139 0 230.5 -89t91.5 -240zM387 820q41 -18 62 -52
l-144 -58q-28 -12 -42 -12q-15 0 -15 15q0 11 15 21z" />
    <glyph glyph-name="Ocircumflex" unicode="&#xd4;" horiz-adv-x="702" 
d="M331 622q-82 0 -140 -74t-58 -221q0 -138 70 -219.5t167 -81.5q88 0 144 76.5t56 207.5q0 146 -68 229t-171 83zM666 329q0 -125 -62 -213q-89 -126 -254 -126q-132 0 -222.5 88t-90.5 232q0 150 82.5 249t224.5 99q139 0 230.5 -89t91.5 -240zM366 808q44 -53 103 -97
q-5 -16 -16 -21q-65 30 -106 61q-47 -34 -107 -61q-11 7 -14 21q41 31 101 97q19 11 39 0z" />
    <glyph glyph-name="Otilde" unicode="&#xd5;" horiz-adv-x="702" 
d="M331 622q-82 0 -140 -74t-58 -221q0 -138 70 -219.5t167 -81.5q88 0 144 76.5t56 207.5q0 146 -68 229t-171 83zM666 329q0 -125 -62 -213q-89 -126 -254 -126q-132 0 -222.5 88t-90.5 232q0 150 82.5 249t224.5 99q139 0 230.5 -89t91.5 -240zM410 745q17 0 27 10.5
t20 41.5q16 1 27 -6q-20 -99 -87 -99q-6 0 -12.5 1.5t-14 5.5t-12 7t-13 9.5t-12.5 8.5q-31 19 -54 19q-19 0 -28.5 -11t-17.5 -37q-19 -3 -27 5q23 98 80 98q9 0 16.5 -2t16.5 -6.5t13 -7t14 -10t12 -8.5q25 -19 52 -19z" />
    <glyph glyph-name="Odieresis" unicode="&#xd6;" horiz-adv-x="702" 
d="M331 622q-82 0 -140 -74t-58 -221q0 -138 70 -219.5t167 -81.5q88 0 144 76.5t56 207.5q0 146 -68 229t-171 83zM666 329q0 -125 -62 -213q-89 -126 -254 -126q-132 0 -222.5 88t-90.5 232q0 150 82.5 249t224.5 99q139 0 230.5 -89t91.5 -240zM393 758q0 20 14.5 34
t33.5 14t33.5 -14t14.5 -34t-14.5 -34t-33.5 -14t-33.5 14t-14.5 34zM204 758q0 20 14 34t34 14t34 -14t14 -34t-14 -34t-34 -14t-34 14t-14 34z" />
    <glyph glyph-name="multiply" unicode="&#xd7;" horiz-adv-x="550" 
d="M308 290l123 -122l-35 -35l-122 122l-122 -122l-36 35l123 122l-123 123l36 35l122 -123l122 123l35 -35z" />
    <glyph glyph-name="Oslash" unicode="&#xd8;" horiz-adv-x="702" 
d="M108 -13q-13 0 -23.5 10t-12.5 22l51 63q-86 91 -86 228q0 150 82.5 249t224.5 99q115 0 197 -61l50 61q14 0 24 -9t12 -21l-50 -62q89 -91 89 -237q0 -125 -62 -213q-89 -126 -254 -126q-107 0 -190 61zM331 622q-82 0 -140 -74t-58 -221q0 -105 43 -180l322 397
q-66 78 -167 78zM526 503l-322 -397q68 -80 166 -80q88 0 144 76.5t56 207.5q0 116 -44 193z" />
    <glyph glyph-name="Ugrave" unicode="&#xd9;" horiz-adv-x="661" 
d="M172 523v-257q0 -42 2 -69t14 -62t35 -57q49 -47 119 -47q49 0 84 15.5t54 38t30 58t13.5 65t2.5 69.5v246q0 31 -3 47.5t-15.5 26t-26.5 12t-47 5.5q-4 4 -4 16t4 17q92 -2 116 -2q26 0 102 2q4 -5 4 -17t-4 -16q-49 -6 -63 -20t-14 -71v-228q0 -71 -11 -123.5
t-38.5 -95t-78.5 -64.5t-126 -22q-34 0 -64 5.5t-62.5 21.5t-55 42t-37.5 70.5t-15 103.5v290q0 59 -14.5 74t-62.5 17q-4 4 -4 16t4 17q78 -2 119 -2t135 2q4 -5 4 -17t-4 -16q-60 -2 -76 -16.5t-16 -74.5zM276 818l121 -84q15 -11 15 -21q0 -6 -4.5 -10.5t-10.5 -4.5
q-15 0 -43 12l-154 63q28 28 76 45z" />
    <glyph glyph-name="Uacute" unicode="&#xda;" horiz-adv-x="661" 
d="M172 523v-257q0 -42 2 -69t14 -62t35 -57q49 -47 119 -47q49 0 84 15.5t54 38t30 58t13.5 65t2.5 69.5v246q0 31 -3 47.5t-15.5 26t-26.5 12t-47 5.5q-4 4 -4 16t4 17q92 -2 116 -2q26 0 102 2q4 -5 4 -17t-4 -16q-49 -6 -63 -20t-14 -71v-228q0 -71 -11 -123.5
t-38.5 -95t-78.5 -64.5t-126 -22q-34 0 -64 5.5t-62.5 21.5t-55 42t-37.5 70.5t-15 103.5v290q0 59 -14.5 74t-62.5 17q-4 4 -4 16t4 17q78 -2 119 -2t135 2q4 -5 4 -17t-4 -16q-60 -2 -76 -16.5t-16 -74.5zM405 819q41 -18 62 -52l-144 -58q-28 -12 -42 -12q-15 0 -15 15
q0 11 15 21z" />
    <glyph glyph-name="Ucircumflex" unicode="&#xdb;" horiz-adv-x="661" 
d="M172 523v-257q0 -42 2 -69t14 -62t35 -57q49 -47 119 -47q49 0 84 15.5t54 38t30 58t13.5 65t2.5 69.5v246q0 31 -3 47.5t-15.5 26t-26.5 12t-47 5.5q-4 4 -4 16t4 17q92 -2 116 -2q26 0 102 2q4 -5 4 -17t-4 -16q-49 -6 -63 -20t-14 -71v-228q0 -71 -11 -123.5
t-38.5 -95t-78.5 -64.5t-126 -22q-34 0 -64 5.5t-62.5 21.5t-55 42t-37.5 70.5t-15 103.5v290q0 59 -14.5 74t-62.5 17q-4 4 -4 16t4 17q78 -2 119 -2t135 2q4 -5 4 -17t-4 -16q-60 -2 -76 -16.5t-16 -74.5zM368 808q44 -53 103 -97q-5 -16 -16 -21q-65 30 -106 61
q-47 -34 -107 -61q-11 7 -14 21q41 31 101 97q19 11 39 0z" />
    <glyph glyph-name="Udieresis" unicode="&#xdc;" horiz-adv-x="661" 
d="M172 523v-257q0 -42 2 -69t14 -62t35 -57q49 -47 119 -47q49 0 84 15.5t54 38t30 58t13.5 65t2.5 69.5v246q0 31 -3 47.5t-15.5 26t-26.5 12t-47 5.5q-4 4 -4 16t4 17q92 -2 116 -2q26 0 102 2q4 -5 4 -17t-4 -16q-49 -6 -63 -20t-14 -71v-228q0 -71 -11 -123.5
t-38.5 -95t-78.5 -64.5t-126 -22q-34 0 -64 5.5t-62.5 21.5t-55 42t-37.5 70.5t-15 103.5v290q0 59 -14.5 74t-62.5 17q-4 4 -4 16t4 17q78 -2 119 -2t135 2q4 -5 4 -17t-4 -16q-60 -2 -76 -16.5t-16 -74.5zM392 758q0 20 14 34t34 14t34 -14t14 -34t-14 -34t-34 -14t-34 14
t-14 34zM203 758q0 20 14.5 34t33.5 14t33.5 -14t14.5 -34t-14.5 -34t-33.5 -14t-33.5 14t-14.5 34z" />
    <glyph glyph-name="Yacute" unicode="&#xdd;" horiz-adv-x="575" 
d="M337 122q0 -60 17 -74.5t80 -16.5q4 -5 4 -17t-4 -16q-100 2 -139 2q-42 0 -140 -2q-5 4 -5 16t5 17q63 2 80 16.5t17 74.5v127q0 27 -4 40t-17 37l-131 221q-25 41 -42.5 53t-51.5 14q-5 5 -5 16.5t4 16.5q60 -2 102 -2t114 2q5 -5 5 -17t-5 -16q-41 -2 -48 -13t12 -42
l116 -205q5 -8 8 -11t6.5 -1t7.5 10l111 209q14 30 5 40.5t-44 12.5q-5 4 -5 16t5 17q64 -2 91 -2t83 2q5 -5 5 -17t-5 -16q-36 -3 -55.5 -15.5t-39.5 -48.5l-120 -216q-17 -32 -17 -76v-136zM360 820q41 -18 62 -52l-144 -58q-28 -12 -42 -12q-15 0 -15 15q0 11 15 21z" />
    <glyph glyph-name="Thorn" unicode="&#xde;" horiz-adv-x="527" 
d="M183 479v-291q15 -5 71 -5q146 0 146 160q0 82 -37 114.5t-91 32.5q-50 0 -89 -11zM183 122q0 -60 15.5 -74.5t71.5 -16.5q4 -5 4 -17t-4 -16q-100 2 -129 2q-32 0 -130 -2q-5 4 -5 16t5 17q56 2 71.5 16.5t15.5 74.5v401q0 60 -15.5 74.5t-71.5 16.5q-5 4 -5 16t5 17
q100 -2 129 -2q32 0 130 2q4 -5 4 -17t-4 -16q-56 -2 -71.5 -16.5t-15.5 -74.5v-4q72 4 90 4q66 0 112 -17.5t68 -46.5t31 -57t9 -59t-12 -62.5t-37.5 -62t-73.5 -49.5t-111 -19q-49 0 -76 9v-37z" />
    <glyph glyph-name="germandbls" unicode="&#xdf;" horiz-adv-x="541" 
d="M92 122v264q0 12 -12 12h-51q-5 5 0.5 19t14.5 14q29 0 38.5 8.5t9.5 37.5q0 59 20.5 104t52.5 69t65.5 36t65.5 12q72 0 112 -35t40 -76q0 -36 -19.5 -69.5t-42 -53.5t-66.5 -53v-2q40 -26 63 -44t54.5 -48.5t47 -66.5t15.5 -77q0 -79 -43.5 -131t-112.5 -52
q-57 0 -80.5 28t-23.5 68q0 12 9.5 23.5t21.5 11.5q28 0 28 -30q0 -9 -4 -21t-4 -17q0 -14 9.5 -21t18.5 -8t25 -1q26 0 48.5 35t22.5 98q0 122 -155 240v13q56 43 80.5 78.5t24.5 86.5q0 42 -19.5 66.5t-58.5 24.5q-37 0 -61.5 -18.5t-35.5 -53.5t-15 -69.5t-4 -81.5v-320
q0 -58 9 -72.5t39 -18.5q5 -5 5 -17t-5 -16q-46 2 -87 2q-49 0 -109 -2q-5 4 -5 16t5 17q45 2 57 16.5t12 74.5z" />
    <glyph glyph-name="agrave" unicode="&#xe0;" horiz-adv-x="457" 
d="M293 233l-79 -21q-95 -24 -95 -110q0 -27 18.5 -49t53.5 -22q34 0 88 44q14 11 14 26v132zM293 48h-2l-20 -16q-54 -42 -109 -42q-126 0 -126 108q0 50 45.5 88t119.5 57l86 21q6 2 6 12q0 130 -81 130q-33 0 -56.5 -10.5t-23.5 -31.5q0 -14 2 -20q3 -6 3 -18
q0 -11 -13.5 -22.5t-33.5 -11.5q-35 0 -35 36q0 42 51.5 76.5t113.5 34.5q151 0 151 -169v-147q0 -21 0.5 -33t3.5 -26t9.5 -20t16.5 -6q16 0 37 16q14 -7 17 -27q-39 -37 -95 -37q-34 0 -48 15t-19 43zM196 671l70 -126q6 -12 6 -24q0 -4 -4.5 -7.5t-10.5 -3.5q-8 0 -29 20
l-114 109l2 11q31 23 65 23q7 0 15 -2z" />
    <glyph glyph-name="aacute" unicode="&#xe1;" horiz-adv-x="457" 
d="M293 233l-79 -21q-95 -24 -95 -110q0 -27 18.5 -49t53.5 -22q34 0 88 44q14 11 14 26v132zM293 48h-2l-20 -16q-54 -42 -109 -42q-126 0 -126 108q0 50 45.5 88t119.5 57l86 21q6 2 6 12q0 130 -81 130q-33 0 -56.5 -10.5t-23.5 -31.5q0 -14 2 -20q3 -6 3 -18
q0 -11 -13.5 -22.5t-33.5 -11.5q-35 0 -35 36q0 42 51.5 76.5t113.5 34.5q151 0 151 -169v-147q0 -21 0.5 -33t3.5 -26t9.5 -20t16.5 -6q16 0 37 16q14 -7 17 -27q-39 -37 -95 -37q-34 0 -48 15t-19 43zM244 671q6 2 14 2q31 0 55 -23l3 -11l-115 -109q-19 -19 -30 -19
q-5 0 -9.5 4t-4.5 9q0 10 11 28z" />
    <glyph glyph-name="acircumflex" unicode="&#xe2;" horiz-adv-x="457" 
d="M293 233l-79 -21q-95 -24 -95 -110q0 -27 18.5 -49t53.5 -22q34 0 88 44q14 11 14 26v132zM293 48h-2l-20 -16q-54 -42 -109 -42q-126 0 -126 108q0 50 45.5 88t119.5 57l86 21q6 2 6 12q0 130 -81 130q-33 0 -56.5 -10.5t-23.5 -31.5q0 -14 2 -20q3 -6 3 -18
q0 -11 -13.5 -22.5t-33.5 -11.5q-35 0 -35 36q0 42 51.5 76.5t113.5 34.5q151 0 151 -169v-147q0 -21 0.5 -33t3.5 -26t9.5 -20t16.5 -6q16 0 37 16q14 -7 17 -27q-39 -37 -95 -37q-34 0 -48 15t-19 43zM231 660q37 -60 109 -140q-10 -14 -23 -17q-58 37 -103 83
q-56 -56 -104 -83q-13 3 -22 17q76 84 111 140q19 3 32 0z" />
    <glyph glyph-name="atilde" unicode="&#xe3;" horiz-adv-x="457" 
d="M293 233l-79 -21q-95 -24 -95 -110q0 -27 18.5 -49t53.5 -22q34 0 88 44q14 11 14 26v132zM293 48h-2l-20 -16q-54 -42 -109 -42q-126 0 -126 108q0 50 45.5 88t119.5 57l86 21q6 2 6 12q0 130 -81 130q-33 0 -56.5 -10.5t-23.5 -31.5q0 -14 2 -20q3 -6 3 -18
q0 -11 -13.5 -22.5t-33.5 -11.5q-35 0 -35 36q0 42 51.5 76.5t113.5 34.5q151 0 151 -169v-147q0 -21 0.5 -33t3.5 -26t9.5 -20t16.5 -6q16 0 37 16q14 -7 17 -27q-39 -37 -95 -37q-34 0 -48 15t-19 43zM283 573q17 0 27 10.5t20 41.5q16 1 27 -6q-20 -99 -87 -99
q-6 0 -12.5 1.5t-14 5.5t-12 7t-13 9.5t-12.5 8.5q-31 19 -54 19q-19 0 -28.5 -11t-17.5 -37q-19 -3 -27 5q23 98 80 98q9 0 16.5 -2t16.5 -6.5t13 -7t14 -10t12 -8.5q25 -19 52 -19z" />
    <glyph glyph-name="adieresis" unicode="&#xe4;" horiz-adv-x="457" 
d="M293 233l-79 -21q-95 -24 -95 -110q0 -27 18.5 -49t53.5 -22q34 0 88 44q14 11 14 26v132zM293 48h-2l-20 -16q-54 -42 -109 -42q-126 0 -126 108q0 50 45.5 88t119.5 57l86 21q6 2 6 12q0 130 -81 130q-33 0 -56.5 -10.5t-23.5 -31.5q0 -14 2 -20q3 -6 3 -18
q0 -11 -13.5 -22.5t-33.5 -11.5q-35 0 -35 36q0 42 51.5 76.5t113.5 34.5q151 0 151 -169v-147q0 -21 0.5 -33t3.5 -26t9.5 -20t16.5 -6q16 0 37 16q14 -7 17 -27q-39 -37 -95 -37q-34 0 -48 15t-19 43zM83 575q0 20 14 34t33 14t33 -14t14 -34q0 -19 -13.5 -33t-33.5 -14
t-33.5 14t-13.5 33zM252 575q0 20 14 34t33 14t33 -14t14 -34q0 -19 -14 -33t-33 -14t-33 14t-14 33z" />
    <glyph glyph-name="aring" unicode="&#xe5;" horiz-adv-x="457" 
d="M293 233l-79 -21q-95 -24 -95 -110q0 -27 18.5 -49t53.5 -22q34 0 88 44q14 11 14 26v132zM293 48h-2l-20 -16q-54 -42 -109 -42q-126 0 -126 108q0 50 45.5 88t119.5 57l86 21q6 2 6 12q0 130 -81 130q-33 0 -56.5 -10.5t-23.5 -31.5q0 -14 2 -20q3 -6 3 -18
q0 -11 -13.5 -22.5t-33.5 -11.5q-35 0 -35 36q0 42 51.5 76.5t113.5 34.5q151 0 151 -169v-147q0 -21 0.5 -33t3.5 -26t9.5 -20t16.5 -6q16 0 37 16q14 -7 17 -27q-39 -37 -95 -37q-34 0 -48 15t-19 43zM210 635q-23 0 -35.5 -15t-12.5 -38q0 -22 13 -37.5t35 -15.5t35 15.5
t13 37.5q0 24 -13 38.5t-35 14.5zM122 582q0 34 26.5 59.5t61.5 25.5t61.5 -25t26.5 -60q0 -34 -26 -59.5t-62 -25.5q-35 0 -61.5 25.5t-26.5 59.5z" />
    <glyph glyph-name="ae" unicode="&#xe6;" horiz-adv-x="687" 
d="M265 384q-22 22 -65 22q-32 0 -54.5 -11t-22.5 -32q0 -15 3 -20q3 -6 3 -18q0 -13 -10.5 -23t-28.5 -10q-40 0 -40 45q0 43 48.5 72.5t111.5 29.5q99 0 138 -70q51 70 142 70q76 0 117 -33.5t41 -66.5q0 -43 -20.5 -67.5t-81.5 -38.5t-175 -15q0 -69 39.5 -124t94.5 -55
q68 0 119 60q11 -1 20 -16q-22 -42 -63.5 -67.5t-89.5 -25.5q-42 0 -75.5 14t-46.5 25.5t-29 29.5q-7 6 -10.5 4.5t-13.5 -11.5q-61 -62 -134 -62q-61 0 -94 18q-49 29 -49 94q0 30 18 58.5t45 44.5q59 36 196 45q-1 101 -33 134zM298 215q-99 -7 -150 -45q-37 -27 -37 -63
q0 -34 21 -54.5t62 -20.5q24 0 56 25.5t43 55.5q5 24 5 102zM372 253q115 1 157.5 19t42.5 64q0 25 -24.5 47.5t-58.5 22.5q-49 0 -80 -43t-37 -110z" />
    <glyph glyph-name="ccedilla" unicode="&#xe7;" horiz-adv-x="428" 
d="M228 -96q-26 0 -45 -6l-6 6l36 87q-83 7 -129.5 66t-46.5 151q0 101 63 166t142 65q71 0 112 -26.5t41 -68.5q0 -21 -15.5 -32.5t-33.5 -11.5q-34 0 -38 36q-2 22 -6.5 34.5t-20.5 24t-44 11.5q-50 0 -82 -47.5t-32 -128.5q0 -86 39 -138.5t95 -52.5q69 0 120 66
q16 -2 21 -14q-58 -96 -151 -101l-21 -57q12 3 26 3q31 0 51 -17t20 -45q0 -32 -30.5 -53t-76.5 -21q-35 0 -74 17q0 16 10 26q38 -14 58 -14q23 0 37 10.5t14 29.5q0 35 -33 35z" />
    <glyph glyph-name="egrave" unicode="&#xe8;" horiz-adv-x="447" 
d="M124 282l181 3q15 0 15 14q0 57 -24.5 81t-58.5 24q-13 0 -26 -3.5t-31.5 -14.5t-33.5 -38t-22 -66zM386 93q17 -1 21 -16q-67 -87 -170 -87q-99 0 -153 64q-47 54 -47 148q0 106 63.5 170.5t136.5 64.5q169 0 169 -174q0 -17 -19 -17l-266 2q0 -84 32 -137
q44 -72 109 -72q42 0 68.5 12t55.5 42zM210 671l70 -126q6 -12 6 -24q0 -4 -4.5 -7.5t-10.5 -3.5q-8 0 -29 20l-114 109l2 11q31 23 65 23q7 0 15 -2z" />
    <glyph glyph-name="eacute" unicode="&#xe9;" horiz-adv-x="447" 
d="M124 282l181 3q15 0 15 14q0 57 -24.5 81t-58.5 24q-13 0 -26 -3.5t-31.5 -14.5t-33.5 -38t-22 -66zM386 93q17 -1 21 -16q-67 -87 -170 -87q-99 0 -153 64q-47 54 -47 148q0 106 63.5 170.5t136.5 64.5q169 0 169 -174q0 -17 -19 -17l-266 2q0 -84 32 -137
q44 -72 109 -72q42 0 68.5 12t55.5 42zM270 671q6 2 14 2q31 0 55 -23l3 -11l-115 -109q-19 -19 -30 -19q-5 0 -9.5 4t-4.5 9q0 10 11 28z" />
    <glyph glyph-name="ecircumflex" unicode="&#xea;" horiz-adv-x="447" 
d="M124 282l181 3q15 0 15 14q0 57 -24.5 81t-58.5 24q-13 0 -26 -3.5t-31.5 -14.5t-33.5 -38t-22 -66zM386 93q17 -1 21 -16q-67 -87 -170 -87q-99 0 -153 64q-47 54 -47 148q0 106 63.5 170.5t136.5 64.5q169 0 169 -174q0 -17 -19 -17l-266 2q0 -84 32 -137
q44 -72 109 -72q42 0 68.5 12t55.5 42zM249 660q37 -60 109 -140q-10 -14 -23 -17q-58 37 -103 83q-56 -56 -104 -83q-13 3 -22 17q76 84 111 140q19 3 32 0z" />
    <glyph glyph-name="edieresis" unicode="&#xeb;" horiz-adv-x="447" 
d="M124 282l181 3q15 0 15 14q0 57 -24.5 81t-58.5 24q-13 0 -26 -3.5t-31.5 -14.5t-33.5 -38t-22 -66zM386 93q17 -1 21 -16q-67 -87 -170 -87q-99 0 -153 64q-47 54 -47 148q0 106 63.5 170.5t136.5 64.5q169 0 169 -174q0 -17 -19 -17l-266 2q0 -84 32 -137
q44 -72 109 -72q42 0 68.5 12t55.5 42zM99 575q0 20 14 34t33 14t33 -14t14 -34q0 -19 -13.5 -33t-33.5 -14t-33.5 14t-13.5 33zM268 575q0 20 14 34t33 14t33 -14t14 -34q0 -19 -14 -33t-33 -14t-33 14t-14 33z" />
    <glyph glyph-name="igrave" unicode="&#xec;" horiz-adv-x="271" 
d="M181 122q0 -60 12 -74t60 -17q5 -5 5 -17t-5 -16q-66 2 -111 2q-46 0 -112 -2q-4 4 -4 16t4 17q48 4 60 17.5t12 73.5v195q0 42 -11.5 53t-53.5 15q-6 17 -2 28q95 12 137 29q13 0 13 -7q-4 -64 -4 -114v-199zM99 671l70 -126q6 -12 6 -24q0 -4 -4.5 -7.5t-10.5 -3.5
q-8 0 -29 20l-114 109l2 11q31 23 65 23q7 0 15 -2z" />
    <glyph glyph-name="iacute" unicode="&#xed;" horiz-adv-x="271" 
d="M181 122q0 -60 12 -74t60 -17q5 -5 5 -17t-5 -16q-66 2 -111 2q-46 0 -112 -2q-4 4 -4 16t4 17q48 4 60 17.5t12 73.5v195q0 42 -11.5 53t-53.5 15q-6 17 -2 28q95 12 137 29q13 0 13 -7q-4 -64 -4 -114v-199zM163 671q6 2 14 2q31 0 55 -23l3 -11l-115 -109
q-19 -19 -30 -19q-5 0 -9.5 4t-4.5 9q0 10 11 28z" />
    <glyph glyph-name="icircumflex" unicode="&#xee;" horiz-adv-x="271" 
d="M181 122q0 -60 12 -74t60 -17q5 -5 5 -17t-5 -16q-66 2 -111 2q-46 0 -112 -2q-4 4 -4 16t4 17q48 4 60 17.5t12 73.5v195q0 42 -11.5 53t-53.5 15q-6 17 -2 28q95 12 137 29q13 0 13 -7q-4 -64 -4 -114v-199zM141 660q37 -60 109 -140q-10 -14 -23 -17q-58 37 -103 83
q-56 -56 -104 -83q-13 3 -22 17q76 84 111 140q19 3 32 0z" />
    <glyph glyph-name="idieresis" unicode="&#xef;" horiz-adv-x="271" 
d="M181 122q0 -60 12 -74t60 -17q5 -5 5 -17t-5 -16q-66 2 -111 2q-46 0 -112 -2q-4 4 -4 16t4 17q48 4 60 17.5t12 73.5v195q0 42 -11.5 53t-53.5 15q-6 17 -2 28q95 12 137 29q13 0 13 -7q-4 -64 -4 -114v-199zM-4 575q0 20 14 34t33 14t33 -14t14 -34q0 -19 -14 -33
t-33 -14t-33 14t-14 33zM165 575q0 20 14 34t33 14t33 -14t14 -34q0 -19 -13.5 -33t-33.5 -14t-33.5 14t-13.5 33z" />
    <glyph glyph-name="eth" unicode="&#xf0;" horiz-adv-x="486" 
d="M248 26q45 0 80 44t35 153q0 76 -16 133q-38 48 -101 48q-36 0 -62 -17t-39 -44.5t-19 -56.5t-6 -61q0 -85 37 -142t91 -57zM34 208q0 61 21.5 108.5t55.5 72.5t69 37.5t68 12.5q41 0 76 -14q-31 75 -89 147l-109 -73l-22 32l105 71l-16 16q-32 33 -68 59l16 21
q54 -29 106 -71l106 71l22 -32l-97 -65l18 -18q151 -151 151 -346q0 -120 -62.5 -183.5t-153.5 -63.5q-88 0 -142.5 67t-54.5 151z" />
    <glyph glyph-name="ntilde" unicode="&#xf1;" horiz-adv-x="542" 
d="M184 358q70 81 164 81q57 0 83 -34q27 -36 27 -134v-149q0 -59 11.5 -73t55.5 -18q4 -4 4 -16t-4 -17q-60 2 -106 2q-42 0 -102 -2q-4 4 -4 16t4 17q41 4 51.5 18t10.5 73v152q0 53 -12 77q-19 36 -53 36q-61 0 -122 -59q-17 -19 -17 -42v-164q0 -59 10.5 -73t50.5 -18
q4 -5 4 -17t-4 -16q-60 2 -100 2q-50 0 -110 -2q-4 4 -4 16t4 17q47 4 58.5 17.5t11.5 73.5v195q0 42 -11.5 53t-53.5 15q-6 17 -2 28q74 10 123 29q9 0 12 -8q6 -11 8 -76q0 -14 12 0zM346 573q17 0 27 10.5t20 41.5q16 1 27 -6q-20 -99 -87 -99q-6 0 -12.5 1.5t-14 5.5
t-12 7t-13 9.5t-12.5 8.5q-31 19 -54 19q-19 0 -28.5 -11t-17.5 -37q-19 -3 -27 5q23 98 80 98q9 0 16.5 -2t16.5 -6.5t13 -7t14 -10t12 -8.5q25 -19 52 -19z" />
    <glyph glyph-name="ograve" unicode="&#xf2;" horiz-adv-x="504" 
d="M41 205q0 98 55 164q60 70 157 70q72 0 121.5 -35.5t69 -84.5t19.5 -105q0 -104 -65 -168q-58 -56 -147 -56q-100 0 -155 65t-55 150zM238 404q-111 0 -111 -176q0 -32 7.5 -65t22.5 -65t43 -52.5t65 -20.5q44 0 78 36t34 121q0 107 -37 164.5t-102 57.5zM224 671
l70 -126q6 -12 6 -24q0 -4 -4.5 -7.5t-10.5 -3.5q-8 0 -29 20l-114 109l2 11q31 23 65 23q7 0 15 -2z" />
    <glyph glyph-name="oacute" unicode="&#xf3;" horiz-adv-x="504" 
d="M41 205q0 98 55 164q60 70 157 70q72 0 121.5 -35.5t69 -84.5t19.5 -105q0 -104 -65 -168q-58 -56 -147 -56q-100 0 -155 65t-55 150zM238 404q-111 0 -111 -176q0 -32 7.5 -65t22.5 -65t43 -52.5t65 -20.5q44 0 78 36t34 121q0 107 -37 164.5t-102 57.5zM270 671
q6 2 14 2q31 0 55 -23l3 -11l-115 -109q-19 -19 -30 -19q-5 0 -9.5 4t-4.5 9q0 10 11 28z" />
    <glyph glyph-name="ocircumflex" unicode="&#xf4;" horiz-adv-x="504" 
d="M41 205q0 98 55 164q60 70 157 70q72 0 121.5 -35.5t69 -84.5t19.5 -105q0 -104 -65 -168q-58 -56 -147 -56q-100 0 -155 65t-55 150zM238 404q-111 0 -111 -176q0 -32 7.5 -65t22.5 -65t43 -52.5t65 -20.5q44 0 78 36t34 121q0 107 -37 164.5t-102 57.5zM268 660
q37 -60 109 -140q-10 -14 -23 -17q-58 37 -103 83q-56 -56 -104 -83q-13 3 -22 17q76 84 111 140q19 3 32 0z" />
    <glyph glyph-name="otilde" unicode="&#xf5;" horiz-adv-x="504" 
d="M41 205q0 98 55 164q60 70 157 70q72 0 121.5 -35.5t69 -84.5t19.5 -105q0 -104 -65 -168q-58 -56 -147 -56q-100 0 -155 65t-55 150zM238 404q-111 0 -111 -176q0 -32 7.5 -65t22.5 -65t43 -52.5t65 -20.5q44 0 78 36t34 121q0 107 -37 164.5t-102 57.5zM304 573
q17 0 27 10.5t20 41.5q16 1 27 -6q-20 -99 -87 -99q-6 0 -12.5 1.5t-14 5.5t-12 7t-13 9.5t-12.5 8.5q-31 19 -54 19q-19 0 -28.5 -11t-17.5 -37q-19 -3 -27 5q23 98 80 98q9 0 16.5 -2t16.5 -6.5t13 -7t14 -10t12 -8.5q25 -19 52 -19z" />
    <glyph glyph-name="odieresis" unicode="&#xf6;" horiz-adv-x="504" 
d="M41 205q0 98 55 164q60 70 157 70q72 0 121.5 -35.5t69 -84.5t19.5 -105q0 -104 -65 -168q-58 -56 -147 -56q-100 0 -155 65t-55 150zM238 404q-111 0 -111 -176q0 -32 7.5 -65t22.5 -65t43 -52.5t65 -20.5q44 0 78 36t34 121q0 107 -37 164.5t-102 57.5zM121 575
q0 20 14 34t33 14t33 -14t14 -34q0 -19 -13.5 -33t-33.5 -14t-33.5 14t-13.5 33zM290 575q0 20 14 34t33 14t33 -14t14 -34q0 -19 -14 -33t-33 -14t-33 14t-14 33z" />
    <glyph glyph-name="divide" unicode="&#xf7;" horiz-adv-x="550" 
d="M463 226h-388q-15 0 -15 16q0 11 8 22.5t17 11.5h391q14 0 14 -17q0 -8 -9 -20.5t-18 -12.5zM226 387q0 18 13 31t31 13q19 0 32 -13t13 -31t-13 -31t-32 -13q-18 0 -31 13t-13 31zM226 119q0 18 13 31t31 13q19 0 32 -13t13 -31t-13 -31t-32 -13q-18 0 -31 13t-13 31z
" />
    <glyph glyph-name="oslash" unicode="&#xf8;" horiz-adv-x="504" 
d="M414 454q24 0 31 -23l-42 -51q60 -64 60 -166q0 -104 -65 -168q-58 -56 -147 -56q-78 0 -132 44l-51 -62q-12 0 -20 7.5t-10 18.5l53 64q-50 59 -50 143q0 98 55 164q60 70 157 70q71 0 121 -34zM238 404q-111 0 -111 -176q0 -53 17 -101l189 229q-34 48 -95 48zM354 320
l-191 -233q38 -62 102 -62q44 0 78 36t34 121q0 84 -23 138z" />
    <glyph glyph-name="ugrave" unicode="&#xf9;" horiz-adv-x="531" 
d="M217 -10q-69 0 -99 38.5t-30 97.5v192q0 47 -12.5 62t-49.5 18q-4 4 -4 16t4 17q68 -2 102 -2q25 0 35 2q8 0 8 -6q-4 -73 -4 -103v-182q0 -59 24.5 -81t55.5 -22q45 0 100 48q16 14 16 39v193q0 48 -12 63.5t-50 17.5q-5 4 -5 16t5 17q68 -2 102 -2q25 0 35 2q8 0 8 -6
q-4 -73 -4 -103v-192q0 -39 13.5 -54t59.5 -19q5 -5 5 -14t-5 -13q-80 -9 -118 -40q-11 -3 -19 0q-8 34 -11 59q-1 5 -6 4.5t-9 -3.5q-73 -60 -135 -60zM219 671l70 -126q6 -12 6 -24q0 -4 -4.5 -7.5t-10.5 -3.5q-8 0 -29 20l-114 109l2 11q31 23 65 23q7 0 15 -2z" />
    <glyph glyph-name="uacute" unicode="&#xfa;" horiz-adv-x="531" 
d="M217 -10q-69 0 -99 38.5t-30 97.5v192q0 47 -12.5 62t-49.5 18q-4 4 -4 16t4 17q68 -2 102 -2q25 0 35 2q8 0 8 -6q-4 -73 -4 -103v-182q0 -59 24.5 -81t55.5 -22q45 0 100 48q16 14 16 39v193q0 48 -12 63.5t-50 17.5q-5 4 -5 16t5 17q68 -2 102 -2q25 0 35 2q8 0 8 -6
q-4 -73 -4 -103v-192q0 -39 13.5 -54t59.5 -19q5 -5 5 -14t-5 -13q-80 -9 -118 -40q-11 -3 -19 0q-8 34 -11 59q-1 5 -6 4.5t-9 -3.5q-73 -60 -135 -60zM297 671q6 2 14 2q31 0 55 -23l3 -11l-115 -109q-19 -19 -30 -19q-5 0 -9.5 4t-4.5 9q0 10 11 28z" />
    <glyph glyph-name="ucircumflex" unicode="&#xfb;" horiz-adv-x="531" 
d="M217 -10q-69 0 -99 38.5t-30 97.5v192q0 47 -12.5 62t-49.5 18q-4 4 -4 16t4 17q68 -2 102 -2q25 0 35 2q8 0 8 -6q-4 -73 -4 -103v-182q0 -59 24.5 -81t55.5 -22q45 0 100 48q16 14 16 39v193q0 48 -12 63.5t-50 17.5q-5 4 -5 16t5 17q68 -2 102 -2q25 0 35 2q8 0 8 -6
q-4 -73 -4 -103v-192q0 -39 13.5 -54t59.5 -19q5 -5 5 -14t-5 -13q-80 -9 -118 -40q-11 -3 -19 0q-8 34 -11 59q-1 5 -6 4.5t-9 -3.5q-73 -60 -135 -60zM263 660q37 -60 109 -140q-10 -14 -23 -17q-58 37 -103 83q-56 -56 -104 -83q-13 3 -22 17q76 84 111 140q19 3 32 0z
" />
    <glyph glyph-name="udieresis" unicode="&#xfc;" horiz-adv-x="531" 
d="M217 -10q-69 0 -99 38.5t-30 97.5v192q0 47 -12.5 62t-49.5 18q-4 4 -4 16t4 17q68 -2 102 -2q25 0 35 2q8 0 8 -6q-4 -73 -4 -103v-182q0 -59 24.5 -81t55.5 -22q45 0 100 48q16 14 16 39v193q0 48 -12 63.5t-50 17.5q-5 4 -5 16t5 17q68 -2 102 -2q25 0 35 2q8 0 8 -6
q-4 -73 -4 -103v-192q0 -39 13.5 -54t59.5 -19q5 -5 5 -14t-5 -13q-80 -9 -118 -40q-11 -3 -19 0q-8 34 -11 59q-1 5 -6 4.5t-9 -3.5q-73 -60 -135 -60zM123 575q0 20 14 34t33 14t33 -14t14 -34q0 -19 -13.5 -33t-33.5 -14t-33.5 14t-13.5 33zM292 575q0 20 14 34t33 14
t33 -14t14 -34q0 -19 -14 -33t-33 -14t-33 14t-14 33z" />
    <glyph glyph-name="yacute" unicode="&#xfd;" horiz-adv-x="515" 
d="M204 -160q-40 -72 -97 -72q-20 0 -33.5 10.5t-13.5 26.5q0 13 12.5 28t31.5 15q5 0 13.5 -1.5t15.5 -1.5q34 0 50 29q22 46 39 92q13 35 -14 94l-113 263q-19 45 -33.5 58t-45.5 17q-4 4 -4 16t4 17q40 -2 81 -2q39 0 113 2q4 -5 4 -17t-4 -16q-39 -3 -44 -18.5t11 -46.5
l89 -208q12 -29 24 -1l99 229q11 24 -3 33t-45 12q-5 4 -5 16t5 17q60 -2 91 -2t71 2q5 -5 5 -17t-5 -16q-34 -4 -49.5 -17.5t-31.5 -46.5q-74 -158 -177 -408q-19 -47 -41 -86zM315 671q6 2 14 2q31 0 55 -23l3 -11l-115 -109q-19 -19 -30 -19q-5 0 -9.5 4t-4.5 9
q0 10 11 28z" />
    <glyph glyph-name="thorn" unicode="&#xfe;" horiz-adv-x="502" 
d="M161 288v-190q0 -22 3.5 -31t13.5 -17q29 -26 70 -26q72 0 101.5 53t29.5 131q0 109 -52 161q-24 24 -58 24q-32 0 -70 -29t-38 -76zM84 559q0 32 -1.5 48t-12.5 23.5t-17 8t-33 2.5q-11 11 -6 30q89 7 140 27q13 0 13 -10q-4 -40 -4 -105v-191q0 -9 0.5 -13t2.5 -4.5
t5 2t9 8.5q52 54 115 54q71 0 120.5 -61.5t49.5 -142.5q0 -115 -72 -187q-58 -58 -140 -58q-37 0 -71 13q-2 1 -7.5 3.5t-6.5 2t-3 -4.5t-2 -14v-100q0 -60 13.5 -74t68.5 -17q5 -5 5 -17t-5 -16q-86 2 -121 2q-28 0 -112 -2q-4 4 -4 16t4 17q47 2 59.5 16.5t12.5 74.5v669z
" />
    <glyph glyph-name="ydieresis" unicode="&#xff;" horiz-adv-x="515" 
d="M204 -160q-40 -72 -97 -72q-20 0 -33.5 10.5t-13.5 26.5q0 13 12.5 28t31.5 15q5 0 13.5 -1.5t15.5 -1.5q34 0 50 29q22 46 39 92q13 35 -14 94l-113 263q-19 45 -33.5 58t-45.5 17q-4 4 -4 16t4 17q40 -2 81 -2q39 0 113 2q4 -5 4 -17t-4 -16q-39 -3 -44 -18.5t11 -46.5
l89 -208q12 -29 24 -1l99 229q11 24 -3 33t-45 12q-5 4 -5 16t5 17q60 -2 91 -2t71 2q5 -5 5 -17t-5 -16q-34 -4 -49.5 -17.5t-31.5 -46.5q-74 -158 -177 -408q-19 -47 -41 -86zM140 575q0 20 14 34t33 14t33 -14t14 -34q0 -19 -14 -33t-33 -14t-33 14t-14 33zM309 575
q0 20 14 34t33 14t33 -14t14 -34q0 -19 -13.5 -33t-33.5 -14t-33.5 14t-13.5 33z" />
    <glyph glyph-name="Amacron" unicode="&#x100;" horiz-adv-x="695" 
d="M263 283h177l-94 272h-6l-102 -259q-3 -7 2.5 -10t22.5 -3zM155 79q-1 -10 -3 -17.5t5.5 -12.5l12 -8t16.5 -5t18.5 -3t19.5 -2q4 -5 4 -17t-4 -16q-74 2 -128 2q-37 0 -89 -2q-5 4 -5 16t5 17q26 2 40.5 6t31 19.5t28.5 45.5l227 536q22 0 55 20l206 -572
q8 -23 23.5 -35t28.5 -15t38 -5q5 -5 5 -17t-5 -16q-70 2 -114 2q-57 0 -131 -2q-4 4 -4 16t4 17q14 1 23 2t20.5 2.5t16 4t11 7t5.5 10.5t-2 15l-58 169h-211q-18 0 -24.5 -3.5t-10.5 -13.5zM462 738h-224q-13 0 -13 18q0 10 7 21t15 11h225q14 0 14 -17q0 -10 -7.5 -21.5
t-16.5 -11.5z" />
    <glyph glyph-name="amacron" unicode="&#x101;" horiz-adv-x="457" 
d="M293 233l-79 -21q-95 -24 -95 -110q0 -27 18.5 -49t53.5 -22q34 0 88 44q14 11 14 26v132zM293 48h-2l-20 -16q-54 -42 -109 -42q-126 0 -126 108q0 50 45.5 88t119.5 57l86 21q6 2 6 12q0 130 -81 130q-33 0 -56.5 -10.5t-23.5 -31.5q0 -14 2 -20q3 -6 3 -18
q0 -11 -13.5 -22.5t-33.5 -11.5q-35 0 -35 36q0 42 51.5 76.5t113.5 34.5q151 0 151 -169v-147q0 -21 0.5 -33t3.5 -26t9.5 -20t16.5 -6q16 0 37 16q14 -7 17 -27q-39 -37 -95 -37q-34 0 -48 15t-19 43zM322 518h-224q-13 0 -13 18q0 10 7 21t15 11h225q14 0 14 -17
q0 -10 -7.5 -21.5t-16.5 -11.5z" />
    <glyph glyph-name="Abreve" unicode="&#x102;" horiz-adv-x="695" 
d="M263 283h177l-94 272h-6l-102 -259q-3 -7 2.5 -10t22.5 -3zM155 79q-1 -10 -3 -17.5t5.5 -12.5l12 -8t16.5 -5t18.5 -3t19.5 -2q4 -5 4 -17t-4 -16q-74 2 -128 2q-37 0 -89 -2q-5 4 -5 16t5 17q26 2 40.5 6t31 19.5t28.5 45.5l227 536q22 0 55 20l206 -572
q8 -23 23.5 -35t28.5 -15t38 -5q5 -5 5 -17t-5 -16q-70 2 -114 2q-57 0 -131 -2q-4 4 -4 16t4 17q14 1 23 2t20.5 2.5t16 4t11 7t5.5 10.5t-2 15l-58 169h-211q-18 0 -24.5 -3.5t-10.5 -13.5zM494 804q-4 -51 -44 -82t-92 -31q-56 0 -94 30.5t-42 82.5h28q6 -28 36.5 -44.5
t71.5 -16.5q39 0 71 16.5t37 44.5h28z" />
    <glyph glyph-name="abreve" unicode="&#x103;" horiz-adv-x="457" 
d="M293 233l-79 -21q-95 -24 -95 -110q0 -27 18.5 -49t53.5 -22q34 0 88 44q14 11 14 26v132zM293 48h-2l-20 -16q-54 -42 -109 -42q-126 0 -126 108q0 50 45.5 88t119.5 57l86 21q6 2 6 12q0 130 -81 130q-33 0 -56.5 -10.5t-23.5 -31.5q0 -14 2 -20q3 -6 3 -18
q0 -11 -13.5 -22.5t-33.5 -11.5q-35 0 -35 36q0 42 51.5 76.5t113.5 34.5q151 0 151 -169v-147q0 -21 0.5 -33t3.5 -26t9.5 -20t16.5 -6q16 0 37 16q14 -7 17 -27q-39 -37 -95 -37q-34 0 -48 15t-19 43zM98 647q8 -40 38 -65t70 -25t70.5 24t37.5 66l27 -12
q-9 -62 -48.5 -98.5t-86.5 -36.5q-53 0 -89 35.5t-46 99.5z" />
    <glyph glyph-name="Aogonek" unicode="&#x104;" horiz-adv-x="695" 
d="M701 -135q-42 -65 -110 -65q-88 0 -88 74q0 33 26.5 70t69.5 56h-28q-57 0 -131 -2q-4 4 -4 16t4 17q11 1 17.5 1.5t16 1.5t14.5 2t11.5 3.5t9.5 5t5.5 6.5t2 9.5t-2.5 11.5l-58 169h-211q-18 0 -24.5 -3.5t-10.5 -13.5l-55 -145q-1 -10 -3 -17.5t5.5 -12.5l12 -8
t16.5 -5t18.5 -3t19.5 -2q4 -5 4 -17t-4 -16q-74 2 -128 2q-37 0 -89 -2q-5 4 -5 16t5 17q39 3 60.5 15.5t39.5 55.5l227 536q22 0 55 20l206 -572q8 -23 23.5 -35t28.5 -15t38 -5q5 -5 5 -17t-5 -16q-50 0 -85 -37.5t-35 -75.5q0 -47 50 -47q20 0 33.5 9t33.5 29
q13 0 19 -11zM263 283h177l-94 272h-6l-102 -259q-3 -7 2.5 -10t22.5 -3z" />
    <glyph glyph-name="aogonek" unicode="&#x105;" horiz-adv-x="457" 
d="M460 -135q-42 -65 -110 -65q-88 0 -88 74q0 55 84 117q-26 3 -37.5 17.5t-15.5 39.5h-2l-20 -16q-54 -42 -109 -42q-126 0 -126 108q0 50 45.5 88t119.5 57l86 21q6 2 6 12q0 130 -81 130q-33 0 -56.5 -10.5t-23.5 -31.5q0 -14 2 -20q3 -6 3 -18q0 -11 -13.5 -22.5
t-33.5 -11.5q-35 0 -35 36q0 42 51.5 76.5t113.5 34.5q151 0 151 -169v-147q0 -21 0.5 -33t3.5 -26t9.5 -20t16.5 -6q18 0 37 16q14 -7 17 -27q-23 -22 -57 -32q-39 -32 -56.5 -57t-17.5 -53q0 -47 50 -47q20 0 33.5 9t33.5 29q13 0 19 -11zM293 233l-79 -21
q-95 -24 -95 -110q0 -27 18.5 -49t53.5 -22q34 0 88 44q14 11 14 26v132z" />
    <glyph glyph-name="Cacute" unicode="&#x106;" horiz-adv-x="646" 
d="M357 -10q-154 0 -237 91t-83 229q0 78 28 147.5t78 115.5q93 85 215 85q72 0 140.5 -22t78.5 -23q15 -83 22 -155q-18 -10 -33 -5q-51 168 -219 168q-87 0 -160 -89q-59 -74 -59 -203q0 -115 65.5 -206.5t162.5 -91.5q70 0 124.5 25.5t107.5 83.5q15 0 23 -15
q-103 -135 -254 -135zM392 819q41 -18 62 -52l-144 -58q-28 -12 -42 -12q-15 0 -15 15q0 11 15 21z" />
    <glyph glyph-name="cacute" unicode="&#x107;" horiz-adv-x="428" 
d="M398 91q-35 -58 -74 -79.5t-89 -21.5q-93 0 -145.5 59.5t-52.5 158.5q0 101 63 166t142 65q71 0 112 -26.5t41 -68.5q0 -21 -15.5 -32.5t-33.5 -11.5q-34 0 -38 36q-2 22 -6.5 34.5t-20.5 24t-44 11.5q-50 0 -82 -47.5t-32 -128.5q0 -86 39 -138.5t95 -52.5q69 0 120 66
q16 -2 21 -14zM254 671q6 2 14 2q31 0 55 -23l3 -11l-115 -109q-19 -19 -30 -19q-5 0 -9.5 4t-4.5 9q0 10 11 28z" />
    <glyph glyph-name="Ccircumflex" unicode="&#x108;" horiz-adv-x="646" 
d="M357 -10q-154 0 -237 91t-83 229q0 78 28 147.5t78 115.5q93 85 215 85q72 0 140.5 -22t78.5 -23q15 -83 22 -155q-18 -10 -33 -5q-51 168 -219 168q-87 0 -160 -89q-59 -74 -59 -203q0 -115 65.5 -206.5t162.5 -91.5q70 0 124.5 25.5t107.5 83.5q15 0 23 -15
q-103 -135 -254 -135zM376 809q44 -53 103 -97q-5 -16 -16 -21q-65 30 -106 61q-47 -34 -107 -61q-11 7 -14 21q41 31 101 97q19 11 39 0z" />
    <glyph glyph-name="ccircumflex" unicode="&#x109;" horiz-adv-x="428" 
d="M398 91q-35 -58 -74 -79.5t-89 -21.5q-93 0 -145.5 59.5t-52.5 158.5q0 101 63 166t142 65q71 0 112 -26.5t41 -68.5q0 -21 -15.5 -32.5t-33.5 -11.5q-34 0 -38 36q-2 22 -6.5 34.5t-20.5 24t-44 11.5q-50 0 -82 -47.5t-32 -128.5q0 -86 39 -138.5t95 -52.5q69 0 120 66
q16 -2 21 -14zM239 660q37 -60 109 -140q-10 -14 -23 -17q-58 37 -103 83q-56 -56 -104 -83q-13 3 -22 17q76 84 111 140q19 3 32 0z" />
    <glyph glyph-name="Cdotaccent" unicode="&#x10a;" horiz-adv-x="646" 
d="M357 -10q-154 0 -237 91t-83 229q0 78 28 147.5t78 115.5q93 85 215 85q72 0 140.5 -22t78.5 -23q15 -83 22 -155q-18 -10 -33 -5q-51 168 -219 168q-87 0 -160 -89q-59 -74 -59 -203q0 -115 65.5 -206.5t162.5 -91.5q70 0 124.5 25.5t107.5 83.5q15 0 23 -15
q-103 -135 -254 -135zM304 753q0 21 15.5 36.5t36.5 15.5t36.5 -15.5t15.5 -36.5t-15.5 -36.5t-36.5 -15.5t-36.5 15.5t-15.5 36.5z" />
    <glyph glyph-name="cdotaccent" unicode="&#x10b;" horiz-adv-x="428" 
d="M398 91q-35 -58 -74 -79.5t-89 -21.5q-93 0 -145.5 59.5t-52.5 158.5q0 101 63 166t142 65q71 0 112 -26.5t41 -68.5q0 -21 -15.5 -32.5t-33.5 -11.5q-34 0 -38 36q-2 22 -6.5 34.5t-20.5 24t-44 11.5q-50 0 -82 -47.5t-32 -128.5q0 -86 39 -138.5t95 -52.5q69 0 120 66
q16 -2 21 -14zM179 600q0 18 17 33t35 15q19 0 33.5 -16.5t14.5 -35.5q0 -17 -16 -32.5t-36 -15.5q-18 0 -33 16t-15 36z" />
    <glyph glyph-name="Ccaron" unicode="&#x10c;" horiz-adv-x="646" 
d="M357 -10q-154 0 -237 91t-83 229q0 78 28 147.5t78 115.5q93 85 215 85q72 0 140.5 -22t78.5 -23q15 -83 22 -155q-18 -10 -33 -5q-51 168 -219 168q-87 0 -160 -89q-59 -74 -59 -203q0 -115 65.5 -206.5t162.5 -91.5q70 0 124.5 25.5t107.5 83.5q15 0 23 -15
q-103 -135 -254 -135zM333 697q-36 45 -101 95l16 20q60 -26 106 -61q57 40 107 61l15 -20q-50 -38 -100 -95h-43z" />
    <glyph glyph-name="ccaron" unicode="&#x10d;" horiz-adv-x="428" 
d="M398 91q-35 -58 -74 -79.5t-89 -21.5q-93 0 -145.5 59.5t-52.5 158.5q0 101 63 166t142 65q71 0 112 -26.5t41 -68.5q0 -21 -15.5 -32.5t-33.5 -11.5q-34 0 -38 36q-2 22 -6.5 34.5t-20.5 24t-44 11.5q-50 0 -82 -47.5t-32 -128.5q0 -86 39 -138.5t95 -52.5q69 0 120 66
q16 -2 21 -14zM202 502q-38 62 -101 130l20 13q71 -52 106 -90q38 39 108 90l19 -13q-67 -75 -102 -130h-50z" />
    <glyph glyph-name="Dcaron" unicode="&#x10e;" horiz-adv-x="701" 
d="M191 84q0 -27 20.5 -39.5t88.5 -12.5q57 0 101 11.5t82 38.5t58.5 78t20.5 124q0 61 -15 117t-47 105t-90 78t-135 29q-84 0 -84 -49v-480zM148 645q16 0 71 1t94 1q144 0 244.5 -99.5t100.5 -239.5q0 -88 -30.5 -151.5t-81 -96.5t-104 -47.5t-111.5 -14.5q-60 0 -116 1
t-66 1q-52 0 -130 -2q-5 4 -5 16t5 17q56 2 71.5 16.5t15.5 74.5v401q0 60 -15.5 74.5t-71.5 16.5q-5 4 -5 16t5 17q80 -2 129 -2zM291 697q-36 45 -101 95l16 20q60 -26 106 -61q57 40 107 61l15 -20q-50 -38 -100 -95h-43z" />
    <glyph glyph-name="dcaron" unicode="&#x10f;" horiz-adv-x="528" 
d="M345 124v190q0 23 -3 32.5t-14 21.5q-31 36 -81 36q-60 0 -93 -50q-29 -41 -29 -133q0 -88 33 -136t77 -48q39 0 94 48q16 14 16 39zM334 50q-74 -60 -125 -60q-79 0 -124.5 59t-45.5 154q0 107 69 176q63 60 150 60q15 0 33 -4.5t31 -8.5t14 -4q9 0 9 9v128
q0 32 -1.5 48t-12.5 23.5t-17 8t-33 2.5q-11 11 -6 30q89 7 140 27q13 0 13 -10q-4 -40 -4 -105v-453q0 -39 13.5 -54t59.5 -19q5 -5 5 -14t-5 -13q-80 -9 -118 -40q-8 -4 -19 0q-8 34 -11 59q-1 5 -6 4.5t-9 -3.5zM503 698q27 0 43.5 -22t16.5 -51q0 -32 -27 -66.5
t-75 -39.5l-5 17q29 6 46 27.5t17 41.5q0 21 -14 21q-46 0 -46 38q0 13 11.5 23.5t32.5 10.5z" />
    <glyph glyph-name="Dcroat" unicode="&#x110;" horiz-adv-x="701" 
d="M191 84q0 -27 20.5 -39.5t88.5 -12.5q57 0 101 11.5t82 38.5t58.5 78t20.5 124q0 61 -15 117t-47 105t-90 78t-135 29q-84 0 -84 -49v-237h122q13 -1 13 -13q0 -7 -7 -16.5t-16 -10.5h-112v-203zM148 645q16 0 71 1t94 1q144 0 244.5 -99.5t100.5 -239.5
q0 -88 -30.5 -151.5t-81 -96.5t-104 -47.5t-111.5 -14.5q-60 0 -116 1t-66 1q-52 0 -130 -2q-5 4 -5 16t5 17q56 2 71.5 16.5t15.5 74.5v165h-79q-12 3 -12 13q0 8 6 17t15 10h70v196q0 60 -15.5 74.5t-71.5 16.5q-5 4 -5 16t5 17q80 -2 129 -2z" />
    <glyph glyph-name="dcroat" unicode="&#x111;" horiz-adv-x="506" 
d="M345 124v190q0 23 -3 32.5t-14 21.5q-31 36 -81 36q-60 0 -93 -50q-29 -41 -29 -133q0 -88 33 -136t77 -48q39 0 94 48q16 14 16 39zM334 50q-74 -60 -125 -60q-79 0 -124.5 59t-45.5 154q0 107 69 176q63 60 150 60q15 0 33 -4.5t31 -8.5t14 -4q9 0 9 9v102h-148
q-12 3 -12 13q0 8 6 17t15 10h139q0 32 -6.5 46t-14.5 17t-34 4q-6 1 -9 1q-11 11 -6 30q89 7 140 27q13 0 13 -10q-4 -40 -4 -105v-10h59q13 -1 13 -13q0 -7 -7 -16.5t-16 -10.5h-49v-403q0 -39 13.5 -54t59.5 -19q5 -5 5 -14t-5 -13q-80 -9 -118 -40q-10 -3 -19 0
q-8 35 -11 59q-1 5 -6 4.5t-9 -3.5z" />
    <glyph glyph-name="Emacron" unicode="&#x112;" horiz-adv-x="557" 
d="M375 745h-224q-13 0 -13 18q0 10 7 21t15 11h225q14 0 14 -17q0 -10 -7.5 -21.5t-16.5 -11.5zM281 361q61 0 75 12t16 56q4 5 16 5t17 -5q-2 -48 -2 -86q0 -36 2 -88q-5 -5 -17 -5t-16 5q-2 27 -6 38.5t-24 20.5t-61 9h-91v-221q0 -35 12.5 -49t43.5 -14h116
q95 0 131 131q19 4 35 -5q-12 -79 -37 -167q-80 2 -128 2h-215q-56 0 -130 -2q-4 4 -4 16t4 17q56 2 71.5 16.5t15.5 74.5v401q0 60 -15.5 74.5t-71.5 16.5q-4 4 -4 16t4 17q80 -2 129 -2h255q26 0 49 4q4 0 4 -3q8 -34 22 -145q-16 -8 -33 -5q-19 60 -40 84.5t-73 24.5h-75
q-39 0 -52.5 -14.5t-13.5 -49.5v-180h91z" />
    <glyph glyph-name="emacron" unicode="&#x113;" horiz-adv-x="447" 
d="M124 282l181 3q15 0 15 14q0 57 -24.5 81t-58.5 24q-13 0 -26 -3.5t-31.5 -14.5t-33.5 -38t-22 -66zM386 93q17 -1 21 -16q-67 -87 -170 -87q-99 0 -153 64q-47 54 -47 148q0 106 63.5 170.5t136.5 64.5q169 0 169 -174q0 -17 -19 -17l-266 2q0 -84 32 -137
q44 -72 109 -72q42 0 68.5 12t55.5 42zM337 518h-224q-13 0 -13 18q0 10 7 21t15 11h225q14 0 14 -17q0 -10 -7.5 -21.5t-16.5 -11.5z" />
    <glyph glyph-name="Ebreve" unicode="&#x114;" horiz-adv-x="557" 
d="M281 361q61 0 75 12t16 56q4 5 16 5t17 -5q-2 -48 -2 -86q0 -36 2 -88q-5 -5 -17 -5t-16 5q-2 27 -6 38.5t-24 20.5t-61 9h-91v-221q0 -35 12.5 -49t43.5 -14h116q95 0 131 131q19 4 35 -5q-12 -79 -37 -167q-80 2 -128 2h-215q-56 0 -130 -2q-4 4 -4 16t4 17
q56 2 71.5 16.5t15.5 74.5v401q0 60 -15.5 74.5t-71.5 16.5q-4 4 -4 16t4 17q80 -2 129 -2h255q26 0 49 4q4 0 4 -3q8 -34 22 -145q-16 -8 -33 -5q-19 60 -40 84.5t-73 24.5h-75q-39 0 -52.5 -14.5t-13.5 -49.5v-180h91zM416 803q-4 -51 -44 -82t-92 -31q-56 0 -94 30.5
t-42 82.5h28q6 -28 36.5 -44.5t71.5 -16.5q39 0 71 16.5t37 44.5h28z" />
    <glyph glyph-name="ebreve" unicode="&#x115;" horiz-adv-x="447" 
d="M124 282l181 3q15 0 15 14q0 57 -24.5 81t-58.5 24q-13 0 -26 -3.5t-31.5 -14.5t-33.5 -38t-22 -66zM386 93q17 -1 21 -16q-67 -87 -170 -87q-99 0 -153 64q-47 54 -47 148q0 106 63.5 170.5t136.5 64.5q169 0 169 -174q0 -17 -19 -17l-266 2q0 -84 32 -137
q44 -72 109 -72q42 0 68.5 12t55.5 42zM120 648q8 -40 38 -65t70 -25t70.5 24t37.5 66l27 -12q-9 -62 -48.5 -98.5t-86.5 -36.5q-53 0 -89 35.5t-46 99.5z" />
    <glyph glyph-name="Edotaccent" unicode="&#x116;" horiz-adv-x="557" 
d="M218 753q0 21 15.5 36.5t36.5 15.5t36.5 -15.5t15.5 -36.5t-15.5 -36.5t-36.5 -15.5t-36.5 15.5t-15.5 36.5zM281 361q61 0 75 12t16 56q4 5 16 5t17 -5q-2 -48 -2 -86q0 -36 2 -88q-5 -5 -17 -5t-16 5q-2 27 -6 38.5t-24 20.5t-61 9h-91v-221q0 -35 12.5 -49t43.5 -14
h116q95 0 131 131q19 4 35 -5q-12 -79 -37 -167q-80 2 -128 2h-215q-56 0 -130 -2q-4 4 -4 16t4 17q56 2 71.5 16.5t15.5 74.5v401q0 60 -15.5 74.5t-71.5 16.5q-4 4 -4 16t4 17q80 -2 129 -2h255q26 0 49 4q4 0 4 -3q8 -34 22 -145q-16 -8 -33 -5q-19 60 -40 84.5t-73 24.5
h-75q-39 0 -52.5 -14.5t-13.5 -49.5v-180h91z" />
    <glyph glyph-name="edotaccent" unicode="&#x117;" horiz-adv-x="447" 
d="M124 282l181 3q15 0 15 14q0 57 -24.5 81t-58.5 24q-13 0 -26 -3.5t-31.5 -14.5t-33.5 -38t-22 -66zM386 93q17 -1 21 -16q-67 -87 -170 -87q-99 0 -153 64q-47 54 -47 148q0 106 63.5 170.5t136.5 64.5q169 0 169 -174q0 -17 -19 -17l-266 2q0 -84 32 -137
q44 -72 109 -72q42 0 68.5 12t55.5 42zM180 599q0 18 17 33t35 15q19 0 33.5 -16.5t14.5 -35.5q0 -17 -16 -32.5t-36 -15.5q-18 0 -33 16.5t-15 35.5z" />
    <glyph glyph-name="Eogonek" unicode="&#x118;" horiz-adv-x="557" 
d="M498 -135q-42 -65 -110 -65q-88 0 -88 74q0 33 26.5 70t69.5 56h-33h-215q-56 0 -130 -2q-4 4 -4 16t4 17q56 2 71.5 16.5t15.5 74.5v401q0 60 -15.5 74.5t-71.5 16.5q-4 4 -4 16t4 17q80 -2 129 -2h255q26 0 49 4q4 0 4 -3q8 -34 22 -145q-16 -8 -33 -5q-19 60 -40 84.5
t-73 24.5h-75q-39 0 -52.5 -14.5t-13.5 -49.5v-180h91q61 0 75 12t16 56q4 5 16 5t17 -5q-2 -48 -2 -86q0 -36 2 -88q-5 -5 -17 -5t-16 5q-2 27 -6 38.5t-24 20.5t-61 9h-91v-221q0 -35 12.5 -49t43.5 -14h116q95 0 131 131q19 4 35 -5q-12 -79 -37 -167h-9q-50 0 -85 -37.5
t-35 -75.5q0 -47 50 -47q20 0 33.5 9t33.5 29q13 0 19 -11z" />
    <glyph glyph-name="eogonek" unicode="&#x119;" horiz-adv-x="447" 
d="M373 -135q-42 -65 -110 -65q-88 0 -88 74q0 55 84 117q-7 -1 -22 -1q-99 0 -153 64q-47 54 -47 148q0 106 63.5 170.5t136.5 64.5q169 0 169 -174q0 -17 -19 -17l-266 2q0 -84 32 -137q44 -72 109 -72q42 0 68.5 12t55.5 42q17 -1 21 -16q-36 -46 -78 -66
q-51 -43 -71.5 -69.5t-20.5 -56.5q0 -47 50 -47q20 0 33.5 9t33.5 29q13 0 19 -11zM124 282l181 3q15 0 15 14q0 57 -24.5 81t-58.5 24q-13 0 -26 -3.5t-31.5 -14.5t-33.5 -38t-22 -66z" />
    <glyph glyph-name="Ecaron" unicode="&#x11a;" horiz-adv-x="557" 
d="M281 361q61 0 75 12t16 56q4 5 16 5t17 -5q-2 -48 -2 -86q0 -36 2 -88q-5 -5 -17 -5t-16 5q-2 27 -6 38.5t-24 20.5t-61 9h-91v-221q0 -35 12.5 -49t43.5 -14h116q95 0 131 131q19 4 35 -5q-12 -79 -37 -167q-80 2 -128 2h-215q-56 0 -130 -2q-4 4 -4 16t4 17
q56 2 71.5 16.5t15.5 74.5v401q0 60 -15.5 74.5t-71.5 16.5q-4 4 -4 16t4 17q80 -2 129 -2h255q26 0 49 4q4 0 4 -3q8 -34 22 -145q-16 -8 -33 -5q-19 60 -40 84.5t-73 24.5h-75q-39 0 -52.5 -14.5t-13.5 -49.5v-180h91zM268 697q-36 45 -101 95l16 20q60 -26 106 -61
q57 40 107 61l15 -20q-50 -38 -100 -95h-43z" />
    <glyph glyph-name="ecaron" unicode="&#x11b;" horiz-adv-x="447" 
d="M124 282l181 3q15 0 15 14q0 57 -24.5 81t-58.5 24q-13 0 -26 -3.5t-31.5 -14.5t-33.5 -38t-22 -66zM386 93q17 -1 21 -16q-67 -87 -170 -87q-99 0 -153 64q-47 54 -47 148q0 106 63.5 170.5t136.5 64.5q169 0 169 -174q0 -17 -19 -17l-266 2q0 -84 32 -137
q44 -72 109 -72q42 0 68.5 12t55.5 42zM199 501q-38 62 -101 130l20 13q71 -52 106 -90q38 39 108 90l19 -13q-67 -75 -102 -130h-50z" />
    <glyph glyph-name="Gcircumflex" unicode="&#x11c;" horiz-adv-x="685" 
d="M377 658q49 0 86.5 -9t69 -21t52.5 -15q18 -80 23 -154q-16 -7 -33 -6q-11 38 -24 64t-36.5 52t-61.5 39.5t-90 13.5q-91 0 -160.5 -84t-69.5 -211q0 -69 26.5 -136.5t83.5 -116t132 -48.5q115 0 155 38v153q0 28 -17.5 36.5t-64.5 11.5q-4 5 -4 18t4 18q88 -2 124 -2
q41 0 89 2q5 -5 5 -18t-5 -18q-23 -2 -34.5 -12.5t-11.5 -35.5v-116q0 -15 16 -28q-97 -83 -279 -83q-141 0 -228 90t-87 227q0 105 50.5 187t127.5 123t162 41zM383 808q44 -53 103 -97q-5 -16 -16 -21q-65 30 -106 61q-47 -34 -107 -61q-11 7 -14 21q41 31 101 97
q19 11 39 0z" />
    <glyph glyph-name="gcircumflex" unicode="&#x11d;" horiz-adv-x="500" 
d="M319 279q0 62 -25 95.5t-72 33.5q-80 0 -80 -106q0 -28 3 -48.5t12 -42t28.5 -33t49.5 -11.5q84 0 84 112zM132 -10q-31 -37 -31 -94q0 -45 42 -71t78 -26q47 0 91 12t74.5 38t30.5 60q0 19 -11 32t-40 30q-31 17 -121 17q-5 0 -30 -1.5t-43 -1.5q-22 0 -40 5zM444 387
q-19 0 -28 18q-8 12 -20 12q-9 0 -21.5 -8t-18.5 -16q43 -44 43 -104q0 -70 -49.5 -111.5t-119.5 -41.5q-55 0 -91 21q-18 -25 -18 -58q0 -29 19 -43t45 -14l30 2q40 5 67 5q106 0 146 -33q44 -36 44 -81q0 -52 -42.5 -92.5t-106 -60.5t-132.5 -20q-67 0 -113 27t-46 87
q0 72 82 121q-46 23 -46 77q0 27 12 55.5t32 45.5q-52 50 -52 112q0 67 51 109.5t120 42.5q62 0 104 -28q18 24 48 37.5t52 13.5q20 0 33 -10.5t13 -26.5q0 -15 -11.5 -26.5t-25.5 -11.5zM246 659q37 -60 109 -140q-10 -14 -23 -17q-58 37 -103 83q-56 -56 -104 -83
q-13 3 -22 17q76 84 111 140q19 3 32 0z" />
    <glyph glyph-name="Gbreve" unicode="&#x11e;" horiz-adv-x="685" 
d="M377 658q49 0 86.5 -9t69 -21t52.5 -15q18 -80 23 -154q-16 -7 -33 -6q-11 38 -24 64t-36.5 52t-61.5 39.5t-90 13.5q-91 0 -160.5 -84t-69.5 -211q0 -69 26.5 -136.5t83.5 -116t132 -48.5q115 0 155 38v153q0 28 -17.5 36.5t-64.5 11.5q-4 5 -4 18t4 18q88 -2 124 -2
q41 0 89 2q5 -5 5 -18t-5 -18q-23 -2 -34.5 -12.5t-11.5 -35.5v-116q0 -15 16 -28q-97 -83 -279 -83q-141 0 -228 90t-87 227q0 105 50.5 187t127.5 123t162 41zM488 806q-4 -51 -44 -82t-92 -31q-56 0 -94 30.5t-42 82.5h28q6 -28 36.5 -44.5t71.5 -16.5q39 0 71 16.5
t37 44.5h28z" />
    <glyph glyph-name="gbreve" unicode="&#x11f;" horiz-adv-x="500" 
d="M319 279q0 62 -25 95.5t-72 33.5q-80 0 -80 -106q0 -28 3 -48.5t12 -42t28.5 -33t49.5 -11.5q84 0 84 112zM132 -10q-31 -37 -31 -94q0 -45 42 -71t78 -26q47 0 91 12t74.5 38t30.5 60q0 19 -11 32t-40 30q-31 17 -121 17q-5 0 -30 -1.5t-43 -1.5q-22 0 -40 5zM444 387
q-19 0 -28 18q-8 12 -20 12q-9 0 -21.5 -8t-18.5 -16q43 -44 43 -104q0 -70 -49.5 -111.5t-119.5 -41.5q-55 0 -91 21q-18 -25 -18 -58q0 -29 19 -43t45 -14l30 2q40 5 67 5q106 0 146 -33q44 -36 44 -81q0 -52 -42.5 -92.5t-106 -60.5t-132.5 -20q-67 0 -113 27t-46 87
q0 72 82 121q-46 23 -46 77q0 27 12 55.5t32 45.5q-52 50 -52 112q0 67 51 109.5t120 42.5q62 0 104 -28q18 24 48 37.5t52 13.5q20 0 33 -10.5t13 -26.5q0 -15 -11.5 -26.5t-25.5 -11.5zM112 644q8 -40 38 -65t70 -25t70.5 24t37.5 66l27 -12q-9 -62 -48.5 -98.5
t-86.5 -36.5q-53 0 -89 35.5t-46 99.5z" />
    <glyph glyph-name="Gdotaccent" unicode="&#x120;" horiz-adv-x="685" 
d="M377 658q49 0 86.5 -9t69 -21t52.5 -15q18 -80 23 -154q-16 -7 -33 -6q-11 38 -24 64t-36.5 52t-61.5 39.5t-90 13.5q-91 0 -160.5 -84t-69.5 -211q0 -69 26.5 -136.5t83.5 -116t132 -48.5q115 0 155 38v153q0 28 -17.5 36.5t-64.5 11.5q-4 5 -4 18t4 18q88 -2 124 -2
q41 0 89 2q5 -5 5 -18t-5 -18q-23 -2 -34.5 -12.5t-11.5 -35.5v-116q0 -15 16 -28q-97 -83 -279 -83q-141 0 -228 90t-87 227q0 105 50.5 187t127.5 123t162 41zM304 753q0 21 15.5 36.5t36.5 15.5t36.5 -15.5t15.5 -36.5t-15.5 -36.5t-36.5 -15.5t-36.5 15.5t-15.5 36.5z
" />
    <glyph glyph-name="gdotaccent" unicode="&#x121;" horiz-adv-x="500" 
d="M319 279q0 62 -25 95.5t-72 33.5q-80 0 -80 -106q0 -28 3 -48.5t12 -42t28.5 -33t49.5 -11.5q84 0 84 112zM132 -10q-31 -37 -31 -94q0 -45 42 -71t78 -26q47 0 91 12t74.5 38t30.5 60q0 19 -11 32t-40 30q-31 17 -121 17q-5 0 -30 -1.5t-43 -1.5q-22 0 -40 5zM444 387
q-19 0 -28 18q-8 12 -20 12q-9 0 -21.5 -8t-18.5 -16q43 -44 43 -104q0 -70 -49.5 -111.5t-119.5 -41.5q-55 0 -91 21q-18 -25 -18 -58q0 -29 19 -43t45 -14l30 2q40 5 67 5q106 0 146 -33q44 -36 44 -81q0 -52 -42.5 -92.5t-106 -60.5t-132.5 -20q-67 0 -113 27t-46 87
q0 72 82 121q-46 23 -46 77q0 27 12 55.5t32 45.5q-52 50 -52 112q0 67 51 109.5t120 42.5q62 0 104 -28q18 24 48 37.5t52 13.5q20 0 33 -10.5t13 -26.5q0 -15 -11.5 -26.5t-25.5 -11.5zM180 599q0 18 17 33t35 15q19 0 33.5 -16.5t14.5 -35.5q0 -17 -16 -32.5t-36 -15.5
q-18 0 -33 16.5t-15 35.5z" />
    <glyph glyph-name="uni0122" unicode="&#x122;" horiz-adv-x="685" 
d="M377 658q49 0 86.5 -9t69 -21t52.5 -15q18 -80 23 -154q-16 -7 -33 -6q-11 38 -24 64t-36.5 52t-61.5 39.5t-90 13.5q-91 0 -160.5 -84t-69.5 -211q0 -69 26.5 -136.5t83.5 -116t132 -48.5q115 0 155 38v153q0 28 -17.5 36.5t-64.5 11.5q-4 5 -4 18t4 18q88 -2 124 -2
q41 0 89 2q5 -5 5 -18t-5 -18q-23 -2 -34.5 -12.5t-11.5 -35.5v-116q0 -15 16 -28q-97 -83 -279 -83q-141 0 -228 90t-87 227q0 105 50.5 187t127.5 123t162 41zM375 -41q28 0 45 -23.5t17 -62.5q0 -42 -29.5 -67t-76.5 -32q-8 8 -8 24q35 8 55 23t20 30q0 23 -31 26
q-42 7 -42 39q0 18 14 30.5t36 12.5z" />
    <glyph glyph-name="uni0123" unicode="&#x123;" horiz-adv-x="500" 
d="M319 279q0 62 -25 95.5t-72 33.5q-80 0 -80 -106q0 -28 3 -48.5t12 -42t28.5 -33t49.5 -11.5q84 0 84 112zM132 -10q-31 -37 -31 -94q0 -45 42 -71t78 -26q47 0 91 12t74.5 38t30.5 60q0 19 -11 32t-40 30q-31 17 -121 17q-5 0 -30 -1.5t-43 -1.5q-22 0 -40 5zM444 387
q-19 0 -28 18q-8 12 -20 12q-9 0 -21.5 -8t-18.5 -16q43 -44 43 -104q0 -70 -49.5 -111.5t-119.5 -41.5q-55 0 -91 21q-18 -25 -18 -58q0 -29 19 -43t45 -14l30 2q40 5 67 5q106 0 146 -33q44 -36 44 -81q0 -52 -42.5 -92.5t-106 -60.5t-132.5 -20q-67 0 -113 27t-46 87
q0 72 82 121q-46 23 -46 77q0 27 12 55.5t32 45.5q-52 50 -52 112q0 67 51 109.5t120 42.5q62 0 104 -28q18 24 48 37.5t52 13.5q20 0 33 -10.5t13 -26.5q0 -15 -11.5 -26.5t-25.5 -11.5zM228 511q-28 0 -45 22t-17 51q0 37 23 66q29 36 83 43q5 -5 5 -20q-39 -8 -58 -27.5
t-19 -39.5q0 -6 0.5 -9t3 -4t4.5 -1t8.5 0.5t12.5 0.5q27 0 38.5 -12.5t11.5 -28.5q0 -14 -13.5 -27.5t-37.5 -13.5z" />
    <glyph glyph-name="Hcircumflex" unicode="&#x124;" horiz-adv-x="730" 
d="M618 122q0 -60 15.5 -74.5t71.5 -16.5q5 -5 5 -17t-5 -16q-88 2 -129 2q-40 0 -130 -2q-4 4 -4 16t4 17q56 2 71.5 16.5t15.5 74.5v199h-342v-199q0 -60 15.5 -74.5t71.5 -16.5q4 -5 4 -17t-4 -16q-88 2 -129 2q-42 0 -130 -2q-5 4 -5 16t5 17q56 2 71.5 16.5t15.5 74.5
v401q0 60 -15.5 74.5t-71.5 16.5q-5 4 -5 16t5 17q76 -2 129 -2q54 0 130 2q4 -5 4 -17t-4 -16q-56 -2 -71.5 -16.5t-15.5 -74.5v-160h342v160q0 60 -15.5 74.5t-71.5 16.5q-4 4 -4 16t4 17q88 -2 129 -2q48 0 130 2q5 -5 5 -17t-5 -16q-56 -2 -71.5 -16.5t-15.5 -74.5v-401
zM386 806q44 -53 103 -97q-5 -16 -16 -21q-65 30 -106 61q-47 -34 -107 -61q-11 7 -14 21q41 31 101 97q19 11 39 0z" />
    <glyph glyph-name="hcircumflex" unicode="&#x125;" horiz-adv-x="538" 
d="M167 286v-164q0 -60 10 -74t50 -17q5 -5 5 -17t-5 -16q-56 2 -99 2q-44 0 -110 -2q-4 4 -4 16t4 17q46 3 58 17t12 74v437q0 32 -1.5 48t-12.5 23.5t-17 8t-33 2.5q-11 11 -6 30q89 7 140 27q13 0 13 -10q-4 -40 -4 -105l-1 -225q0 -13 10 0q73 81 170 81q57 0 83 -34
q27 -36 27 -134v-149q0 -59 11.5 -73t55.5 -18q4 -4 4 -16t-4 -17q-66 2 -106 2q-46 0 -102 -2q-4 4 -4 16t4 17q41 4 51.5 18t10.5 73v152q0 53 -12 77q-19 36 -53 36q-67 0 -128 -59q-17 -19 -17 -42zM339 664q32 -61 98 -147q-8 -15 -22 -18q-51 37 -91 85
q-53 -60 -92 -85q-13 3 -21 18q66 87 100 147q17 4 28 0z" />
    <glyph glyph-name="Hbar" unicode="&#x126;" horiz-adv-x="730" 
d="M618 122q0 -60 15.5 -74.5t71.5 -16.5q5 -5 5 -17t-5 -16q-88 2 -129 2q-40 0 -130 -2q-4 4 -4 16t4 17q56 2 71.5 16.5t15.5 74.5v199h-342v-199q0 -60 15.5 -74.5t71.5 -16.5q4 -5 4 -17t-4 -16q-88 2 -129 2q-42 0 -130 -2q-5 4 -5 16t5 17q56 2 71.5 16.5t15.5 74.5
v390h-65v34h64q-2 43 -18.5 54.5t-67.5 13.5q-5 4 -5 16t5 17q76 -2 129 -2q54 0 130 2q4 -5 4 -17t-4 -16q-51 -2 -67.5 -13.5t-18.5 -54.5h340q-2 43 -18.5 54.5t-67.5 13.5q-4 4 -4 16t4 17q88 -2 129 -2q48 0 130 2q5 -5 5 -17t-5 -16q-51 -2 -67.5 -13.5t-18.5 -54.5
h57v-34h-58v-390zM533 512h-342v-149h342v149z" />
    <glyph glyph-name="hbar" unicode="&#x127;" horiz-adv-x="538" 
d="M167 286v-164q0 -60 10 -74t50 -17q5 -5 5 -17t-5 -16q-56 2 -99 2q-44 0 -110 -2q-4 4 -4 16t4 17q46 3 58 17t12 74v408h-62v39h62q-1 49 -10 59t-44 12q-6 1 -10 1q-11 11 -6 30q89 7 140 27q13 0 13 -10q-4 -40 -4 -105v-14h174v-39h-174l-1 -172q0 -13 10 0
q73 81 170 81q57 0 83 -34q27 -36 27 -134v-149q0 -59 11.5 -73t55.5 -18q4 -4 4 -16t-4 -17q-66 2 -106 2q-46 0 -102 -2q-4 4 -4 16t4 17q41 4 51.5 18t10.5 73v152q0 53 -12 77q-19 36 -53 36q-67 0 -128 -59q-17 -19 -17 -42z" />
    <glyph glyph-name="Itilde" unicode="&#x128;" horiz-adv-x="297" 
d="M191 122q0 -60 15.5 -74.5t71.5 -16.5q4 -5 4 -17t-4 -16q-90 2 -129 2q-40 0 -130 -2q-5 4 -5 16t5 17q56 2 71.5 16.5t15.5 74.5v401q0 60 -15.5 74.5t-71.5 16.5q-5 4 -5 16t5 17q94 -2 129 -2q42 0 130 2q4 -5 4 -17t-4 -16q-56 -2 -71.5 -16.5t-15.5 -74.5v-401z
M213 744q17 0 27 10.5t20 41.5q16 1 27 -6q-20 -99 -87 -99q-6 0 -12.5 1.5t-14 5.5t-12 7t-13 9.5t-12.5 8.5q-31 19 -54 19q-19 0 -28.5 -11t-17.5 -37q-19 -3 -27 5q23 98 80 98q9 0 16.5 -2t16.5 -6.5t13 -7t14 -10t12 -8.5q25 -19 52 -19z" />
    <glyph glyph-name="itilde" unicode="&#x129;" horiz-adv-x="271" 
d="M181 122q0 -60 12 -74t60 -17q5 -5 5 -17t-5 -16q-66 2 -111 2q-46 0 -112 -2q-4 4 -4 16t4 17q48 4 60 17.5t12 73.5v195q0 42 -11.5 53t-53.5 15q-6 17 -2 28q95 12 137 29q13 0 13 -7q-4 -64 -4 -114v-199zM184 573q15 0 24 10.5t18 41.5q14 1 25 -6q-18 -99 -79 -99
q-5 0 -11 2t-12.5 5.5t-10.5 7t-12 9.5t-11 8q-28 19 -49 19q-17 0 -25.5 -11t-15.5 -37q-17 -3 -25 5q22 98 72 98q8 0 15 -2t15 -6.5t11.5 -7t13 -10t10.5 -8.5q24 -19 47 -19z" />
    <glyph glyph-name="Imacron" unicode="&#x12a;" horiz-adv-x="297" 
d="M191 122q0 -60 15.5 -74.5t71.5 -16.5q4 -5 4 -17t-4 -16q-90 2 -129 2q-40 0 -130 -2q-5 4 -5 16t5 17q56 2 71.5 16.5t15.5 74.5v401q0 60 -15.5 74.5t-71.5 16.5q-5 4 -5 16t5 17q94 -2 129 -2q42 0 130 2q4 -5 4 -17t-4 -16q-56 -2 -71.5 -16.5t-15.5 -74.5v-401z
M255 745h-224q-13 0 -13 18q0 10 7 21t15 11h225q14 0 14 -17q0 -10 -7.5 -21.5t-16.5 -11.5z" />
    <glyph glyph-name="imacron" unicode="&#x12b;" horiz-adv-x="271" 
d="M181 122q0 -60 12 -74t60 -17q5 -5 5 -17t-5 -16q-66 2 -111 2q-46 0 -112 -2q-4 4 -4 16t4 17q48 4 60 17.5t12 73.5v195q0 42 -11.5 53t-53.5 15q-6 17 -2 28q95 12 137 29q13 0 13 -7q-4 -64 -4 -114v-199zM220 518h-202q-11 0 -11 18q0 10 6.5 21t12.5 11h203
q13 0 13 -17q0 -10 -7 -21.5t-15 -11.5z" />
    <glyph glyph-name="Ibreve" unicode="&#x12c;" horiz-adv-x="297" 
d="M191 122q0 -60 15.5 -74.5t71.5 -16.5q4 -5 4 -17t-4 -16q-90 2 -129 2q-40 0 -130 -2q-5 4 -5 16t5 17q56 2 71.5 16.5t15.5 74.5v401q0 60 -15.5 74.5t-71.5 16.5q-5 4 -5 16t5 17q94 -2 129 -2q42 0 130 2q4 -5 4 -17t-4 -16q-56 -2 -71.5 -16.5t-15.5 -74.5v-401z
M285 805q-4 -51 -44 -82t-92 -31q-56 0 -94 30.5t-42 82.5h28q6 -28 36.5 -44.5t71.5 -16.5q39 0 71 16.5t37 44.5h28z" />
    <glyph glyph-name="ibreve" unicode="&#x12d;" horiz-adv-x="271" 
d="M181 122q0 -60 12 -74t60 -17q5 -5 5 -17t-5 -16q-66 2 -111 2q-46 0 -112 -2q-4 4 -4 16t4 17q48 4 60 17.5t12 73.5v195q0 42 -11.5 53t-53.5 15q-6 17 -2 28q95 12 137 29q13 0 13 -7q-4 -64 -4 -114v-199zM28 650q8 -40 34.5 -65t62.5 -25q37 0 64 24t34 66l24 -12
q-8 -62 -44 -98.5t-78 -36.5q-47 0 -79.5 36t-41.5 99z" />
    <glyph glyph-name="Iogonek" unicode="&#x12e;" horiz-adv-x="297" 
d="M271 -135q-42 -65 -110 -65q-88 0 -88 74q0 33 26.5 70t69.5 56h-20q-40 0 -130 -2q-5 4 -5 16t5 17q56 2 71.5 16.5t15.5 74.5v401q0 60 -15.5 74.5t-71.5 16.5q-5 4 -5 16t5 17q94 -2 129 -2q42 0 130 2q4 -5 4 -17t-4 -16q-56 -2 -71.5 -16.5t-15.5 -74.5v-401
q0 -60 15.5 -74.5t71.5 -16.5q4 -5 4 -17t-4 -16h-23q-50 0 -85 -37.5t-35 -75.5q0 -47 50 -47q20 0 33.5 9t33.5 29q13 0 19 -11z" />
    <glyph glyph-name="iogonek" unicode="&#x12f;" horiz-adv-x="271" 
d="M90 599q0 18 17 33t35 15q19 0 33.5 -16.5t14.5 -35.5q0 -17 -16 -32.5t-36 -15.5q-18 0 -33 16.5t-15 35.5zM259 -135q-42 -65 -110 -65q-88 0 -88 74q0 33 26.5 70t69.5 56h-15q-46 0 -112 -2q-4 4 -4 16t4 17q48 4 60 17.5t12 73.5v195q0 42 -11.5 53t-53.5 15
q-6 17 -2 28q92 12 137 29q13 0 13 -7q-4 -64 -4 -114v-199q0 -60 12 -74t60 -17q5 -5 5 -17t-5 -16h-10q-50 0 -85 -37.5t-35 -75.5q0 -47 50 -47q20 0 33.5 9t33.5 29q13 0 19 -11z" />
    <glyph glyph-name="Idotaccent" unicode="&#x130;" horiz-adv-x="297" 
d="M191 122q0 -60 15.5 -74.5t71.5 -16.5q4 -5 4 -17t-4 -16q-90 2 -129 2q-40 0 -130 -2q-5 4 -5 16t5 17q56 2 71.5 16.5t15.5 74.5v401q0 60 -15.5 74.5t-71.5 16.5q-5 4 -5 16t5 17q94 -2 129 -2q42 0 130 2q4 -5 4 -17t-4 -16q-56 -2 -71.5 -16.5t-15.5 -74.5v-401z
M97 753q0 21 15.5 36.5t36.5 15.5t36.5 -15.5t15.5 -36.5t-15.5 -36.5t-36.5 -15.5t-36.5 15.5t-15.5 36.5z" />
    <glyph glyph-name="dotlessi" unicode="&#x131;" horiz-adv-x="271" 
d="M181 122q0 -60 12 -74t60 -17q5 -5 5 -17t-5 -16q-66 2 -111 2q-46 0 -112 -2q-4 4 -4 16t4 17q48 4 60 17.5t12 73.5v195q0 42 -11.5 53t-53.5 15q-6 17 -2 28q95 12 137 29q13 0 13 -7q-4 -64 -4 -114v-199z" />
    <glyph glyph-name="IJ" unicode="&#x132;" horiz-adv-x="598" 
d="M191 122q0 -60 15.5 -74.5t71.5 -16.5q4 -5 4 -17t-4 -16q-90 2 -129 2q-40 0 -130 -2q-5 4 -5 16t5 17q56 2 71.5 16.5t15.5 74.5v401q0 60 -15.5 74.5t-71.5 16.5q-5 4 -5 16t5 17q94 -2 129 -2q42 0 130 2q4 -5 4 -17t-4 -16q-56 -2 -71.5 -16.5t-15.5 -74.5v-401z
M509 523v-420q0 -51 -9 -90.5t-26.5 -66.5t-31 -42t-35.5 -33q-50 -43 -117 -43q-22 0 -48.5 15t-26.5 39q0 15 16 29t28 14q27 0 40 -25q13 -27 40 -27q20 0 37 13t32.5 62.5t15.5 132.5v442q0 60 -17 74.5t-80 16.5q-5 4 -5 16t5 17q100 -2 139 -2q44 0 120 2q4 -5 4 -17
t-4 -16q-48 -2 -62.5 -17t-14.5 -74z" />
    <glyph glyph-name="ij" unicode="&#x133;" horiz-adv-x="542" 
d="M90 599q0 18 17 33t35 15q19 0 33.5 -16.5t14.5 -35.5q0 -17 -16 -32.5t-36 -15.5q-18 0 -33 16.5t-15 35.5zM181 122q0 -60 12 -74t60 -17q5 -5 5 -17t-5 -16q-66 2 -111 2q-46 0 -112 -2q-4 4 -4 16t4 17q48 4 60 17.5t12 73.5v195q0 42 -11.5 53t-53.5 15q-6 17 -2 28
q95 12 137 29q13 0 13 -7q-4 -64 -4 -114v-199zM369 599q0 18 17 33t35 15q19 0 33.5 -16.5t14.5 -35.5q0 -17 -16 -32.5t-36 -15.5q-18 0 -33 16.5t-15 35.5zM383 317q0 42 -11.5 53t-53.5 15q-6 17 -2 28q95 12 137 29q13 0 13 -7q-4 -64 -4 -114v-211
q0 -135 -18.5 -201.5t-56.5 -97.5q-41 -34 -110 -34q-18 0 -36.5 11.5t-18.5 31.5q0 13 11.5 25.5t20.5 12.5q5 0 10 -1.5t8.5 -3t8 -5t6.5 -5t6 -6t5 -5.5q11 -11 31 -11q34 0 44 66t10 189v241z" />
    <glyph glyph-name="Jcircumflex" unicode="&#x134;" horiz-adv-x="322" 
d="M226 523v-420q0 -51 -9 -90.5t-26.5 -66.5t-31 -42t-35.5 -33q-50 -43 -117 -43q-22 0 -48.5 15t-26.5 39q0 15 16 29t28 14q28 0 40 -25q13 -27 40 -27q20 0 37 13t32.5 62.5t15.5 132.5v442q0 60 -17 74.5t-80 16.5q-4 4 -4 16t4 17q100 -2 139 -2q44 0 120 2
q5 -5 5 -17t-5 -16q-48 -2 -62.5 -17t-14.5 -74zM197 808q44 -53 103 -97q-5 -16 -16 -21q-65 30 -106 61q-47 -34 -107 -61q-11 7 -14 21q41 31 101 97q19 11 39 0z" />
    <glyph glyph-name="jcircumflex" unicode="&#x135;" horiz-adv-x="272" 
d="M113 317q0 42 -11.5 53t-53.5 15q-6 17 -2 28q95 12 137 29q13 0 13 -7q-4 -64 -4 -114v-211q0 -135 -18.5 -201.5t-56.5 -97.5q-41 -34 -110 -34q-18 0 -36.5 11.5t-18.5 31.5q0 13 11.5 25.5t20.5 12.5q5 0 10 -1.5t8.5 -3t8 -5t6.5 -5t6 -6t5 -5.5q11 -11 31 -11
q34 0 44 66t10 189v241zM167 658q37 -60 109 -140q-10 -14 -23 -17q-58 37 -103 83q-56 -56 -104 -83q-13 3 -22 17q76 84 111 140q19 3 32 0z" />
    <glyph glyph-name="uni0136" unicode="&#x136;" horiz-adv-x="637" 
d="M191 122q0 -60 15.5 -74.5t71.5 -16.5q4 -5 4 -17t-4 -16q-90 2 -129 2q-40 0 -130 -2q-5 4 -5 16t5 17q56 2 71.5 16.5t15.5 74.5v401q0 60 -15.5 74.5t-71.5 16.5q-5 4 -5 16t5 17q90 -2 129 -2q38 0 130 2q4 -5 4 -17t-4 -16q-56 -2 -71.5 -16.5t-15.5 -74.5v-176
q47 4 79 39l165 176q15 16 19 26.5t-4 15.5t-17 7t-26 3q-5 4 -5 16t5 17q74 -2 113 -2q33 0 95 2q5 -5 5 -17t-5 -16q-26 -2 -41.5 -5t-39 -15.5t-45.5 -35.5l-147 -151q-35 -36 -35 -49q0 -10 13 -25l219 -260q14 -17 31 -26.5t27.5 -11.5t29.5 -4q5 -5 5 -17t-5 -16
q-66 2 -101 2q-14 0 -54 -2q-5 0 -5 6q-3 27 -36 69l-157 198q-28 36 -83 38v-187zM352 -41q28 0 45 -23.5t17 -62.5q0 -42 -29.5 -67t-76.5 -32q-8 8 -8 24q35 8 55 23t20 30q0 23 -31 26q-42 7 -42 39q0 18 14 30.5t36 12.5z" />
    <glyph glyph-name="uni0137" unicode="&#x137;" horiz-adv-x="512" 
d="M86 122v437q0 32 -1.5 48t-12.5 23.5t-17 8t-33 2.5q-11 11 -6 30q89 7 140 27q13 0 13 -10q-4 -40 -4 -105v-349q32 5 68 31t80 82q35 47 -23 51q-4 4 -4 16t4 17q46 -2 98 -2q41 0 87 2q5 -5 5 -17t-5 -16q-70 -7 -105 -44l-88 -91q-4 -4 -4 -10q0 -5 7 -14l132 -166
q18 -23 36.5 -30.5t49.5 -11.5q5 -5 5 -17t-5 -16q-40 2 -82 2q-22 0 -62 -2q-4 0 -4 5q-1 15 -42 70l-73 98q-16 21 -32 33q-11 3 -43 5v-87q0 -59 9.5 -73.5t42.5 -17.5q5 -5 5 -17t-5 -16q-46 2 -91 2q-41 0 -107 -2q-5 4 -5 16t5 17q44 3 55.5 17t11.5 74zM266 -41
q28 0 45 -23.5t17 -62.5q0 -42 -29.5 -67t-76.5 -32q-8 8 -8 24q35 8 55 23t20 30q0 23 -31 26q-42 7 -42 39q0 18 14 30.5t36 12.5z" />
    <glyph glyph-name="kgreenlandic" unicode="&#x138;" horiz-adv-x="519" 
d="M175 122q0 -59 9 -73t43 -18q5 -5 5 -17t-5 -16q-86 2 -91 2q-28 0 -112 -2q-4 4 -4 16t4 17q48 4 60 17.5t12 73.5v195q0 42 -11.5 53t-53.5 15q-6 17 -2 28q95 12 137 29q13 0 13 -7q-4 -64 -4 -114v-86q32 5 65 30q36 26 80 82q35 47 -23 51q-5 4 -5 16t5 17
q74 -2 98 -2q13 0 87 2q4 -5 4 -17t-4 -16q-70 -7 -105 -44l-88 -91q-4 -4 -4 -10q0 -5 7 -14l132 -166q18 -23 36.5 -30.5t49.5 -11.5q4 -5 4 -17t-4 -16q-60 2 -82 2t-62 -2q-2 0 -4 5q-6 21 -42 70l-73 98q-16 21 -32 33q-10 3 -40 5v-87z" />
    <glyph glyph-name="Lacute" unicode="&#x139;" horiz-adv-x="528" 
d="M149 0q-52 0 -130 -2q-5 4 -5 16t5 17q56 2 71.5 16.5t15.5 74.5v401q0 60 -15.5 74.5t-71.5 16.5q-5 4 -5 16t5 17q92 -2 129 -2q40 0 130 2q4 -5 4 -17t-4 -16q-56 -2 -71.5 -16.5t-15.5 -74.5v-414q0 -38 13.5 -54t43.5 -16h63q73 0 109.5 34.5t53.5 96.5q17 3 33 -5
q-10 -87 -26 -167q-92 2 -119 2h-213zM192 819q41 -18 62 -52l-144 -58q-28 -12 -42 -12q-15 0 -15 15q0 11 15 21z" />
    <glyph glyph-name="lacute" unicode="&#x13a;" horiz-adv-x="264" 
d="M95 122v437q0 55 -10 67t-54 15q-11 11 -6 30q89 7 140 27q13 0 13 -10q-4 -40 -4 -105v-461q0 -60 12.5 -74.5t59.5 -16.5q4 -5 4 -17t-4 -16q-66 2 -111 2q-42 0 -112 -2q-5 4 -5 16t5 17q47 2 59.5 16.5t12.5 74.5zM203 847q41 -18 62 -52l-144 -58q-28 -12 -42 -12
q-15 0 -15 15q0 11 15 21z" />
    <glyph glyph-name="uni013B" unicode="&#x13b;" horiz-adv-x="528" 
d="M149 0q-52 0 -130 -2q-5 4 -5 16t5 17q56 2 71.5 16.5t15.5 74.5v401q0 60 -15.5 74.5t-71.5 16.5q-5 4 -5 16t5 17q92 -2 129 -2q40 0 130 2q4 -5 4 -17t-4 -16q-56 -2 -71.5 -16.5t-15.5 -74.5v-414q0 -38 13.5 -54t43.5 -16h63q73 0 109.5 34.5t53.5 96.5q17 3 33 -5
q-10 -87 -26 -167q-92 2 -119 2h-213zM277 -41q28 0 45 -23.5t17 -62.5q0 -42 -29.5 -67t-76.5 -32q-8 8 -8 24q35 8 55 23t20 30q0 23 -31 26q-42 7 -42 39q0 18 14 30.5t36 12.5z" />
    <glyph glyph-name="uni013C" unicode="&#x13c;" horiz-adv-x="264" 
d="M95 122v437q0 55 -10 67t-54 15q-11 11 -6 30q89 7 140 27q13 0 13 -10q-4 -40 -4 -105v-461q0 -60 12.5 -74.5t59.5 -16.5q4 -5 4 -17t-4 -16q-66 2 -111 2q-42 0 -112 -2q-5 4 -5 16t5 17q47 2 59.5 16.5t12.5 74.5zM132 -41q28 0 45 -23.5t17 -62.5q0 -42 -29.5 -67
t-76.5 -32q-8 8 -8 24q35 8 55 23t20 30q0 23 -31 26q-42 7 -42 39q0 18 14 30.5t36 12.5z" />
    <glyph glyph-name="Lcaron" unicode="&#x13d;" horiz-adv-x="528" 
d="M149 0q-52 0 -130 -2q-5 4 -5 16t5 17q56 2 71.5 16.5t15.5 74.5v401q0 60 -15.5 74.5t-71.5 16.5q-5 4 -5 16t5 17q92 -2 129 -2q40 0 130 2q4 -5 4 -17t-4 -16q-56 -2 -71.5 -16.5t-15.5 -74.5v-414q0 -38 13.5 -54t43.5 -16h63q73 0 109.5 34.5t53.5 96.5q17 3 33 -5
q-10 -87 -26 -167q-92 2 -119 2h-213zM400 698q27 0 43.5 -22t16.5 -51q0 -32 -27 -66.5t-75 -39.5l-5 17q29 6 46 27.5t17 41.5q0 21 -14 21q-46 0 -46 38q0 13 11.5 23.5t32.5 10.5z" />
    <glyph glyph-name="lcaron" unicode="&#x13e;" horiz-adv-x="290" 
d="M95 122v437q0 55 -10 67t-54 15q-11 11 -6 30q89 7 140 27q13 0 13 -10q-4 -40 -4 -105v-461q0 -60 12.5 -74.5t59.5 -16.5q4 -5 4 -17t-4 -16q-66 2 -111 2q-42 0 -112 -2q-5 4 -5 16t5 17q47 2 59.5 16.5t12.5 74.5zM265 698q27 0 43.5 -22t16.5 -51q0 -32 -27 -66.5
t-75 -39.5l-5 17q29 6 46 27.5t17 41.5q0 21 -14 21q-46 0 -46 38q0 13 11.5 23.5t32.5 10.5z" />
    <glyph glyph-name="Ldot" unicode="&#x13f;" horiz-adv-x="528" 
d="M149 0q-52 0 -130 -2q-5 4 -5 16t5 17q56 2 71.5 16.5t15.5 74.5v401q0 60 -15.5 74.5t-71.5 16.5q-5 4 -5 16t5 17q92 -2 129 -2q40 0 130 2q4 -5 4 -17t-4 -16q-56 -2 -71.5 -16.5t-15.5 -74.5v-414q0 -38 13.5 -54t43.5 -16h63q73 0 109.5 34.5t53.5 96.5q17 3 33 -5
q-10 -87 -26 -167q-92 2 -119 2h-213zM289 335q0 21 15.5 36.5t36.5 15.5t36.5 -15.5t15.5 -36.5t-15.5 -36.5t-36.5 -15.5t-36.5 15.5t-15.5 36.5z" />
    <glyph glyph-name="ldot" unicode="&#x140;" horiz-adv-x="264" 
d="M95 122v437q0 55 -10 67t-54 15q-11 11 -6 30q89 7 140 27q13 0 13 -10q-4 -40 -4 -105v-461q0 -60 12.5 -74.5t59.5 -16.5q4 -5 4 -17t-4 -16q-66 2 -111 2q-42 0 -112 -2q-5 4 -5 16t5 17q47 2 59.5 16.5t12.5 74.5zM213 360q0 19 14 34t34 15q18 0 32.5 -14.5
t14.5 -34.5q0 -19 -13.5 -33t-33.5 -14q-22 0 -35 14t-13 33z" />
    <glyph glyph-name="Lslash" unicode="&#x141;" horiz-adv-x="528" 
d="M310 449l18 -30l-137 -79v-231q0 -38 13.5 -54t43.5 -16h63q73 0 109.5 34.5t53.5 96.5q17 3 33 -5q-10 -87 -26 -167q-92 2 -119 2h-213q-52 0 -130 -2q-5 4 -5 16t5 17q56 2 71.5 16.5t15.5 74.5v170l-83 -48l-18 31l101 58v190q0 60 -15.5 74.5t-71.5 16.5q-5 4 -5 16
t5 17q92 -2 129 -2q40 0 130 2q4 -5 4 -17t-4 -16q-56 -2 -71.5 -16.5t-15.5 -74.5v-142z" />
    <glyph glyph-name="lslash" unicode="&#x142;" horiz-adv-x="264" 
d="M243 438l17 -30l-86 -50v-236q0 -60 12.5 -74.5t59.5 -16.5q4 -5 4 -17t-4 -16q-66 2 -111 2q-42 0 -112 -2q-5 4 -5 16t5 17q47 2 59.5 16.5t12.5 74.5v190l-72 -42l-17 29l89 52v208q0 55 -10 67t-54 15q-11 11 -6 30q89 7 140 27q13 0 13 -10q-4 -40 -4 -105v-185z
" />
    <glyph glyph-name="Nacute" unicode="&#x143;" horiz-adv-x="699" 
d="M556 512q0 35 -3 53.5t-15 29t-25 13.5t-44 6q-5 4 -5 16t5 17q88 -2 111 -2q30 0 112 2q4 -5 4 -17t-4 -16q-56 -6 -71.5 -22t-15.5 -80v-491q0 -31 -23 -31q-22 0 -40 24l-349 441q-26 33 -34 33t-8 -49v-306q0 -35 3 -53.5t15 -29t25 -13.5t44 -6q4 -5 4 -17t-4 -16
q-84 2 -111 2q-26 0 -112 -2q-5 4 -5 16t5 17q56 6 71.5 22t15.5 80v417q-5 22 -27 42t-52 22q-5 4 -5 16t5 17l135 -2l343 -435q43 -55 48 -55q7 0 7 30v327zM383 820q41 -18 62 -52l-144 -58q-28 -12 -42 -12q-15 0 -15 15q0 11 15 21z" />
    <glyph glyph-name="nacute" unicode="&#x144;" horiz-adv-x="542" 
d="M184 358q70 81 164 81q57 0 83 -34q27 -36 27 -134v-149q0 -59 11.5 -73t55.5 -18q4 -4 4 -16t-4 -17q-60 2 -106 2q-42 0 -102 -2q-4 4 -4 16t4 17q41 4 51.5 18t10.5 73v152q0 53 -12 77q-19 36 -53 36q-61 0 -122 -59q-17 -19 -17 -42v-164q0 -59 10.5 -73t50.5 -18
q4 -5 4 -17t-4 -16q-60 2 -100 2q-50 0 -110 -2q-4 4 -4 16t4 17q47 4 58.5 17.5t11.5 73.5v195q0 42 -11.5 53t-53.5 15q-6 17 -2 28q74 10 123 29q9 0 12 -8q6 -11 8 -76q0 -14 12 0zM314 671q6 2 14 2q31 0 55 -23l3 -11l-115 -109q-19 -19 -30 -19q-5 0 -9.5 4t-4.5 9
q0 10 11 28z" />
    <glyph glyph-name="uni0145" unicode="&#x145;" horiz-adv-x="699" 
d="M556 512q0 35 -3 53.5t-15 29t-25 13.5t-44 6q-5 4 -5 16t5 17q88 -2 111 -2q30 0 112 2q4 -5 4 -17t-4 -16q-56 -6 -71.5 -22t-15.5 -80v-491q0 -31 -23 -31q-22 0 -40 24l-349 441q-26 33 -34 33t-8 -49v-306q0 -35 3 -53.5t15 -29t25 -13.5t44 -6q4 -5 4 -17t-4 -16
q-84 2 -111 2q-26 0 -112 -2q-5 4 -5 16t5 17q56 6 71.5 22t15.5 80v417q-5 22 -27 42t-52 22q-5 4 -5 16t5 17l135 -2l343 -435q43 -55 48 -55q7 0 7 30v327zM358 -41q28 0 45 -23.5t17 -62.5q0 -42 -29.5 -67t-76.5 -32q-8 8 -8 24q35 8 55 23t20 30q0 23 -31 26
q-42 7 -42 39q0 18 14 30.5t36 12.5z" />
    <glyph glyph-name="uni0146" unicode="&#x146;" horiz-adv-x="542" 
d="M184 358q70 81 164 81q57 0 83 -34q27 -36 27 -134v-149q0 -59 11.5 -73t55.5 -18q4 -4 4 -16t-4 -17q-60 2 -106 2q-42 0 -102 -2q-4 4 -4 16t4 17q41 4 51.5 18t10.5 73v152q0 53 -12 77q-19 36 -53 36q-61 0 -122 -59q-17 -19 -17 -42v-164q0 -59 10.5 -73t50.5 -18
q4 -5 4 -17t-4 -16q-60 2 -100 2q-50 0 -110 -2q-4 4 -4 16t4 17q47 4 58.5 17.5t11.5 73.5v195q0 42 -11.5 53t-53.5 15q-6 17 -2 28q74 10 123 29q9 0 12 -8q6 -11 8 -76q0 -14 12 0zM261 -41q28 0 45 -23.5t17 -62.5q0 -42 -29.5 -67t-76.5 -32q-8 8 -8 24q35 8 55 23
t20 30q0 23 -31 26q-42 7 -42 39q0 18 14 30.5t36 12.5z" />
    <glyph glyph-name="Ncaron" unicode="&#x147;" horiz-adv-x="699" 
d="M556 512q0 35 -3 53.5t-15 29t-25 13.5t-44 6q-5 4 -5 16t5 17q88 -2 111 -2q30 0 112 2q4 -5 4 -17t-4 -16q-56 -6 -71.5 -22t-15.5 -80v-491q0 -31 -23 -31q-22 0 -40 24l-349 441q-26 33 -34 33t-8 -49v-306q0 -35 3 -53.5t15 -29t25 -13.5t44 -6q4 -5 4 -17t-4 -16
q-84 2 -111 2q-26 0 -112 -2q-5 4 -5 16t5 17q56 6 71.5 22t15.5 80v417q-5 22 -27 42t-52 22q-5 4 -5 16t5 17l135 -2l343 -435q43 -55 48 -55q7 0 7 30v327zM331 697q-36 45 -101 95l16 20q60 -26 106 -61q57 40 107 61l15 -20q-50 -38 -100 -95h-43z" />
    <glyph glyph-name="ncaron" unicode="&#x148;" horiz-adv-x="542" 
d="M184 358q70 81 164 81q57 0 83 -34q27 -36 27 -134v-149q0 -59 11.5 -73t55.5 -18q4 -4 4 -16t-4 -17q-60 2 -106 2q-42 0 -102 -2q-4 4 -4 16t4 17q41 4 51.5 18t10.5 73v152q0 53 -12 77q-19 36 -53 36q-61 0 -122 -59q-17 -19 -17 -42v-164q0 -59 10.5 -73t50.5 -18
q4 -5 4 -17t-4 -16q-60 2 -100 2q-50 0 -110 -2q-4 4 -4 16t4 17q47 4 58.5 17.5t11.5 73.5v195q0 42 -11.5 53t-53.5 15q-6 17 -2 28q74 10 123 29q9 0 12 -8q6 -11 8 -76q0 -14 12 0zM246 503q-38 62 -101 130l20 13q71 -52 106 -90q38 39 108 90l19 -13
q-67 -75 -102 -130h-50z" />
    <glyph glyph-name="napostrophe" unicode="&#x149;" horiz-adv-x="542" 
d="M197 358q70 81 164 81q57 0 83 -34q27 -36 27 -134v-149q0 -59 11.5 -73t55.5 -18q4 -4 4 -16t-4 -17q-60 2 -106 2q-42 0 -102 -2q-4 4 -4 16t4 17q41 4 51.5 18t10.5 73v152q0 53 -12 77q-19 36 -53 36q-61 0 -122 -59q-17 -19 -17 -42v-164q0 -59 10.5 -73t50.5 -18
q5 -5 5 -17t-5 -16q-60 2 -100 2q-50 0 -110 -2q-5 4 -5 16t5 17q47 4 58.5 17.5t11.5 73.5v195q0 42 -11.5 53t-53.5 15q-6 17 -2 28q74 10 123 29q9 0 12 -8q6 -11 8 -76q0 -14 12 0zM72 698q27 0 43.5 -22t16.5 -51q0 -32 -27 -66.5t-75 -39.5l-5 17q29 6 46 27.5
t17 41.5q0 21 -14 21q-46 0 -46 38q0 13 11.5 23.5t32.5 10.5z" />
    <glyph glyph-name="Eng" unicode="&#x14a;" horiz-adv-x="668" 
d="M182 647q13 0 13 -10q-4 -40 -4 -105v-18l9 7q97 137 212 137q90 0 142 -61q64 -75 64 -268v-216q0 -51 -10 -92t-28 -70t-33 -45.5t-36 -34.5q-50 -43 -117 -43q-22 0 -48.5 15t-26.5 39q0 15 16 29t28 14q11 0 19 -4t11.5 -8t8 -11.5t6.5 -10.5q13 -18 35 -18
q20 0 37 13t32.5 62.5t15.5 132.5v258q0 154 -42 214q-34 49 -110 49q-68 0 -167 -118q-14 -16 -18 -38v-324q0 -60 15.5 -74.5t71.5 -16.5q4 -5 4 -17t-4 -16q-100 2 -129 2q-32 0 -130 -2q-5 4 -5 16t5 17q56 2 71.5 16.5t15.5 74.5v401q0 60 -15.5 74.5t-71.5 16.5
q-5 4 -5 16t5 17q100 -2 129 -2q16 0 34 2z" />
    <glyph glyph-name="eng" unicode="&#x14b;" horiz-adv-x="528" 
d="M175 358q0 -12 9 0q73 81 164 81q57 0 83 -34q27 -36 27 -134v-161q0 -135 -18.5 -201.5t-56.5 -97.5q-41 -34 -110 -34q-18 0 -36.5 11.5t-18.5 31.5q0 13 11.5 25.5t20.5 12.5q5 0 10 -1.5t8.5 -3t8 -5t6.5 -5t6 -6t5 -5.5q11 -11 31 -11q34 0 44 66t10 189v198
q0 53 -12 77q-19 36 -53 36q-61 0 -122 -59q-17 -19 -17 -42v-164q0 -59 10 -73t50 -18q5 -5 5 -17t-5 -16q-84 2 -99 2q-28 0 -110 -2q-4 4 -4 16t4 17q47 4 58.5 17.5t11.5 73.5v195q0 42 -11.5 53t-53.5 15q-6 17 -2 28q78 10 126 29q9 0 12 -8q8 -16 8 -76z" />
    <glyph glyph-name="Omacron" unicode="&#x14c;" horiz-adv-x="702" 
d="M331 622q-82 0 -140 -74t-58 -221q0 -138 70 -219.5t167 -81.5q88 0 144 76.5t56 207.5q0 146 -68 229t-171 83zM666 329q0 -125 -62 -213q-89 -126 -254 -126q-132 0 -222.5 88t-90.5 232q0 150 82.5 249t224.5 99q139 0 230.5 -89t91.5 -240zM458 745h-224
q-13 0 -13 18q0 10 7 21t15 11h225q14 0 14 -17q0 -10 -7.5 -21.5t-16.5 -11.5z" />
    <glyph glyph-name="omacron" unicode="&#x14d;" horiz-adv-x="504" 
d="M41 205q0 98 55 164q60 70 157 70q72 0 121.5 -35.5t69 -84.5t19.5 -105q0 -104 -65 -168q-58 -56 -147 -56q-100 0 -155 65t-55 150zM238 404q-111 0 -111 -176q0 -32 7.5 -65t22.5 -65t43 -52.5t65 -20.5q44 0 78 36t34 121q0 107 -37 164.5t-102 57.5zM360 518h-224
q-13 0 -13 18q0 10 7 21t15 11h225q14 0 14 -17q0 -10 -7.5 -21.5t-16.5 -11.5z" />
    <glyph glyph-name="Obreve" unicode="&#x14e;" horiz-adv-x="702" 
d="M331 622q-82 0 -140 -74t-58 -221q0 -138 70 -219.5t167 -81.5q88 0 144 76.5t56 207.5q0 146 -68 229t-171 83zM666 329q0 -125 -62 -213q-89 -126 -254 -126q-132 0 -222.5 88t-90.5 232q0 150 82.5 249t224.5 99q139 0 230.5 -89t91.5 -240zM490 805q-4 -51 -44 -82
t-92 -31q-56 0 -94 30.5t-42 82.5h28q6 -28 36.5 -44.5t71.5 -16.5q39 0 71 16.5t37 44.5h28z" />
    <glyph glyph-name="obreve" unicode="&#x14f;" horiz-adv-x="504" 
d="M41 205q0 98 55 164q60 70 157 70q72 0 121.5 -35.5t69 -84.5t19.5 -105q0 -104 -65 -168q-58 -56 -147 -56q-100 0 -155 65t-55 150zM238 404q-111 0 -111 -176q0 -32 7.5 -65t22.5 -65t43 -52.5t65 -20.5q44 0 78 36t34 121q0 107 -37 164.5t-102 57.5zM131 645
q8 -40 38 -65t70 -25t70.5 24t37.5 66l27 -12q-9 -62 -48.5 -98.5t-86.5 -36.5q-53 0 -89 35.5t-46 99.5z" />
    <glyph glyph-name="Ohungarumlaut" unicode="&#x150;" horiz-adv-x="702" 
d="M331 622q-82 0 -140 -74t-58 -221q0 -138 70 -219.5t167 -81.5q88 0 144 76.5t56 207.5q0 146 -68 229t-171 83zM666 329q0 -125 -62 -213q-89 -126 -254 -126q-132 0 -222.5 88t-90.5 232q0 150 82.5 249t224.5 99q139 0 230.5 -89t91.5 -240zM503 792q0 -13 -7 -20
l-99 -84q-3 -3 -8 -3q-4 0 -8.5 3.5t-4.5 9.5q0 4 4 11l59 109q8 12 23 12q20 0 30.5 -12t10.5 -26zM372 797q0 -13 -7 -19l-88 -80q-8 -8 -14 -8q-13 0 -13 12q0 3 2 11l55 110q7 12 27 12q13 0 25.5 -11t12.5 -27z" />
    <glyph glyph-name="ohungarumlaut" unicode="&#x151;" horiz-adv-x="504" 
d="M41 205q0 98 55 164q60 70 157 70q72 0 121.5 -35.5t69 -84.5t19.5 -105q0 -104 -65 -168q-58 -56 -147 -56q-100 0 -155 65t-55 150zM238 404q-111 0 -111 -176q0 -32 7.5 -65t22.5 -65t43 -52.5t65 -20.5q44 0 78 36t34 121q0 107 -37 164.5t-102 57.5zM397 611
q0 -12 -7 -19l-114 -110q-2 -2 -6 -2t-9 4t-5 9q0 3 1 4l78 139q7 12 24 12q15 0 26.5 -11t11.5 -26zM265 617q0 -10 -5 -16l-102 -121q-3 -3 -8 -3q-14 0 -14 13q0 2 1 3l64 146q6 14 26 14q16 0 27 -10.5t11 -25.5z" />
    <glyph glyph-name="OE" unicode="&#x152;" horiz-adv-x="869" 
d="M356 32h13q29 0 39 9t10 31v502q0 23 -10 30t-39 7h-35q-83 0 -140.5 -68t-57.5 -216q0 -144 66.5 -219.5t153.5 -75.5zM358 -2q-139 1 -227.5 92t-88.5 228q0 139 84.5 233.5t220.5 94.5q70 -1 114 -1h78h257l14 -139l-27 -3q-6 37 -31.5 69.5t-61.5 32.5h-151
q-36 0 -36 -32v-207h103q25 0 35 10t16 34l7 30q0 8 7 8h22q3 0 3 -4q-1 -11 -4.5 -43.5t-3.5 -51.5q0 -11 8 -96l-2 -3h-23q-8 0 -8 7l-6 31q-5 23 -16 33.5t-35 10.5h-103v-260q0 -33 36 -33h155q83 0 109 126l27 -5l-26 -160h-344z" />
    <glyph glyph-name="oe" unicode="&#x153;" horiz-adv-x="778" 
d="M409 349q27 40 69.5 65t91.5 25q86 0 128.5 -50t42.5 -141h-290q-1 -9 -1 -30q0 -47 15 -84t37 -57t43 -30t37 -10q32 0 70 13.5t60 36.5q13 -1 22 -15q-60 -82 -163 -82q-115 0 -168 89q-59 -89 -164 -89q-91 0 -148 61.5t-57 154.5q0 112 60 172.5t149 60.5
q69 0 104.5 -23.5t61.5 -66.5zM120 237q0 -90 33.5 -151t99.5 -61q45 0 79.5 40t34.5 135q0 103 -41 154.5t-84 51.5q-48 0 -77 -29.5t-37 -64t-8 -75.5zM655 287q-3 118 -87 118q-39 0 -67 -28t-36.5 -51.5t-10.5 -38.5h201z" />
    <glyph glyph-name="Racute" unicode="&#x154;" horiz-adv-x="587" 
d="M272 618q-83 0 -83 -64v-229h48q81 0 124.5 33t43.5 120q0 140 -133 140zM189 122q0 -60 15.5 -74.5t71.5 -16.5q4 -5 4 -17t-4 -16q-88 2 -129 2q-40 0 -130 -2q-5 4 -5 16t5 17q56 2 71.5 16.5t15.5 74.5v401q0 60 -15.5 74.5t-71.5 16.5q-5 4 -5 16t5 17q94 -2 129 -2
q17 0 58.5 3.5t66.5 3.5q59 0 100 -9t73 -39q53 -50 53 -125q0 -69 -43.5 -112.5t-89.5 -58.5l126 -210q23 -38 44 -57.5t52 -19.5q6 -12 1 -24q-14 -7 -42 -7q-77 0 -132 89l-107 174q-12 20 -35.5 29t-81.5 9v-169zM312 820q41 -18 62 -52l-144 -58q-28 -12 -42 -12
q-15 0 -15 15q0 11 15 21z" />
    <glyph glyph-name="racute" unicode="&#x155;" horiz-adv-x="372" 
d="M176 358q0 -5 3 -7t8 5q20 34 49.5 58.5t61.5 24.5q29 0 44.5 -15.5t15.5 -32.5q0 -19 -14.5 -34.5t-32.5 -15.5q-20 0 -36 23q-9 13 -26 13q-12 0 -46 -49q-24 -36 -24 -67v-139q0 -60 13.5 -73.5t68.5 -17.5q5 -5 5 -17t-5 -16q-70 2 -121 2q-44 0 -114 -2q-4 4 -4 16
t4 17q49 3 61.5 17t12.5 74v195q0 42 -11.5 53t-53.5 15q-6 17 -2 28q74 10 123 29q9 0 12 -8q5 -9 8 -76zM241 671q6 2 14 2q31 0 55 -23l3 -11l-115 -109q-19 -19 -30 -19q-5 0 -9.5 4t-4.5 9q0 10 11 28z" />
    <glyph glyph-name="uni0156" unicode="&#x156;" horiz-adv-x="587" 
d="M272 618q-83 0 -83 -64v-229h48q81 0 124.5 33t43.5 120q0 140 -133 140zM189 122q0 -60 15.5 -74.5t71.5 -16.5q4 -5 4 -17t-4 -16q-88 2 -129 2q-40 0 -130 -2q-5 4 -5 16t5 17q56 2 71.5 16.5t15.5 74.5v401q0 60 -15.5 74.5t-71.5 16.5q-5 4 -5 16t5 17q94 -2 129 -2
q17 0 58.5 3.5t66.5 3.5q59 0 100 -9t73 -39q53 -50 53 -125q0 -69 -43.5 -112.5t-89.5 -58.5l126 -210q23 -38 44 -57.5t52 -19.5q6 -12 1 -24q-14 -7 -42 -7q-77 0 -132 89l-107 174q-12 20 -35.5 29t-81.5 9v-169zM310 -41q28 0 45 -23.5t17 -62.5q0 -42 -29.5 -67
t-76.5 -32q-8 8 -8 24q35 8 55 23t20 30q0 23 -31 26q-42 7 -42 39q0 18 14 30.5t36 12.5z" />
    <glyph glyph-name="uni0157" unicode="&#x157;" horiz-adv-x="372" 
d="M176 358q0 -5 3 -7t8 5q20 34 49.5 58.5t61.5 24.5q29 0 44.5 -15.5t15.5 -32.5q0 -19 -14.5 -34.5t-32.5 -15.5q-20 0 -36 23q-9 13 -26 13q-12 0 -46 -49q-24 -36 -24 -67v-139q0 -60 13.5 -73.5t68.5 -17.5q5 -5 5 -17t-5 -16q-70 2 -121 2q-44 0 -114 -2q-4 4 -4 16
t4 17q49 3 61.5 17t12.5 74v195q0 42 -11.5 53t-53.5 15q-6 17 -2 28q74 10 123 29q9 0 12 -8q5 -9 8 -76zM137 -41q28 0 45 -23.5t17 -62.5q0 -42 -29.5 -67t-76.5 -32q-8 8 -8 24q35 8 55 23t20 30q0 23 -31 26q-42 7 -42 39q0 18 14 30.5t36 12.5z" />
    <glyph glyph-name="Rcaron" unicode="&#x158;" horiz-adv-x="587" 
d="M272 618q-83 0 -83 -64v-229h48q81 0 124.5 33t43.5 120q0 140 -133 140zM189 122q0 -60 15.5 -74.5t71.5 -16.5q4 -5 4 -17t-4 -16q-88 2 -129 2q-40 0 -130 -2q-5 4 -5 16t5 17q56 2 71.5 16.5t15.5 74.5v401q0 60 -15.5 74.5t-71.5 16.5q-5 4 -5 16t5 17q94 -2 129 -2
q17 0 58.5 3.5t66.5 3.5q59 0 100 -9t73 -39q53 -50 53 -125q0 -69 -43.5 -112.5t-89.5 -58.5l126 -210q23 -38 44 -57.5t52 -19.5q6 -12 1 -24q-14 -7 -42 -7q-77 0 -132 89l-107 174q-12 20 -35.5 29t-81.5 9v-169zM244 697q-36 45 -101 95l16 20q60 -26 106 -61
q57 40 107 61l15 -20q-50 -38 -100 -95h-43z" />
    <glyph glyph-name="rcaron" unicode="&#x159;" horiz-adv-x="372" 
d="M176 358q0 -5 3 -7t8 5q20 34 49.5 58.5t61.5 24.5q29 0 44.5 -15.5t15.5 -32.5q0 -19 -14.5 -34.5t-32.5 -15.5q-20 0 -36 23q-9 13 -26 13q-12 0 -46 -49q-24 -36 -24 -67v-139q0 -60 13.5 -73.5t68.5 -17.5q5 -5 5 -17t-5 -16q-70 2 -121 2q-44 0 -114 -2q-4 4 -4 16
t4 17q49 3 61.5 17t12.5 74v195q0 42 -11.5 53t-53.5 15q-6 17 -2 28q74 10 123 29q9 0 12 -8q5 -9 8 -76zM175 503q-38 62 -101 130l20 13q71 -52 106 -90q38 39 108 90l19 -13q-67 -75 -102 -130h-50z" />
    <glyph glyph-name="Sacute" unicode="&#x15a;" horiz-adv-x="485" 
d="M395 631q13 -69 18 -129q-13 -10 -33 -6q-18 60 -50 94t-98 34q-44 0 -77 -34.5t-33 -77.5q0 -24 11.5 -45.5t26.5 -35t40.5 -27.5t41 -20.5t40.5 -15.5q74 -28 118 -70t44 -114q0 -48 -25 -91t-69 -70q-52 -33 -123 -33q-48 0 -100 11.5t-80 11.5q-15 63 -20 152
q16 8 33 3q31 -142 175 -142q60 0 92.5 31.5t32.5 91.5q0 35 -11 60.5t-35 43t-40.5 25.5t-47.5 20q-81 31 -128 73.5t-47 113.5q0 77 55.5 125t134.5 48q57 0 98.5 -12.5t55.5 -14.5zM282 820q41 -18 62 -52l-144 -58q-28 -12 -42 -12q-15 0 -15 15q0 11 15 21z" />
    <glyph glyph-name="sacute" unicode="&#x15b;" horiz-adv-x="390" 
d="M48 138q5 5 15.5 5t15.5 -4q16 -68 39 -92q22 -24 71 -24q32 0 58.5 18t26.5 52q0 33 -20.5 53t-81.5 45q-60 25 -85 54t-25 82q0 47 42 79.5t99 32.5q23 0 47 -3.5t50.5 -9t33.5 -6.5q-2 -53 -6 -106q-5 -5 -16 -5t-16 4q-5 30 -16.5 50t-27 28.5t-27 11.5t-22.5 3
q-27 0 -48.5 -17.5t-21.5 -46.5q0 -20 6 -34t22.5 -25t29.5 -17t42 -17q117 -43 117 -133q0 -35 -16.5 -61t-42.5 -39.5t-51 -19.5t-49 -6q-49 0 -91 11q-7 2 -20 2q-10 0 -25 -3q0 52 -7 138zM227 671q6 2 14 2q31 0 55 -23l3 -11l-115 -109q-19 -19 -30 -19q-5 0 -9.5 4
t-4.5 9q0 10 11 28z" />
    <glyph glyph-name="Scircumflex" unicode="&#x15c;" horiz-adv-x="485" 
d="M395 631q13 -69 18 -129q-13 -10 -33 -6q-18 60 -50 94t-98 34q-44 0 -77 -34.5t-33 -77.5q0 -24 11.5 -45.5t26.5 -35t40.5 -27.5t41 -20.5t40.5 -15.5q74 -28 118 -70t44 -114q0 -48 -25 -91t-69 -70q-52 -33 -123 -33q-48 0 -100 11.5t-80 11.5q-15 63 -20 152
q16 8 33 3q31 -142 175 -142q60 0 92.5 31.5t32.5 91.5q0 35 -11 60.5t-35 43t-40.5 25.5t-47.5 20q-81 31 -128 73.5t-47 113.5q0 77 55.5 125t134.5 48q57 0 98.5 -12.5t55.5 -14.5zM248 815q44 -53 103 -97q-5 -16 -16 -21q-65 30 -106 61q-47 -34 -107 -61q-11 7 -14 21
q41 31 101 97q19 11 39 0z" />
    <glyph glyph-name="scircumflex" unicode="&#x15d;" horiz-adv-x="390" 
d="M48 138q5 5 15.5 5t15.5 -4q16 -68 39 -92q22 -24 71 -24q32 0 58.5 18t26.5 52q0 33 -20.5 53t-81.5 45q-60 25 -85 54t-25 82q0 47 42 79.5t99 32.5q23 0 47 -3.5t50.5 -9t33.5 -6.5q-2 -53 -6 -106q-5 -5 -16 -5t-16 4q-5 30 -16.5 50t-27 28.5t-27 11.5t-22.5 3
q-27 0 -48.5 -17.5t-21.5 -46.5q0 -20 6 -34t22.5 -25t29.5 -17t42 -17q117 -43 117 -133q0 -35 -16.5 -61t-42.5 -39.5t-51 -19.5t-49 -6q-49 0 -91 11q-7 2 -20 2q-10 0 -25 -3q0 52 -7 138zM211 660q37 -60 109 -140q-10 -14 -23 -17q-58 37 -103 83q-56 -56 -104 -83
q-13 3 -22 17q76 84 111 140q19 3 32 0z" />
    <glyph glyph-name="Scedilla" unicode="&#x15e;" horiz-adv-x="485" 
d="M220 -96q-26 0 -45 -6l-6 6l36 87q-36 2 -82.5 12t-75.5 10q-15 63 -20 152q16 8 32 3q32 -142 176 -142q60 0 92.5 31.5t32.5 91.5q0 35 -11 60.5t-35 43t-41 25.5t-48 20q-80 31 -127 73.5t-47 113.5q0 77 55.5 125t134.5 48q57 0 98.5 -12.5t55.5 -14.5
q13 -71 17 -129q-13 -10 -32 -6q-18 60 -50 94t-98 34q-44 0 -77 -34.5t-33 -77.5q0 -24 11.5 -45.5t26.5 -35t40.5 -27.5t41 -20.5t40.5 -15.5q74 -28 118 -70t44 -114q0 -48 -25 -91t-69 -70q-48 -30 -111 -33l-21 -57q12 3 26 3q31 0 51 -17t20 -45q0 -32 -30.5 -53
t-76.5 -21q-35 0 -74 17q0 16 10 26q38 -14 58 -14q23 0 37 10.5t14 29.5q0 35 -33 35z" />
    <glyph glyph-name="scedilla" unicode="&#x15f;" horiz-adv-x="390" 
d="M48 138q5 5 15.5 5t15.5 -4q16 -68 39 -92q22 -24 71 -24q32 0 58.5 18t26.5 52q0 33 -20.5 53t-81.5 45q-60 25 -85 54t-25 82q0 47 42 79.5t99 32.5q23 0 47 -3.5t50.5 -9t33.5 -6.5q-2 -53 -6 -106q-5 -5 -16 -5t-16 4q-5 30 -16.5 50t-27 28.5t-27 11.5t-22.5 3
q-27 0 -48.5 -17.5t-21.5 -46.5q0 -20 6 -34t22.5 -25t29.5 -17t42 -17q117 -43 117 -133q0 -33 -14.5 -58t-38 -38.5t-47 -20.5t-47.5 -9l-21 -57q12 3 26 3q31 0 51 -17t20 -45q0 -32 -30.5 -53t-76.5 -21q-35 0 -74 17q0 16 10 26q38 -14 58 -14q23 0 37 10.5t14 29.5
q0 35 -33 35q-26 0 -45 -6l-6 6l36 86q-34 3 -69 11q-7 2 -20 2q-10 0 -25 -3q0 52 -7 138z" />
    <glyph glyph-name="Scaron" unicode="&#x160;" horiz-adv-x="485" 
d="M395 631q13 -69 18 -129q-13 -10 -33 -6q-18 60 -50 94t-98 34q-44 0 -77 -34.5t-33 -77.5q0 -24 11.5 -45.5t26.5 -35t40.5 -27.5t41 -20.5t40.5 -15.5q74 -28 118 -70t44 -114q0 -48 -25 -91t-69 -70q-52 -33 -123 -33q-48 0 -100 11.5t-80 11.5q-15 63 -20 152
q16 8 33 3q31 -142 175 -142q60 0 92.5 31.5t32.5 91.5q0 35 -11 60.5t-35 43t-40.5 25.5t-47.5 20q-81 31 -128 73.5t-47 113.5q0 77 55.5 125t134.5 48q57 0 98.5 -12.5t55.5 -14.5zM215 697q-36 45 -101 95l16 20q60 -26 106 -61q57 40 107 61l15 -20q-50 -38 -100 -95
h-43z" />
    <glyph glyph-name="scaron" unicode="&#x161;" horiz-adv-x="390" 
d="M48 138q5 5 15.5 5t15.5 -4q16 -68 39 -92q22 -24 71 -24q32 0 58.5 18t26.5 52q0 33 -20.5 53t-81.5 45q-60 25 -85 54t-25 82q0 47 42 79.5t99 32.5q23 0 47 -3.5t50.5 -9t33.5 -6.5q-2 -53 -6 -106q-5 -5 -16 -5t-16 4q-5 30 -16.5 50t-27 28.5t-27 11.5t-22.5 3
q-27 0 -48.5 -17.5t-21.5 -46.5q0 -20 6 -34t22.5 -25t29.5 -17t42 -17q117 -43 117 -133q0 -35 -16.5 -61t-42.5 -39.5t-51 -19.5t-49 -6q-49 0 -91 11q-7 2 -20 2q-10 0 -25 -3q0 52 -7 138zM169 502q-38 62 -101 130l20 13q71 -52 106 -90q38 39 108 90l19 -13
q-67 -75 -102 -130h-50z" />
    <glyph glyph-name="uni0162" unicode="&#x162;" horiz-adv-x="597" 
d="M309 -96q-26 0 -45 -6l-6 6l40 96q-40 0 -130 -2q-4 4 -4 16t4 17q63 2 80 16.5t17 74.5v385q0 49 -10.5 74t-36.5 25h-49q-52 0 -85 -24t-47 -82q-21 0 -34 5q20 86 25 145q0 3 4 3q101 -8 233 -8h86q133 0 224 8q3 0 3 -3q1 -66 13 -142q-11 -5 -34 -5q-12 56 -46 79.5
t-93 23.5h-22q-26 0 -36 -25.5t-10 -76.5v-382q0 -60 17 -74.5t80 -16.5q5 -5 5 -17t-5 -16q-80 2 -115 2l-25 -67q12 3 26 3q31 0 51 -17t20 -45q0 -32 -30.5 -53t-76.5 -21q-35 0 -74 17q0 16 10 26q38 -14 58 -14q23 0 37 10.5t14 29.5q0 35 -33 35z" />
    <glyph glyph-name="uni0163" unicode="&#x163;" horiz-adv-x="316" 
d="M168 -96q-26 0 -45 -6l-6 6l36 87q-64 8 -64 98v301h-59q-5 0 -5 6v13q0 20 18 20h46q0 38 -0.5 63t-1 32.5t-1 12.5t-0.5 8q0 7 22 14q19 4 34 14q16 9 22 9q8 0 8 -9q-4 -40 -4 -105v-39h120q8 0 8 -6v-20q0 -13 -24 -13h-104v-253q0 -49 7 -70.5t26 -21.5q46 0 82 28
q15 -1 18 -17q-50 -56 -113 -64l-22 -59q12 3 26 3q31 0 51 -17t20 -45q0 -32 -30.5 -53t-76.5 -21q-35 0 -74 17q0 16 10 26q38 -14 58 -14q23 0 37 10.5t14 29.5q0 35 -33 35z" />
    <glyph glyph-name="Tcaron" unicode="&#x164;" horiz-adv-x="597" 
d="M350 122q0 -60 17 -74.5t80 -16.5q5 -5 5 -17t-5 -16q-100 2 -139 2q-42 0 -140 -2q-4 4 -4 16t4 17q63 2 80 16.5t17 74.5v385q0 49 -10.5 74t-36.5 25h-49q-52 0 -85 -24t-47 -82q-21 0 -34 5q20 86 25 145q0 3 4 3q101 -8 233 -8h86q133 0 224 8q3 0 3 -3
q1 -66 13 -142q-11 -5 -34 -5q-12 56 -46 79.5t-93 23.5h-22q-26 0 -36 -25.5t-10 -76.5v-382zM277 697q-36 45 -101 95l16 20q60 -26 106 -61q57 40 107 61l15 -20q-50 -38 -100 -95h-43z" />
    <glyph glyph-name="tcaron" unicode="&#x165;" horiz-adv-x="374" 
d="M43 429h46q0 38 -0.5 63t-1 32.5t-1 12.5t-0.5 8q0 7 22 14q20 5 34 14q16 9 22 9q8 0 8 -9q-4 -40 -4 -105v-39h120q8 0 8 -6v-20q0 -13 -24 -13h-104v-253q0 -49 7 -70.5t26 -21.5q46 0 82 28q15 -1 18 -17q-59 -66 -135 -66q-77 0 -77 99v301h-59q-5 0 -5 6v13
q0 20 18 20zM266 698q27 0 43.5 -22t16.5 -51q0 -32 -27 -66.5t-75 -39.5l-5 17q29 6 46 27.5t17 41.5q0 21 -14 21q-46 0 -46 38q0 13 11.5 23.5t32.5 10.5z" />
    <glyph glyph-name="Tbar" unicode="&#x166;" horiz-adv-x="597" 
d="M350 122q0 -60 17 -74.5t80 -16.5q5 -5 5 -17t-5 -16q-100 2 -139 2q-42 0 -140 -2q-4 4 -4 16t4 17q63 2 80 16.5t17 74.5v199h-124q-11 0 -11 14q0 8 6 16.5t13 8.5h116v147q0 49 -10.5 74t-36.5 25h-49q-52 0 -85 -24t-47 -82q-21 0 -34 5q20 86 25 145q0 3 4 3
q101 -8 233 -8h86q133 0 224 8q3 0 3 -3q1 -66 13 -142q-11 -5 -34 -5q-12 56 -46 79.5t-93 23.5h-22q-26 0 -36 -25.5t-10 -76.5v-144h136q12 0 12 -13q0 -9 -6 -17.5t-15 -8.5h-127v-199z" />
    <glyph glyph-name="tbar" unicode="&#x167;" horiz-adv-x="316" 
d="M43 429h46q0 38 -0.5 63t-1 32.5t-1 12.5t-0.5 8q0 7 22 14q15 4 34 14q16 9 22 9q8 0 8 -9q-4 -40 -4 -105v-39h120q8 0 8 -6v-20q0 -13 -24 -13h-104v-106h100q12 0 12 -13q0 -9 -6 -17.5t-15 -8.5h-91v-108q0 -49 7 -70.5t26 -21.5q46 0 82 28q15 -1 18 -17
q-59 -66 -135 -66q-77 0 -77 99v156h-59q-11 0 -11 14q0 8 6 16.5t13 8.5h51v106h-59q-5 0 -5 6v13q0 20 18 20z" />
    <glyph glyph-name="Utilde" unicode="&#x168;" horiz-adv-x="661" 
d="M172 523v-257q0 -42 2 -69t14 -62t35 -57q49 -47 119 -47q49 0 84 15.5t54 38t30 58t13.5 65t2.5 69.5v246q0 31 -3 47.5t-15.5 26t-26.5 12t-47 5.5q-4 4 -4 16t4 17q92 -2 116 -2q26 0 102 2q4 -5 4 -17t-4 -16q-49 -6 -63 -20t-14 -71v-228q0 -71 -11 -123.5
t-38.5 -95t-78.5 -64.5t-126 -22q-34 0 -64 5.5t-62.5 21.5t-55 42t-37.5 70.5t-15 103.5v290q0 59 -14.5 74t-62.5 17q-4 4 -4 16t4 17q78 -2 119 -2t135 2q4 -5 4 -17t-4 -16q-60 -2 -76 -16.5t-16 -74.5zM413 745q17 0 27 10.5t20 41.5q16 1 27 -6q-20 -99 -87 -99
q-6 0 -12.5 1.5t-14 5.5t-12 7t-13 9.5t-12.5 8.5q-31 19 -54 19q-19 0 -28.5 -11t-17.5 -37q-19 -3 -27 5q23 98 80 98q9 0 16.5 -2t16.5 -6.5t13 -7t14 -10t12 -8.5q25 -19 52 -19z" />
    <glyph glyph-name="utilde" unicode="&#x169;" horiz-adv-x="531" 
d="M217 -10q-69 0 -99 38.5t-30 97.5v192q0 47 -12.5 62t-49.5 18q-4 4 -4 16t4 17q68 -2 102 -2q25 0 35 2q8 0 8 -6q-4 -73 -4 -103v-182q0 -59 24.5 -81t55.5 -22q45 0 100 48q16 14 16 39v193q0 48 -12 63.5t-50 17.5q-5 4 -5 16t5 17q68 -2 102 -2q25 0 35 2q8 0 8 -6
q-4 -73 -4 -103v-192q0 -39 13.5 -54t59.5 -19q5 -5 5 -14t-5 -13q-80 -9 -118 -40q-11 -3 -19 0q-8 34 -11 59q-1 5 -6 4.5t-9 -3.5q-73 -60 -135 -60zM324 573q17 0 27 10.5t20 41.5q16 1 27 -6q-20 -99 -87 -99q-6 0 -12.5 1.5t-14 5.5t-12 7t-13 9.5t-12.5 8.5
q-31 19 -54 19q-19 0 -28.5 -11t-17.5 -37q-19 -3 -27 5q23 98 80 98q9 0 16.5 -2t16.5 -6.5t13 -7t14 -10t12 -8.5q25 -19 52 -19z" />
    <glyph glyph-name="Umacron" unicode="&#x16a;" horiz-adv-x="661" 
d="M172 523v-257q0 -42 2 -69t14 -62t35 -57q49 -47 119 -47q49 0 84 15.5t54 38t30 58t13.5 65t2.5 69.5v246q0 31 -3 47.5t-15.5 26t-26.5 12t-47 5.5q-4 4 -4 16t4 17q92 -2 116 -2q26 0 102 2q4 -5 4 -17t-4 -16q-49 -6 -63 -20t-14 -71v-228q0 -71 -11 -123.5
t-38.5 -95t-78.5 -64.5t-126 -22q-34 0 -64 5.5t-62.5 21.5t-55 42t-37.5 70.5t-15 103.5v290q0 59 -14.5 74t-62.5 17q-4 4 -4 16t4 17q78 -2 119 -2t135 2q4 -5 4 -17t-4 -16q-60 -2 -76 -16.5t-16 -74.5zM453 744h-224q-13 0 -13 18q0 10 7 21t15 11h225q14 0 14 -17
q0 -10 -7.5 -21.5t-16.5 -11.5z" />
    <glyph glyph-name="umacron" unicode="&#x16b;" horiz-adv-x="531" 
d="M217 -10q-69 0 -99 38.5t-30 97.5v192q0 47 -12.5 62t-49.5 18q-4 4 -4 16t4 17q68 -2 102 -2q25 0 35 2q8 0 8 -6q-4 -73 -4 -103v-182q0 -59 24.5 -81t55.5 -22q45 0 100 48q16 14 16 39v193q0 48 -12 63.5t-50 17.5q-5 4 -5 16t5 17q68 -2 102 -2q25 0 35 2q8 0 8 -6
q-4 -73 -4 -103v-192q0 -39 13.5 -54t59.5 -19q5 -5 5 -14t-5 -13q-80 -9 -118 -40q-11 -3 -19 0q-8 34 -11 59q-1 5 -6 4.5t-9 -3.5q-73 -60 -135 -60zM363 518h-224q-13 0 -13 18q0 10 7 21t15 11h225q14 0 14 -17q0 -10 -7.5 -21.5t-16.5 -11.5z" />
    <glyph glyph-name="Ubreve" unicode="&#x16c;" horiz-adv-x="661" 
d="M172 523v-257q0 -42 2 -69t14 -62t35 -57q49 -47 119 -47q49 0 84 15.5t54 38t30 58t13.5 65t2.5 69.5v246q0 31 -3 47.5t-15.5 26t-26.5 12t-47 5.5q-4 4 -4 16t4 17q92 -2 116 -2q26 0 102 2q4 -5 4 -17t-4 -16q-49 -6 -63 -20t-14 -71v-228q0 -71 -11 -123.5
t-38.5 -95t-78.5 -64.5t-126 -22q-34 0 -64 5.5t-62.5 21.5t-55 42t-37.5 70.5t-15 103.5v290q0 59 -14.5 74t-62.5 17q-4 4 -4 16t4 17q78 -2 119 -2t135 2q4 -5 4 -17t-4 -16q-60 -2 -76 -16.5t-16 -74.5zM484 804q-4 -51 -44 -82t-92 -31q-56 0 -94 30.5t-42 82.5h28
q6 -28 36.5 -44.5t71.5 -16.5q39 0 71 16.5t37 44.5h28z" />
    <glyph glyph-name="ubreve" unicode="&#x16d;" horiz-adv-x="531" 
d="M217 -10q-69 0 -99 38.5t-30 97.5v192q0 47 -12.5 62t-49.5 18q-4 4 -4 16t4 17q68 -2 102 -2q25 0 35 2q8 0 8 -6q-4 -73 -4 -103v-182q0 -59 24.5 -81t55.5 -22q45 0 100 48q16 14 16 39v193q0 48 -12 63.5t-50 17.5q-5 4 -5 16t5 17q68 -2 102 -2q25 0 35 2q8 0 8 -6
q-4 -73 -4 -103v-192q0 -39 13.5 -54t59.5 -19q5 -5 5 -14t-5 -13q-80 -9 -118 -40q-11 -3 -19 0q-8 34 -11 59q-1 5 -6 4.5t-9 -3.5q-73 -60 -135 -60zM141 646q8 -40 38 -65t70 -25t70.5 24t37.5 66l27 -12q-9 -62 -48.5 -98.5t-86.5 -36.5q-53 0 -89 35.5t-46 99.5z" />
    <glyph glyph-name="Uring" unicode="&#x16e;" horiz-adv-x="661" 
d="M172 523v-257q0 -42 2 -69t14 -62t35 -57q49 -47 119 -47q49 0 84 15.5t54 38t30 58t13.5 65t2.5 69.5v246q0 31 -3 47.5t-15.5 26t-26.5 12t-47 5.5q-4 4 -4 16t4 17q92 -2 116 -2q26 0 102 2q4 -5 4 -17t-4 -16q-49 -6 -63 -20t-14 -71v-228q0 -71 -11 -123.5
t-38.5 -95t-78.5 -64.5t-126 -22q-34 0 -64 5.5t-62.5 21.5t-55 42t-37.5 70.5t-15 103.5v290q0 59 -14.5 74t-62.5 17q-4 4 -4 16t4 17q78 -2 119 -2t135 2q4 -5 4 -17t-4 -16q-60 -2 -76 -16.5t-16 -74.5zM347 776q-23 0 -35.5 -15t-12.5 -38q0 -22 13 -37.5t35 -15.5
t35 15.5t13 37.5q0 24 -13 38.5t-35 14.5zM259 723q0 34 26.5 59.5t61.5 25.5t61.5 -25t26.5 -60q0 -34 -26 -59.5t-62 -25.5q-35 0 -61.5 25.5t-26.5 59.5z" />
    <glyph glyph-name="uring" unicode="&#x16f;" horiz-adv-x="531" 
d="M217 -10q-69 0 -99 38.5t-30 97.5v192q0 47 -12.5 62t-49.5 18q-4 4 -4 16t4 17q68 -2 102 -2q25 0 35 2q8 0 8 -6q-4 -73 -4 -103v-182q0 -59 24.5 -81t55.5 -22q45 0 100 48q16 14 16 39v193q0 48 -12 63.5t-50 17.5q-5 4 -5 16t5 17q68 -2 102 -2q25 0 35 2q8 0 8 -6
q-4 -73 -4 -103v-192q0 -39 13.5 -54t59.5 -19q5 -5 5 -14t-5 -13q-80 -9 -118 -40q-11 -3 -19 0q-8 34 -11 59q-1 5 -6 4.5t-9 -3.5q-73 -60 -135 -60zM242 636q-23 0 -35.5 -15t-12.5 -38q0 -22 13 -37.5t35 -15.5t35 15.5t13 37.5q0 24 -13 38.5t-35 14.5zM154 583
q0 34 26.5 59.5t61.5 25.5t61.5 -25t26.5 -60q0 -34 -26 -59.5t-62 -25.5q-35 0 -61.5 25.5t-26.5 59.5z" />
    <glyph glyph-name="Uhungarumlaut" unicode="&#x170;" horiz-adv-x="661" 
d="M172 523v-257q0 -42 2 -69t14 -62t35 -57q49 -47 119 -47q49 0 84 15.5t54 38t30 58t13.5 65t2.5 69.5v246q0 31 -3 47.5t-15.5 26t-26.5 12t-47 5.5q-4 4 -4 16t4 17q92 -2 116 -2q26 0 102 2q4 -5 4 -17t-4 -16q-49 -6 -63 -20t-14 -71v-228q0 -71 -11 -123.5
t-38.5 -95t-78.5 -64.5t-126 -22q-34 0 -64 5.5t-62.5 21.5t-55 42t-37.5 70.5t-15 103.5v290q0 59 -14.5 74t-62.5 17q-4 4 -4 16t4 17q78 -2 119 -2t135 2q4 -5 4 -17t-4 -16q-60 -2 -76 -16.5t-16 -74.5zM514 792q0 -13 -7 -20l-99 -84q-3 -3 -8 -3q-4 0 -8.5 3.5
t-4.5 9.5q0 4 4 11l59 109q8 12 23 12q20 0 30.5 -12t10.5 -26zM383 797q0 -13 -7 -19l-88 -80q-8 -8 -14 -8q-13 0 -13 12q0 5 3 11l54 110q7 12 27 12q13 0 25.5 -11t12.5 -27z" />
    <glyph glyph-name="uhungarumlaut" unicode="&#x171;" horiz-adv-x="531" 
d="M217 -10q-69 0 -99 38.5t-30 97.5v192q0 47 -12.5 62t-49.5 18q-4 4 -4 16t4 17q68 -2 102 -2q25 0 35 2q8 0 8 -6q-4 -73 -4 -103v-182q0 -59 24.5 -81t55.5 -22q45 0 100 48q16 14 16 39v193q0 48 -12 63.5t-50 17.5q-5 4 -5 16t5 17q68 -2 102 -2q25 0 35 2q8 0 8 -6
q-4 -73 -4 -103v-192q0 -39 13.5 -54t59.5 -19q5 -5 5 -14t-5 -13q-80 -9 -118 -40q-11 -3 -19 0q-8 34 -11 59q-1 5 -6 4.5t-9 -3.5q-73 -60 -135 -60zM423 611q0 -12 -7 -19l-114 -110q-2 -2 -6 -2t-9 4t-5 9q0 3 1 4l78 139q7 12 24 12q15 0 26.5 -11t11.5 -26zM291 617
q0 -10 -5 -16l-102 -121q-3 -3 -8 -3q-14 0 -14 13q0 2 1 3l64 146q6 14 26 14q16 0 27 -10t11 -26z" />
    <glyph glyph-name="Uogonek" unicode="&#x172;" horiz-adv-x="661" 
d="M498 -135q-42 -65 -110 -65q-88 0 -88 74q0 56 91 122q-31 -6 -70 -6q-43 0 -80.5 10t-74 34.5t-58 75t-21.5 123.5v290q0 59 -14.5 74t-62.5 17q-4 4 -4 16t4 17q78 -2 119 -2t135 2q4 -5 4 -17t-4 -16q-60 -2 -76 -16.5t-16 -74.5v-257q0 -42 2 -69t14 -62t35 -57
q49 -47 119 -47q49 0 84 15.5t54 38t30 58t13.5 65t2.5 69.5v246q0 31 -3 47.5t-15.5 26t-26.5 12t-47 5.5q-4 4 -4 16t4 17q92 -2 116 -2q26 0 102 2q4 -5 4 -17t-4 -16q-49 -6 -63 -20t-14 -71v-228q0 -204 -102 -269q-63 -52 -87 -80t-24 -61q0 -47 50 -47q20 0 33.5 9
t33.5 29q13 0 19 -11z" />
    <glyph glyph-name="uogonek" unicode="&#x173;" horiz-adv-x="531" 
d="M501 -135q-42 -65 -110 -65q-88 0 -88 74q0 34 17.5 70.5t53.5 62.5q-6 22 -7 42q-1 5 -6 4.5t-9 -3.5q-73 -60 -135 -60q-69 0 -99 38.5t-30 97.5v192q0 47 -12.5 62t-49.5 18q-4 4 -4 16t4 17q68 -2 102 -2q25 0 35 2q8 0 8 -6q-4 -73 -4 -103v-182q0 -59 24.5 -81
t55.5 -22q45 0 100 48q16 14 16 39v193q0 48 -12 63.5t-50 17.5q-5 4 -5 16t5 17q68 -2 102 -2q25 0 35 2q8 0 8 -6q-4 -73 -4 -103v-192q0 -39 13.5 -54t59.5 -19q5 -5 5 -14t-5 -13q-47 -5 -83 -19q-34 -19 -50.5 -55t-16.5 -71q0 -47 50 -47q20 0 33.5 9t33.5 29
q13 0 19 -11z" />
    <glyph glyph-name="Wcircumflex" unicode="&#x174;" horiz-adv-x="951" 
d="M810 565q3 9 3 16t-2 12t-8 8.5t-11 5.5t-14.5 3.5t-15.5 2l-18 1.5q-4 4 -4 16t4 17q80 -2 110 -2q29 0 87 2q5 -5 5 -17t-5 -16q-38 -2 -56.5 -17t-29.5 -44l-201 -539q-9 -26 -23 -26q-13 0 -23 27l-115 332q-10 28 -14 28q-6 0 -17 -25l-149 -335q-11 -27 -26 -27
q-14 0 -22 27l-188 541q-14 39 -25 47.5t-46 10.5q-4 4 -4 16t4 17q58 -2 93 -2q50 0 116 2q5 -5 5 -17t-5 -16q-31 -2 -44.5 -10t-5.5 -32l146 -442l5 -1l129 293q9 22 9 35q0 10 -7 31l-23 66q-20 56 -84 60q-4 4 -4 16t4 17q64 -2 100 -2q43 0 125 2q5 -5 5 -17t-5 -16
q-11 -1 -17 -2t-15 -3t-13 -6t-8 -10t-3.5 -16t4.5 -23l137 -422l4 -1zM476 808q44 -53 103 -97q-5 -16 -16 -21q-65 30 -106 61q-47 -34 -107 -61q-11 7 -14 21q41 31 101 97q19 11 39 0z" />
    <glyph glyph-name="wcircumflex" unicode="&#x175;" horiz-adv-x="747" 
d="M383 659q37 -60 109 -140q-10 -14 -23 -17q-58 37 -103 83q-56 -56 -104 -83q-13 3 -22 17q76 84 111 140q19 3 32 0zM203 398q-35 -2 -40.5 -16.5t10.5 -50.5l80 -206q7 -17 10.5 -21t7 0.5t10.5 22.5l70 177l-6 16q-8 21 -13 31t-14 22.5t-21 18t-29 6.5q-4 4 -4 16
t4 17q60 -2 88 -2q40 0 100 2q4 -5 4 -17t-4 -16q-39 -3 -45 -14.5t9 -46.5l86 -219q4 -11 7 -14t6.5 1t8.5 17l84 208q5 13 7.5 20.5t2 17t-6 15t-19 10t-35.5 5.5q-5 4 -5 16t5 17q60 -2 102 -2q32 0 72 2q5 -5 5 -17t-5 -16q-35 -2 -52.5 -19t-32.5 -53l-130 -317
q-8 -21 -23 -21t-24 20l-103 248l-101 -246q-10 -22 -24 -22q-15 0 -24 20l-131 323q-16 39 -30 51t-49 16q-5 4 -5 16t5 17q52 -2 91 -2q41 0 101 2q5 -5 5 -17t-5 -16z" />
    <glyph glyph-name="Ycircumflex" unicode="&#x176;" horiz-adv-x="575" 
d="M337 122q0 -60 17 -74.5t80 -16.5q4 -5 4 -17t-4 -16q-100 2 -139 2q-42 0 -140 -2q-5 4 -5 16t5 17q63 2 80 16.5t17 74.5v127q0 27 -4 40t-17 37l-131 221q-25 41 -42.5 53t-51.5 14q-5 5 -5 16.5t4 16.5q60 -2 102 -2t114 2q5 -5 5 -17t-5 -16q-41 -2 -48 -13t12 -42
l116 -205q5 -8 8 -11t6.5 -1t7.5 10l111 209q14 30 5 40.5t-44 12.5q-5 4 -5 16t5 17q64 -2 91 -2t83 2q5 -5 5 -17t-5 -16q-36 -3 -55.5 -15.5t-39.5 -48.5l-120 -216q-17 -32 -17 -76v-136zM312 808q44 -53 103 -97q-5 -16 -16 -21q-65 30 -106 61q-47 -34 -107 -61
q-11 7 -14 21q41 31 101 97q19 11 39 0z" />
    <glyph glyph-name="ycircumflex" unicode="&#x177;" horiz-adv-x="515" 
d="M204 -160q-40 -72 -97 -72q-20 0 -33.5 10.5t-13.5 26.5q0 13 12.5 28t31.5 15q5 0 13.5 -1.5t15.5 -1.5q34 0 50 29q22 46 39 92q13 35 -14 94l-113 263q-19 45 -33.5 58t-45.5 17q-4 4 -4 16t4 17q40 -2 81 -2q39 0 113 2q4 -5 4 -17t-4 -16q-39 -3 -44 -18.5t11 -46.5
l89 -208q12 -29 24 -1l99 229q11 24 -3 33t-45 12q-5 4 -5 16t5 17q60 -2 91 -2t71 2q5 -5 5 -17t-5 -16q-34 -4 -49.5 -17.5t-31.5 -46.5q-74 -158 -177 -408q-19 -47 -41 -86zM291 660q37 -60 109 -140q-10 -14 -23 -17q-58 37 -103 83q-56 -56 -104 -83q-13 3 -22 17
q76 84 111 140q19 3 32 0z" />
    <glyph glyph-name="Ydieresis" unicode="&#x178;" horiz-adv-x="575" 
d="M337 122q0 -60 17 -74.5t80 -16.5q4 -5 4 -17t-4 -16q-100 2 -139 2q-42 0 -140 -2q-5 4 -5 16t5 17q63 2 80 16.5t17 74.5v127q0 27 -4 40t-17 37l-131 221q-25 41 -42.5 53t-51.5 14q-5 5 -5 16.5t4 16.5q60 -2 102 -2t114 2q5 -5 5 -17t-5 -16q-41 -2 -48 -13t12 -42
l116 -205q5 -8 8 -11t6.5 -1t7.5 10l111 209q14 30 5 40.5t-44 12.5q-5 4 -5 16t5 17q64 -2 91 -2t83 2q5 -5 5 -17t-5 -16q-36 -3 -55.5 -15.5t-39.5 -48.5l-120 -216q-17 -32 -17 -76v-136zM175 751q0 20 14 34t33 14t33 -14t14 -34q0 -19 -13.5 -33t-33.5 -14t-33.5 14
t-13.5 33zM344 751q0 20 14 34t33 14t33 -14t14 -34q0 -19 -14 -33t-33 -14t-33 14t-14 33z" />
    <glyph glyph-name="Zacute" unicode="&#x179;" horiz-adv-x="604" 
d="M551 -2q-100 2 -127 2h-364q-19 0 -19 15q0 12 8 23q80 119 199.5 285.5t189.5 255.5q8 11 8 18q0 9 -10 9l-211 -4q-55 -1 -86.5 -27t-47.5 -79q-13 0 -30 5q17 89 22 152q99 -8 181 -8h221q17 0 43 1t30 1q13 0 13 -11q0 -14 -24 -45q-156 -201 -375 -519
q-8 -14 -8 -20q0 -14 25 -14l193 4q39 1 66.5 10t46 29.5t28 37.5t24.5 51q13 0 31 -5q-20 -85 -27 -167zM348 820q41 -18 62 -52l-144 -58q-28 -12 -42 -12q-15 0 -15 15q0 11 15 21z" />
    <glyph glyph-name="zacute" unicode="&#x17a;" horiz-adv-x="424" 
d="M71 439q30 -10 59 -10h183q13 0 27 0.5t24 1t11 0.5q12 0 12 -7t-18 -37q-128 -211 -240 -353h133q37 1 57 17.5t41 58.5l14 29q21 0 30 -6q-11 -75 -32 -136l-312 3q-23 0 -23 12q0 8 9 20q150 201 246 363l-128 -3q-57 -2 -81 -91q-17 -4 -33 3q14 75 15 129
q0 1 2.5 3.5t3.5 2.5zM256 671q6 2 14 2q31 0 55 -23l3 -11l-115 -109q-19 -19 -30 -19q-5 0 -9.5 4t-4.5 9q0 10 11 28z" />
    <glyph glyph-name="Zdotaccent" unicode="&#x17b;" horiz-adv-x="604" 
d="M551 -2q-100 2 -127 2h-364q-19 0 -19 15q0 12 8 23q80 119 199.5 285.5t189.5 255.5q8 11 8 18q0 9 -10 9l-211 -4q-55 -1 -86.5 -27t-47.5 -79q-13 0 -30 5q17 89 22 152q99 -8 181 -8h221q17 0 43 1t30 1q13 0 13 -11q0 -14 -24 -45q-156 -201 -375 -519
q-8 -14 -8 -20q0 -14 25 -14l193 4q39 1 66.5 10t46 29.5t28 37.5t24.5 51q13 0 31 -5q-20 -85 -27 -167zM258 750q0 21 15.5 36.5t36.5 15.5t36.5 -15.5t15.5 -36.5t-15.5 -36.5t-36.5 -15.5t-36.5 15.5t-15.5 36.5z" />
    <glyph glyph-name="zdotaccent" unicode="&#x17c;" horiz-adv-x="424" 
d="M71 439q30 -10 59 -10h183q13 0 27 0.5t24 1t11 0.5q12 0 12 -7t-18 -37q-128 -211 -240 -353h133q37 1 57 17.5t41 58.5l14 29q21 0 30 -6q-11 -75 -32 -136l-312 3q-23 0 -23 12q0 8 9 20q150 201 246 363l-128 -3q-57 -2 -81 -91q-17 -4 -33 3q14 75 15 129
q0 1 2.5 3.5t3.5 2.5zM165 599q0 18 17 33t35 15q19 0 33.5 -16.5t14.5 -35.5q0 -17 -16 -32.5t-36 -15.5q-18 0 -33 16.5t-15 35.5z" />
    <glyph glyph-name="Zcaron" unicode="&#x17d;" horiz-adv-x="604" 
d="M551 -2q-100 2 -127 2h-364q-19 0 -19 15q0 12 8 23q80 119 199.5 285.5t189.5 255.5q8 11 8 18q0 9 -10 9l-211 -4q-55 -1 -86.5 -27t-47.5 -79q-13 0 -30 5q17 89 22 152q99 -8 181 -8h221q17 0 43 1t30 1q13 0 13 -11q0 -14 -24 -45q-156 -201 -375 -519
q-8 -14 -8 -20q0 -14 25 -14l193 4q39 1 66.5 10t46 29.5t28 37.5t24.5 51q13 0 31 -5q-20 -85 -27 -167zM280 697q-36 45 -101 95l16 20q60 -26 106 -61q57 40 107 61l15 -20q-50 -38 -100 -95h-43z" />
    <glyph glyph-name="zcaron" unicode="&#x17e;" horiz-adv-x="424" 
d="M71 439q30 -10 59 -10h183q13 0 27 0.5t24 1t11 0.5q12 0 12 -7t-18 -37q-128 -211 -240 -353h133q37 1 57 17.5t41 58.5l14 29q21 0 30 -6q-11 -75 -32 -136l-312 3q-23 0 -23 12q0 8 9 20q150 201 246 363l-128 -3q-57 -2 -81 -91q-17 -4 -33 3q14 75 15 129
q0 1 2.5 3.5t3.5 2.5zM188 501q-38 62 -101 130l20 13q71 -52 106 -90q38 39 108 90l19 -13q-67 -75 -102 -130h-50z" />
    <glyph glyph-name="longs" unicode="&#x17f;" horiz-adv-x="291" 
d="M172 122q0 -61 13 -75t66 -16q5 -5 5 -17t-5 -16q-86 2 -118 2q-21 0 -105 -2q-4 4 -4 16t4 17q42 2 53.5 16.5t11.5 74.5v257q0 10 -2.5 13t-12.5 3h-44q-5 0 -5 5v9q0 20 23 20q41 0 41 48q0 109 48 165t107 56q50 0 83 -30q26 -23 26 -46q0 -15 -8.5 -26.5
t-26.5 -11.5q-38 0 -46 41q-8 39 -35 39q-38 0 -53.5 -47.5t-15.5 -142.5v-352z" />
    <glyph glyph-name="uni0180" unicode="&#x180;" horiz-adv-x="493" 
d="M174 363q-17 -14 -17 -42v-250q38 -47 72 -47q69 0 105 55.5t36 144.5q0 72 -32.5 121.5t-78.5 49.5q-49 0 -85 -32zM167 394q50 45 112 45q69 0 123 -55t54 -142q0 -112 -69 -182t-152 -70q-58 0 -88 25q-15 12 -27 -3l-24 -24q-14 0 -22 12q4 19 4 71v444h-61
q-11 0 -11 14q0 8 6 16.5t13 8.5h53v5q0 32 -1.5 48t-12.5 23.5t-17 8t-33 2.5q-11 11 -6 30q89 7 140 27q13 0 13 -10q-4 -40 -4 -105v-29h98q12 0 12 -13q0 -9 -6 -17.5t-15 -8.5h-89v-116q0 -15 10 -5z" />
    <glyph glyph-name="uni0181" unicode="&#x181;" horiz-adv-x="642" 
d="M124 615q-23 0 -39 -19t-16 -42q0 -8 3.5 -22t3.5 -23q0 -18 -10.5 -27t-24.5 -9q-15 0 -25.5 11t-10.5 26q0 48 41.5 92.5t109.5 44.5q6 0 17 -1t33 -1q21 0 62.5 1t58.5 1q215 0 215 -154q0 -39 -27 -75t-66 -56v-2q152 -44 152 -176q0 -35 -12 -66t-39 -59
t-78.5 -44.5t-122.5 -16.5q-51 0 -90 1t-53 1q-33 0 -127 -2l-2 2v19q0 8 7 8l30 2q33 2 42.5 9.5t9.5 32.5v503q0 41 -42 41zM247 332v-254q0 -26 16.5 -36t66.5 -10q105 0 143.5 35t38.5 98q0 73 -49.5 120t-146.5 47h-69zM247 570v-204h74q144 0 144 115q0 69 -40 100.5
t-91 31.5q-43 0 -61.5 -4.5t-22 -12t-3.5 -26.5z" />
    <glyph glyph-name="uni0182" unicode="&#x182;" horiz-adv-x="583" 
d="M187 333v-252q0 -28 14.5 -39t57.5 -11q56 0 95 13.5t58 37t27 47t8 49.5q0 25 -7 49t-23.5 49.5t-50.5 41t-82 15.5h-97zM145 0q-32 0 -130 -2q-5 4 -5 16t5 17q56 2 71.5 16.5t15.5 74.5v401q0 60 -15.5 74.5t-71.5 16.5q-5 4 -5 16t5 17q100 -2 129 -2h233l101 2l2 -2
q16 -78 19 -171q-13 -8 -35 -5q-18 71 -41.5 103.5t-74.5 32.5h-125q-36 0 -36 -31v-201h109q49 0 88.5 -8t65 -23t43.5 -33t27 -39.5t13 -41t4 -40.5q0 -46 -22.5 -85t-56.5 -62q-39 -26 -86.5 -34.5t-117.5 -8.5q-24 0 -59 1t-50 1z" />
    <glyph glyph-name="uni0183" unicode="&#x183;" horiz-adv-x="491" 
d="M153 54q24 -30 72 -30q69 0 106 55t37 144q0 75 -33 123.5t-80 48.5q-61 0 -102 -42v-299zM194 688h201l14 -140l-31 -3q-28 109 -90 109h-135v-270q51 55 122 55q68 0 121.5 -57.5t53.5 -145.5q0 -112 -67.5 -179t-151.5 -67q-63 0 -104 35q-5 -8 -19 -21.5t-16 -15.5
l-21 5q3 23 3 78v507q0 40 -6.5 51.5t-23.5 12.5l-32 2q-5 0 -5 5l-2 23q96 16 189 16z" />
    <glyph glyph-name="uni0184" unicode="&#x184;" horiz-adv-x="572" 
d="M187 333v-252q0 -28 14.5 -39t57.5 -11q56 0 95 13.5t58 37t27 47t8 49.5q0 25 -7 49t-23.5 49.5t-50.5 41t-82 15.5h-97zM106 471q0 44 -16 63.5t-54 30.5q-17 17 0 34q68 14 134 59q20 0 20 -10q-3 -40 -3 -105v-170h109q49 0 88.5 -8t65 -23t43.5 -33t27 -39.5t13 -41
t4 -40.5q0 -46 -22.5 -85t-56.5 -62q-39 -26 -86.5 -34.5t-117.5 -8.5q-24 0 -58.5 1t-47.5 1l-128 -2l-2 2v23q0 8 7 8l27 2q30 2 42 12.5t12 32.5v393z" />
    <glyph glyph-name="uni0185" unicode="&#x185;" horiz-adv-x="485" 
d="M156 65q34 -41 73 -41q68 0 105.5 56t37.5 145q0 75 -33 123t-81 48q-61 0 -102 -42v-289zM146 698q13 0 13 -10q-3 -40 -3 -105v-198q50 54 123 54q68 0 119 -56.5t51 -144.5q0 -112 -66 -180t-149 -68q-61 0 -104 36q-7 -10 -31 -37q-11 0 -20 5q3 36 3 79v438
q0 44 -16 63.5t-54 30.5q-17 17 0 34q68 14 134 59z" />
    <glyph glyph-name="uni0186" unicode="&#x186;" horiz-adv-x="646" 
d="M289 658q154 0 237 -91t83 -229q0 -78 -28 -147.5t-78 -115.5q-93 -85 -215 -85q-72 0 -140.5 22t-78.5 23q-15 83 -22 155q18 10 33 5q51 -168 219 -168q87 0 160 89q59 74 59 203q0 115 -65.5 206.5t-162.5 91.5q-70 0 -124.5 -25.5t-107.5 -83.5q-15 0 -23 15
q103 135 254 135z" />
    <glyph glyph-name="uni0187" unicode="&#x187;" horiz-adv-x="646" 
d="M665 743q19 0 27.5 -12t8.5 -24q0 -35 -50 -35q-18 0 -46 -30l-28 -29q15 -83 22 -155q-18 -10 -33 -5q-51 168 -219 168q-87 0 -160 -89q-59 -74 -59 -203q0 -115 65.5 -206.5t162.5 -91.5q70 0 124.5 25.5t107.5 83.5q15 0 23 -15q-103 -135 -254 -135q-154 0 -237 91
t-83 229q0 78 28 147.5t78 115.5q93 85 215 85q35 0 67.5 -4.5t50 -10t41.5 -14t33 -10.5q5 58 43 91t72 33z" />
    <glyph glyph-name="uni0188" unicode="&#x188;" horiz-adv-x="493" 
d="M456 428q-8 0 -25.5 4.5t-26.5 4.5q-28 0 -45 -28q36 -25 36 -65q0 -21 -15.5 -32.5t-33.5 -11.5q-34 0 -38 36q-2 22 -6.5 34.5t-20.5 24t-44 11.5q-50 0 -82 -47.5t-32 -128.5q0 -86 39 -138.5t95 -52.5q69 0 120 66q16 -2 21 -14q-35 -58 -74 -79.5t-89 -21.5
q-93 0 -145.5 59.5t-52.5 158.5q0 101 63 166t142 65q53 0 91 -16q19 38 52 57t63 19q23 0 32.5 -11t9.5 -25q0 -16 -9 -25.5t-25 -9.5z" />
    <glyph glyph-name="uni0189" unicode="&#x189;" horiz-adv-x="701" 
d="M191 84q0 -27 20.5 -39.5t88.5 -12.5q57 0 101 11.5t82 38.5t58.5 78t20.5 124q0 61 -15 117t-47 105t-90 78t-135 29q-84 0 -84 -49v-238h97q12 0 12 -13q0 -9 -6 -17.5t-15 -8.5h-88v-203zM148 645q16 0 71 1t94 1q144 0 244.5 -99.5t100.5 -239.5q0 -88 -30.5 -151.5
t-81 -96.5t-104 -47.5t-111.5 -14.5q-60 0 -116 1t-66 1q-52 0 -130 -2q-5 4 -5 16t5 17q56 2 71.5 16.5t15.5 74.5v165h-87q-11 0 -11 14q0 8 6 16.5t13 8.5h79v197q0 60 -15.5 74.5t-71.5 16.5q-5 4 -5 16t5 17q80 -2 129 -2z" />
    <glyph glyph-name="uni018A" unicode="&#x18a;" horiz-adv-x="778" 
d="M268 77q0 -26 19.5 -35.5t89.5 -9.5q266 0 266 252q0 48 -9.5 93.5t-31 89t-54.5 75.5t-83.5 51.5t-112.5 19.5q-84 0 -84 -43v-493zM98 22q0 9 7 9l30 2q27 2 39.5 12t12.5 33v490q0 50 -57 44q-27 -2 -46 -15.5t-19 -38.5q0 -10 4 -24.5t4 -24.5q0 -16 -9.5 -25
t-24.5 -9q-37 0 -37 41q0 43 38.5 87t114.5 44q4 0 27.5 -1t44.5 -1q17 0 72.5 1t90.5 1q144 0 244.5 -99.5t100.5 -239.5q0 -88 -30.5 -151.5t-81 -96.5t-104 -47.5t-111.5 -14.5q-60 0 -115 1t-66 1q-33 0 -127 -2l-2 2v22z" />
    <glyph glyph-name="uni018B" unicode="&#x18b;" horiz-adv-x="563" 
d="M388 78v269h-89q-168 0 -168 -149q0 -84 46 -125t128 -41q50 0 66.5 10t16.5 36zM301 607h-81q-40 0 -66.5 -21.5t-44.5 -83.5l-26 3l14 153q50 -13 113 -13h218l115 2v-25q0 -4 -4 -4l-30 -3q-25 -2 -32.5 -9t-7.5 -33v-496q0 -24 9.5 -34.5t30.5 -12.5l30 -3q4 0 4 -5
v-24q-88 2 -114 2q-33 0 -85 -1t-85 -1q-90 0 -153.5 45.5t-63.5 132.5q0 112 70.5 158.5t213.5 46.5h62v189q0 26 -12 31.5t-75 5.5z" />
    <glyph glyph-name="uni018C" unicode="&#x18c;" horiz-adv-x="511" 
d="M350 124v190q0 23 -3 32.5t-14 21.5q-31 36 -81 36q-60 0 -93 -50q-29 -41 -29 -133q0 -88 33 -136t77 -48q38 0 94 48q16 14 16 39zM420 698q13 0 13 -10q-4 -40 -4 -105v-453q0 -39 13.5 -54t59.5 -19q4 -5 4 -14t-4 -13q-84 -10 -121 -40q-11 -3 -19 0q-11 35 -11 59
q0 11 -12 1q-73 -60 -125 -60q-79 0 -124.5 59t-45.5 154q0 107 69 176q63 60 150 60q15 0 33 -4.5t31 -8.5t14 -4q9 0 9 9v199q0 14 -4.5 19t-18.5 5h-122q-35 0 -59 -33t-35 -76l-26 3l14 150q45 -10 106 -10h159q41 4 56 10z" />
    <glyph glyph-name="uni018D" unicode="&#x18d;" horiz-adv-x="490" 
d="M232 24l17 -13l-8 16q139 50 139 187q0 70 -35.5 130.5t-99.5 60.5q-23 0 -43 -7t-41.5 -25.5t-34.5 -58t-13 -97.5q0 -40 24.5 -88t64.5 -80zM260 2l18 -15q93 -73 93 -119q0 -53 -39 -78t-98 -25q-68 0 -115.5 31.5t-47.5 60.5q0 19 12 28t26 9q28 0 51 -44
q27 -52 75 -52q84 0 84 60q0 25 -84 90l-71 56q-68 53 -99 97t-31 105q0 114 66.5 173.5t155.5 59.5q91 0 146 -59t55 -149q0 -160 -197 -229z" />
    <glyph glyph-name="uni018E" unicode="&#x18e;" horiz-adv-x="560" 
d="M69 645h334l130 1v-21q0 -7 -8 -7h-29q-28 0 -40 -11t-12 -35v-500q0 -45 52 -45h29q8 0 8 -7v-22l-129 2h-78h-274l-25 160l26 5q13 -61 38.5 -93.5t71.5 -32.5h164q36 0 36 33v255h-136q-24 0 -35 -10.5t-16 -33.5l-6 -31q0 -7 -8 -7h-23l-2 3q8 68 8 96t-8 95q0 4 3 4
h22q7 0 7 -8l7 -30q6 -24 16 -34t35 -10h136v212q0 32 -36 32h-152q-36 0 -61.5 -33t-31.5 -70l-27 3z" />
    <glyph glyph-name="uni018F" unicode="&#x18f;" horiz-adv-x="644" 
d="M97 523l-23 24q67 63 113 87t123 24t137 -29t94.5 -77.5t52 -106t17.5 -119.5q0 -151 -77 -244.5t-218 -93.5q-69 0 -121.5 22t-83.5 61t-48 86t-21 103h478q1 11 1 37q0 141 -63.5 234t-163.5 93q-44 0 -82.5 -16.5t-59.5 -33.5t-55 -51zM122 216q23 -96 74.5 -145
t126.5 -49t124 56t64 138h-389z" />
    <glyph glyph-name="uni0190" unicode="&#x190;" horiz-adv-x="517" 
d="M295 658q40 0 82.5 -14t61.5 -16l19 -143l-31 -5q-16 72 -44.5 108t-95.5 36q-63 0 -102 -32t-39 -92q0 -16 4 -33t14 -36t25.5 -33t41.5 -23.5t59 -9.5h68q17 0 17 -20q0 -19 -17 -19h-97q-73 0 -105 -41t-32 -99q0 -85 40 -124.5t104 -39.5q59 0 109.5 36.5t67.5 111.5
l30 -3l-17 -144q-10 -2 -72 -18.5t-109 -16.5q-43 0 -81.5 8t-76 26.5t-59.5 55t-22 88.5q0 75 42.5 122t101.5 63q-15 5 -30 14.5t-34 26t-31 43t-12 57.5q0 79 66.5 122.5t153.5 43.5z" />
    <glyph glyph-name="uni0191" unicode="&#x191;" horiz-adv-x="477" 
d="M101 81v490q0 23 -11 33t-40 12l-30 2q-8 0 -8 7v20l2 2q94 -2 127 -2h253q24 0 47 4q4 0 4 -3q8 -34 22 -145l-29 -5q-19 59 -41 84t-74 25h-105q-36 0 -36 -34v-210h127q25 0 36.5 10t13.5 32l3 25q0 8 7 8h22l4 -4q-4 -53 -4 -90q0 -34 4 -87l-4 -3h-22q-7 0 -7 8
l-3 25q-2 22 -13 30t-37 8h-127v-220q0 -88 -27.5 -142t-77.5 -94q-46 -39 -114 -39q-20 0 -42 15t-22 39q0 15 13 25.5t25 10.5q31 0 52 -27q13 -18 28 -18q84 0 84 208z" />
    <glyph glyph-name="florin" unicode="&#x192;" horiz-adv-x="440" 
d="M173 390h-95q-5 0 -5 6v13q0 20 23 20h36q48 0 55 54q13 105 52.5 160t86.5 55q54 0 80 -21t26 -47q0 -16 -8.5 -26.5t-23.5 -10.5q-35 0 -39 25q-10 51 -36 51q-11 0 -21 -9t-22 -39.5t-18 -79.5l-14 -112h111q8 0 8 -6v-20q0 -13 -23 -13h-102l-2 -16
q-41 -330 -56 -404q-31 -157 -86 -190q-20 -12 -44 -12q-38 0 -62 19.5t-24 36.5q0 12 9 23t23 11q26 0 35 -22q2 -4 3.5 -13t5 -14t13.5 -5q25 0 42 29.5t26.5 86t14 109.5t10 130.5t9.5 118.5z" />
    <glyph glyph-name="uni0193" unicode="&#x193;" horiz-adv-x="721" 
d="M670 743q19 0 27.5 -12t8.5 -24q0 -35 -50 -35q-4 0 -11 0.5t-9 0.5q-6 0 -8 -1q-38 -7 -46 -58q1 -1 3 -1q20 -90 23 -154q-16 -7 -33 -6q-11 38 -24 64t-36.5 52t-61.5 39.5t-90 13.5q-91 0 -160.5 -84t-69.5 -211q0 -69 26.5 -136.5t83.5 -116t132 -48.5q115 0 155 38
v153q0 28 -17.5 36.5t-64.5 11.5q-4 5 -4 18t4 18q88 -2 124 -2q41 0 89 2q5 -5 5 -18t-5 -18q-23 -2 -34.5 -12.5t-11.5 -35.5v-116q0 -15 16 -28q-97 -83 -279 -83q-141 0 -228 90t-87 227q0 105 50.5 187t127.5 123t162 41q32 0 61 -4.5t44.5 -9t39.5 -13t33 -11.5
q6 57 44 90t71 33z" />
    <glyph glyph-name="uni0194" unicode="&#x194;" horiz-adv-x="617" 
d="M291 -20q-20 -30 -35.5 -72.5t-15.5 -57.5q0 -39 28 -39q16 0 27 20t11 45q0 65 -15 104zM488 572q9 23 -0.5 31t-47.5 13l-18 2q-8 0 -8 8v19l2 2q73 -2 112 -2l87 2l2 -2v-19q0 -8 -8 -8q-33 -2 -48.5 -11t-24.5 -35l-192 -511q35 -104 35 -170q0 -52 -31.5 -87.5
t-80.5 -35.5q-37 0 -56 22t-19 50q0 24 11 56t24 58.5t43 81.5l-189 534q-10 27 -26.5 36t-46.5 12q-8 0 -8 8v19l2 2q68 -2 107 -2l124 2l2 -2v-19q0 -6 -8 -8l-17 -2q-48 -5 -48 -26q0 -9 4 -20l154 -441h3z" />
    <glyph glyph-name="uni0195" unicode="&#x195;" horiz-adv-x="714" 
d="M298 387q-55 0 -116 -59q-17 -19 -17 -42v-164q0 -60 10 -74t50 -17q5 -5 5 -17t-5 -16q-84 2 -99 2q-28 0 -110 -2q-4 4 -4 16t4 17q46 3 58 17t12 74v437q0 32 -1.5 48t-12.5 23.5t-17 8t-33 2.5q-11 11 -6 30q89 7 140 27q13 0 13 -10q-4 -40 -4 -105l-1 -225
q0 -13 10 0q43 47 78.5 64t76.5 17q109 0 109 -155v-152q0 -95 73 -95q54 0 90 61.5t36 138.5q0 118 -59 128q-42 3 -42 37q0 15 11 26t30 11q98 0 98 -190q0 -128 -48.5 -193.5t-115.5 -65.5q-150 0 -152 145v160q0 57 -14 74.5t-47 17.5z" />
    <glyph glyph-name="uni0196" unicode="&#x196;" horiz-adv-x="290" 
d="M90 563q0 46 -7 62t-23 16l-32 2q-6 0 -6 5l-2 24q31 2 74 10.5t61 15.5q13 0 13 -10q-3 -40 -3 -105v-446q0 -49 7 -70.5t26 -21.5q31 0 67 28q13 -3 18 -17q-59 -66 -120 -66q-73 0 -73 99v474z" />
    <glyph glyph-name="uni0197" unicode="&#x197;" horiz-adv-x="297" 
d="M191 122q0 -60 15.5 -74.5t71.5 -16.5q4 -5 4 -17t-4 -16q-90 2 -129 2q-40 0 -130 -2q-5 4 -5 16t5 17q56 2 71.5 16.5t15.5 74.5v199h-77q-11 0 -11 14q0 8 6 16.5t13 8.5h69v163q0 60 -15.5 74.5t-71.5 16.5q-5 4 -5 16t5 17q94 -2 129 -2q42 0 130 2q4 -5 4 -17
t-4 -16q-56 -2 -71.5 -16.5t-15.5 -74.5v-163h76q12 0 12 -13q0 -9 -6 -17.5t-15 -8.5h-67v-199z" />
    <glyph glyph-name="uni0198" unicode="&#x198;" horiz-adv-x="637" 
d="M398 479l-56 -72q-35 -45 -35 -49q0 -10 13 -25l219 -260q10 -12 20 -20t21 -12t17.5 -6t17 -3t12.5 -1q5 -5 5 -17t-5 -16q-94 2 -101 2q-14 0 -54 -2q-5 0 -5 6q-3 27 -36 69l-157 198q-28 36 -83 38v-187q0 -60 15.5 -74.5t71.5 -16.5q4 -5 4 -17t-4 -16q-90 2 -129 2
q-40 0 -130 -2q-5 4 -5 16t5 17q56 2 71.5 16.5t15.5 74.5v401q0 60 -15.5 74.5t-71.5 16.5q-5 4 -5 16t5 17q94 -2 129 -2q42 0 130 2q4 -5 4 -17t-4 -16q-56 -2 -71.5 -16.5t-15.5 -74.5v-176q50 4 79 39l106 128q10 12 32.5 41.5t34 42t30 29.5t37 24t39.5 7
q48 0 81.5 -24t33.5 -53q0 -16 -12.5 -27.5t-27.5 -11.5t-25 12.5t-15 27t-17 27t-30 12.5q-19 0 -53 -37t-86 -105z" />
    <glyph glyph-name="uni0199" unicode="&#x199;" horiz-adv-x="512" 
d="M86 476q0 109 48 165.5t107 56.5q50 0 83 -30q26 -23 26 -46q0 -15 -8.5 -26.5t-26.5 -11.5q-38 0 -46 41q-8 39 -35 39q-38 0 -53.5 -47.5t-15.5 -142.5v-240q32 5 68 31t80 82q35 47 -23 51q-4 4 -4 16t4 17q74 -2 98 -2q13 0 87 2q5 -5 5 -17t-5 -16q-70 -7 -105 -44
l-88 -91q-4 -4 -4 -10q0 -5 7 -14l132 -166q18 -23 36.5 -30.5t49.5 -11.5q5 -5 5 -17t-5 -16q-60 2 -82 2t-62 -2q-2 0 -4 5q-6 21 -42 70l-73 98q-16 21 -32 33q-11 3 -43 5v-87q0 -61 13 -75t66 -16q4 -5 4 -17t-4 -16q-86 2 -118 2q-21 0 -105 -2q-5 4 -5 16t5 17
q42 2 53.5 16.5t11.5 74.5v354z" />
    <glyph glyph-name="uni019A" unicode="&#x19a;" horiz-adv-x="264" 
d="M174 321v-199q0 -60 12.5 -74.5t59.5 -16.5q4 -5 4 -17t-4 -16q-66 2 -111 2q-42 0 -112 -2q-5 4 -5 16t5 17q47 2 59.5 16.5t12.5 74.5v199h-83q-11 0 -11 14q0 8 6 16.5t13 8.5h75v199q0 55 -10 67t-54 15q-11 11 -6 30q89 7 140 27q13 0 13 -10q-4 -40 -4 -105v-223
h76q12 0 12 -13q0 -9 -6 -17.5t-15 -8.5h-67z" />
    <glyph glyph-name="uni019B" unicode="&#x19b;" horiz-adv-x="531" 
d="M348 616l17 -30l-100 -59l94 -313q31 -104 45.5 -134t37.5 -30q37 0 62 31q16 -3 20 -16q-14 -30 -39.5 -53t-46.5 -23q-36 0 -58 31.5t-44 105.5l-71 237l-143 -363q-40 -3 -75 -12l-25 12l221 435l-13 43q-2 11 -8 24l-94 -55l-17 30l100 58q-40 102 -89 102
q-38 0 -71 -25q-15 4 -17 17q47 69 97 69q83 0 121 -129l2 -8z" />
    <glyph glyph-name="uni019C" unicode="&#x19c;" horiz-adv-x="872" 
d="M766 116q0 -37 4.5 -46.5t20.5 -11.5l48 -5l3 -23q-106 -19 -134 -42h-23l2 85l-2 1q-90 -86 -177 -86q-43 0 -71.5 24.5t-36.5 61.5q-89 -86 -184 -86q-65 0 -90 43t-25 119v424q0 22 -12 31t-42 11l-27 2q-8 0 -8 8v19l2 2q100 -2 127 -2q25 0 123 2l2 -2v-19
q0 -8 -8 -8l-21 -2q-31 -3 -43 -12t-12 -30v-447q0 -91 73 -91q67 0 139 72q-1 14 -1 41v425q0 22 -12 31t-42 11l-22 2q-8 0 -8 8v19l2 2q100 -2 122 -2q25 0 123 2l2 -2v-19q0 -8 -8 -8l-21 -2q-30 -3 -42.5 -12t-12.5 -30v-445q0 -47 20 -70t53 -23q61 0 138 74v464
q0 22 -11.5 30.5t-42.5 11.5l-22 2q-8 0 -8 8v19l2 2q100 -2 122 -2q30 0 128 2l2 -2v-19q0 -8 -8 -8l-26 -2q-30 -2 -42.5 -11.5t-12.5 -30.5v-458z" />
    <glyph glyph-name="uni019D" unicode="&#x19d;" horiz-adv-x="695" 
d="M104 88v462q-3 18 -22 43t-51 25q-12 0 -12 8v18l3 2h130l349 -441q11 -14 23.5 -32t18.5 -25.5t10 -7.5q5 0 5 38v379q0 24 -13 42.5t-41 18.5h-26q-14 0 -14 8v19l5 1q74 -1 110 -1l111 1l2 -1v-19q0 -8 -8 -8h-27q-27 0 -40.5 -18t-13.5 -43v-536q0 -29 -21 -29
q-25 2 -40 22l-349 441q-26 33 -34 33q-10 0 -10 -49v-350q0 -43 -1 -68t-4 -62t-10.5 -59t-19.5 -44.5t-32 -32.5t-47 -10q-33 0 -56 16t-23 33q0 21 10.5 28t21.5 7q10 0 20 -12t14 -28q4 -14 20 -14q62 0 62 245z" />
    <glyph glyph-name="uni019E" unicode="&#x19e;" horiz-adv-x="551" 
d="M175 439l-3 -89h3q47 52 87 70.5t85 18.5q66 0 91 -41.5t25 -116.5v-441q0 -22 9.5 -31.5t34.5 -11.5l21 -2q9 -2 9 -8v-19l-2 -2q-70 2 -114 2l-103 -2l-3 2v19q0 6 9 8l15 2q26 4 35.5 13t9.5 30v448q0 55 -14.5 79t-54.5 24q-71 0 -140 -77v-242q0 -22 9.5 -30.5
t35.5 -12.5l15 -2q9 -2 9 -8v-19l-2 -2q-66 2 -108 2l-110 -2l-2 2v19q0 6 9 8l20 2q26 2 35.5 11.5t9.5 31.5v249q0 35 -5.5 47.5t-17.5 14.5l-46 4l-2 24q103 15 146 31q4 0 4 -3z" />
    <glyph glyph-name="uni019F" unicode="&#x19f;" horiz-adv-x="702" 
d="M666 329q0 -125 -62 -213q-89 -126 -254 -126q-132 0 -222.5 88t-90.5 232q0 150 82.5 249t224.5 99q139 0 230.5 -89t91.5 -240zM569 348q-9 130 -75.5 202t-162.5 72q-79 0 -136 -68.5t-62 -205.5h436zM570 309h-437q5 -130 74.5 -206.5t162.5 -76.5q88 0 144 76
t56 207z" />
    <glyph glyph-name="Ohorn" unicode="&#x1a0;" horiz-adv-x="702" 
d="M331 622q-82 0 -140 -74t-58 -221q0 -138 70 -219.5t167 -81.5q88 0 144 76.5t56 207.5q0 146 -68 229t-171 83zM666 329q0 -125 -62 -213q-89 -126 -254 -126q-132 0 -222.5 88t-90.5 232q0 150 82.5 249t224.5 99q88 0 161 -38q15 -3 31 -3q15 0 35 10t20 32
q0 9 -10 16.5t-21 8.5q-24 3 -35.5 16.5t-11.5 30.5q0 39 46 39q28 0 48.5 -27.5t20.5 -63.5q0 -83 -76 -90q114 -93 114 -260z" />
    <glyph glyph-name="ohorn" unicode="&#x1a1;" horiz-adv-x="501" 
d="M41 205q0 98 55 164q60 70 157 70q59 0 104 -24q6 -1 20 -1q8 0 19 2.5t22.5 12.5t11.5 25q0 19 -28 23q-24 2 -36 15t-12 30q0 39 46 39q28 0 46 -26t18 -62t-17.5 -59t-49.5 -28q66 -63 66 -172q0 -104 -65 -168q-58 -56 -147 -56q-100 0 -155 65t-55 150zM238 404
q-111 0 -111 -176q0 -32 7.5 -65t22.5 -65t43 -52.5t65 -20.5q44 0 78 36t34 121q0 107 -37 164.5t-102 57.5z" />
    <glyph glyph-name="uni01A2" unicode="&#x1a2;" horiz-adv-x="893" 
d="M338 624q-82 0 -144 -75.5t-62 -221.5q0 -140 68.5 -221.5t170.5 -81.5q60 0 106 37v508q-61 55 -139 55zM810 -56q0 -60 15.5 -74.5t71.5 -16.5q5 -5 5 -17t-5 -16q-100 2 -129 2q-32 0 -130 -2q-4 4 -4 16t4 17q56 2 71.5 16.5t15.5 74.5v589q0 49 -10.5 59t-58.5 10
q-65 0 -79.5 -7.5t-14.5 -44.5v-490q-81 -70 -210 -70q-133 0 -224.5 88t-91.5 232q0 147 90.5 247.5t224.5 100.5q78 0 143 -35q12 4 46 35q19 0 19 -12q13 -7 108 -7q87 0 131 19q15 0 15 -10q-3 -48 -3 -96v-608z" />
    <glyph glyph-name="uni01A3" unicode="&#x1a3;" horiz-adv-x="710" 
d="M354 336q-41 69 -109 69q-59 0 -91 -49t-32 -129q0 -54 14.5 -93.5t37.5 -60t46.5 -30t47.5 -9.5q57 0 86 22v280zM632 -111q0 -60 12 -74t60 -16q4 -5 4 -17t-4 -16q-86 2 -111 2q-28 0 -112 -2q-5 4 -5 16t5 17q48 2 60 15.5t12 73.5v439q0 21 -11.5 31t-22.5 11.5
t-33 1.5q-24 0 -53 -12v-308q-35 -24 -91 -42.5t-98 -18.5q-99 0 -153.5 68t-54.5 149q0 99 61 165.5t152 66.5q59 0 94 -19q31 -16 140 -16q42 0 84.5 19t47.5 19h17v-553z" />
    <glyph glyph-name="uni01A4" unicode="&#x1a4;" horiz-adv-x="654" 
d="M312 554v-233q18 -5 76 -5q74 0 111.5 36.5t37.5 115.5q0 87 -38 118.5t-100 31.5q-87 0 -87 -64zM168 645h101q22 0 74 3.5t63 3.5q65 0 112 -17t70 -44.5t32.5 -53t9.5 -51.5q0 -35 -12 -68.5t-37.5 -65t-74 -51t-113.5 -19.5q-50 0 -81 10v-170q0 -59 19 -73.5
t83 -17.5q4 -5 4 -17t-4 -16q-100 2 -144 2q-32 0 -130 -2q-4 4 -4 16t4 17q56 2 71.5 16.5t15.5 74.5v401q0 30 -3 47.5t-12.5 25t-17.5 9t-27 1.5q-84 0 -84 -42q0 -12 6 -27q1 -3 4 -13.5t3 -15.5q0 -18 -13 -30t-31 -12t-32 12t-14 38q0 47 42 88t120 41z" />
    <glyph glyph-name="uni01A5" unicode="&#x1a5;" horiz-adv-x="519" 
d="M175 335q-16 -16 -16 -44v-186q0 -26 4 -36t20 -24q24 -21 71 -21q40 0 69 16.5t44 45t21.5 58.5t6.5 64q0 82 -34.5 133.5t-84.5 51.5q-45 0 -101 -58zM159 486v-115q0 -11 8 -3q33 33 70.5 52t66.5 19q75 0 126 -61t51 -143q0 -117 -74 -189q-59 -56 -147 -56
q-45 0 -87 15q-6 3 -8.5 3.5t-4 -2t-1.5 -8.5v-108q0 -60 13.5 -74t68.5 -17q5 -5 5 -17t-5 -16q-86 2 -121 2q-28 0 -112 -2q-4 4 -4 16t4 17q47 2 59.5 16.5t12.5 74.5v581q0 113 36 170t101 57q60 0 90 -21q32 -24 32 -51q0 -15 -14 -28t-27 -13q-26 0 -40 32
q-11 29 -20 38t-30 9q-27 0 -38 -34.5t-11 -143.5z" />
    <glyph glyph-name="uni01A6" unicode="&#x1a6;" horiz-adv-x="564" 
d="M497 388q0 -57 -45 -97t-90 -51l104 -239q41 -77 94 -77l3 -20q-17 -7 -42 -7q-82 0 -130 86l-103 233q-5 11 -20 13.5t-81 2.5v-162q0 -23 12.5 -33t42.5 -10h26q8 0 8 -8v-19l-2 -2q-86 2 -126 2l-128 -2l-2 2v19q0 8 7 8h27q30 0 42 10.5t12 32.5v504q0 44 -54 44h-27
q-8 0 -8 8v19l2 1q87 -1 126 -1l129 1l2 -1v-19q0 -8 -8 -8h-26q-55 0 -55 -44v-25q21 1 76 1q48 0 87.5 -8t74 -25.5t53.5 -50.5t19 -78zM416 387q0 68 -43 98t-99 30q-49 0 -87 -8v-240h50q85 0 132 25t47 95z" />
    <glyph glyph-name="uni01A7" unicode="&#x1a7;" horiz-adv-x="479" 
d="M97 631q13 2 52.5 14.5t93.5 12.5q70 0 129 -49t59 -124q0 -41 -18.5 -74.5t-53.5 -57t-60.5 -36t-62.5 -26.5q-55 -22 -83 -51t-28 -91q0 -59 37.5 -92t96.5 -33q122 0 156 154l30 -3q-17 -131 -19 -175q-8 0 -22 2.5t-24 2.5q-3 0 -41.5 -8.5t-96.5 -8.5
q-84 0 -141 58.5t-57 137.5q0 43 14.5 76t43.5 55t54.5 34.5t64.5 26.5q141 50 141 136q0 47 -31 79.5t-79 32.5q-35 0 -61 -13t-42.5 -38.5t-25 -46t-17.5 -52.5l-30 5q16 88 21 152z" />
    <glyph glyph-name="uni01A8" unicode="&#x1a8;" horiz-adv-x="371" 
d="M328 140l-7 -140q-9 2 -23 2q-12 0 -19 -2q-37 -10 -90 -10q-20 0 -44 6t-49.5 19.5t-42 39.5t-16.5 61q0 55 38 87.5t109 58.5q41 15 57 32.5t16 47.5q0 67 -77 67q-10 0 -22.5 -4t-28.5 -14t-30.5 -30.5t-21.5 -49.5l-24 1q1 46 10 102q50 25 117 25q60 0 99 -31
t39 -81q0 -52 -24 -76.5t-86 -51.5q-59 -25 -81.5 -49t-22.5 -57q0 -34 28.5 -54.5t58.5 -20.5q49 0 78 29q30 32 36 94z" />
    <glyph glyph-name="uni01A9" unicode="&#x1a9;" horiz-adv-x="592" 
d="M372 603h-226l218 -275l-1 -5l-260 -280h277q53 0 79.5 32t43.5 95q18 3 33 -5q-9 -105 -26 -165h-418l-71 -2q-3 5 -2.5 16t2.5 17q15 4 29 21l221 257l2 1l-195 266q-24 33 -56 38q-2 5 -2.5 16t2.5 16l101 -1h373q13 -59 21 -155q-15 -8 -33 -5q-11 34 -17 49
t-18.5 34.5t-31 27t-45.5 7.5z" />
    <glyph glyph-name="uni01AA" unicode="&#x1aa;" horiz-adv-x="305" 
d="M2 601q0 44 30.5 70.5t76.5 26.5q57 0 84.5 -40.5t27.5 -143.5v-501q0 -139 21 -170q14 -26 37 -26q14 0 24 26q13 29 31 29q31 0 31 -35q0 -18 -25 -33.5t-64 -15.5q-16 0 -40.5 9.5t-40.5 24.5q-23 21 -34.5 58.5t-13 68.5t-1.5 95v385q0 55 10 92q-25 -16 -48 -16
q-49 0 -77.5 26.5t-28.5 69.5zM174 601q0 27 -17.5 48.5t-48.5 21.5t-48.5 -21t-17.5 -49t18 -48.5t48 -20.5q29 0 47.5 20.5t18.5 48.5z" />
    <glyph glyph-name="uni01AB" unicode="&#x1ab;" horiz-adv-x="316" 
d="M164 -145q-16 0 -26 11t-10 27q0 20 14.5 27t37.5 9t32 8q27 16 27 59v12q-36 -18 -73 -18q-77 0 -77 99v301h-59q-5 0 -5 6v13q0 20 18 20h46q0 38 -0.5 63t-1 32.5t-1 12.5t-0.5 8q0 7 22 14q14 3 34 14q16 9 22 9q8 0 8 -9q-4 -40 -4 -105v-39h120q8 0 8 -6v-20
q0 -13 -24 -13h-104v-253q0 -49 7 -70.5t26 -21.5q46 0 82 28q15 -1 18 -17q-15 -18 -37 -33q3 -17 3 -33q0 -60 -37 -97.5t-66 -37.5z" />
    <glyph glyph-name="uni01AC" unicode="&#x1ac;" horiz-adv-x="617" 
d="M240 606h-76q-84 0 -84 -42q0 -12 6 -27q1 -3 4 -13.5t3 -15.5q0 -18 -13 -30t-31 -12t-32 12t-14 38q0 47 41.5 88t119.5 41h208q133 0 224 8q4 0 4 -3q0 -50 12 -142q-10 -5 -34 -5q-12 56 -46 79.5t-92 23.5h-22q-26 0 -36 -25.5t-10 -76.5v-382q0 -60 16.5 -74.5
t79.5 -16.5q4 -5 4 -17t-4 -16q-100 2 -138 2q-44 0 -140 -2q-4 4 -4 16t4 17q63 2 79.5 16.5t16.5 74.5v385q0 99 -46 99z" />
    <glyph glyph-name="uni01AD" unicode="&#x1ad;" horiz-adv-x="355" 
d="M89 471q0 113 36 170t101 57q60 0 90 -21q32 -24 32 -51q0 -15 -14 -28t-27 -13q-26 0 -40 32q-11 29 -20 38t-30 9q-27 0 -38 -34.5t-11 -143.5v-57h120q8 0 8 -6v-20q0 -13 -24 -13h-104v-253q0 -49 7 -70.5t26 -21.5q46 0 82 28q15 -1 18 -17q-59 -66 -135 -66
q-77 0 -77 99v301h-59q-5 0 -5 6v13q0 20 18 20h46v42z" />
    <glyph glyph-name="uni01AE" unicode="&#x1ae;" horiz-adv-x="597" 
d="M350 52q0 -191 55 -191q23 0 32.5 9.5t21.5 40.5q17 35 43 35q14 0 29 -14t15 -30q0 -30 -34 -55q-34 -23 -107 -23q-140 0 -140 247v436q0 49 -10.5 74t-36.5 25h-49q-52 0 -85 -24t-47 -82q-21 0 -34 5q20 86 25 145q0 3 4 3q101 -8 233 -8h86q133 0 224 8q3 0 3 -3
q1 -66 13 -142q-11 -5 -34 -5q-12 56 -46 79.5t-93 23.5h-22q-26 0 -36 -25.5t-10 -76.5v-452z" />
    <glyph glyph-name="Uhorn" unicode="&#x1af;" horiz-adv-x="690" 
d="M616 609q-24 -2 -32.5 -20.5t-8.5 -65.5v-228q0 -71 -11 -123.5t-38.5 -95t-78.5 -64.5t-126 -22q-39 0 -75.5 10.5t-74.5 35.5t-61 76.5t-23 123.5v287q0 59 -14.5 74t-62.5 17q-4 4 -4 16t4 17q100 -2 119 -2q37 0 135 2q4 -5 4 -17t-4 -16q-60 -2 -76 -16.5t-16 -74.5
v-254q0 -42 2 -69t14 -62t35 -57q52 -50 119 -50q49 0 84 15.5t54 38t30 58t13.5 65t2.5 69.5v246q0 32 -3 48.5t-16 25.5t-26 11.5t-47 5.5q-4 4 -4 16t4 17q100 -2 115 -2q62 0 80.5 5t18.5 21q0 15 -20 19q-34 8 -34 41q0 18 13.5 28.5t35.5 10.5q53 0 53 -84
q0 -31 -23.5 -52.5t-56.5 -24.5z" />
    <glyph glyph-name="uhorn" unicode="&#x1b0;" horiz-adv-x="531" 
d="M217 -10q-69 0 -99 38.5t-30 97.5v192q0 47 -12.5 62t-49.5 18q-4 4 -4 16t4 17q68 -2 102 -2q25 0 35 2q8 0 8 -6q-4 -73 -4 -103v-182q0 -59 24.5 -81t55.5 -22q45 0 100 48q16 14 16 39v193q0 48 -12 63.5t-50 17.5q-5 4 -5 16t5 17q68 -2 102 -2q20 0 27 1v1
q14 2 27.5 10.5t13.5 16.5q0 20 -27 21q-24 1 -36 13.5t-12 29.5q0 39 46 39q28 0 45.5 -26t17.5 -62q0 -22 -15.5 -42t-44.5 -27q-3 -72 -3 -82v-192q0 -39 13.5 -54t59.5 -19q5 -5 5 -14t-5 -13q-80 -9 -118 -40q-11 -3 -19 0q-8 34 -11 59q-1 5 -6 4.5t-9 -3.5
q-73 -60 -135 -60z" />
    <glyph glyph-name="uni01B1" unicode="&#x1b1;" horiz-adv-x="666" 
d="M126 587q-40 0 -56 -10.5t-20 -49.5h-26l7 118h96q89 0 89 -62q0 -38 -48 -151t-48 -163q0 -109 55.5 -178t151.5 -69q98 0 152 71.5t54 174.5q0 63 -26 130.5t-52 118.5t-26 75q0 27 29 40t99 13h70l7 -118h-26q-3 37 -19 48.5t-57 11.5q-46 0 -46 -22q0 -14 21 -47
t46.5 -67.5t46.5 -85t21 -96.5q0 -110 -78 -195.5t-216 -85.5q-143 0 -219 80.5t-76 200.5q0 45 21.5 95.5t47 85.5t47 68t21.5 47q0 22 -43 22z" />
    </font>
</defs>
</svg>
